GenBasB.ufo
<glyph name="ExclamationMrk" format="1">
  <advance width="633"/>
  <unicode hex="0021"/>
  <outline>
    <contour>
      <point x="456" y="1448" type="line"/>
      <point x="406" y="1480" type="line"/>
      <point x="353" y="1461"/>
      <point x="226" y="1401"/>
      <point x="167" y="1368" type="curve"/>
      <point x="244" y="394" type="line"/>
      <point x="273" y="373" type="line"/>
      <point x="306" y="383"/>
      <point x="352" y="394"/>
      <point x="377" y="412" type="curve"/>
    </contour>
    <contour>
      <point x="476" y="131" type="curve" smooth="yes"/>
      <point x="476" y="225"/>
      <point x="405" y="266"/>
      <point x="332" y="266" type="curve" smooth="yes"/>
      <point x="234" y="266"/>
      <point x="148" y="200"/>
      <point x="148" y="95" type="curve" smooth="yes"/>
      <point x="148" y="0"/>
      <point x="214" y="-40"/>
      <point x="293" y="-40" type="curve" smooth="yes"/>
      <point x="393" y="-40"/>
      <point x="476" y="24"/>
    </contour>
  </outline>
</glyph>
<glyph name="QuotMrk" format="1">
  <advance width="960"/>
  <unicode hex="0022"/>
  <outline>
    <contour>
      <point x="823" y="1452" type="line"/>
      <point x="772" y="1480" type="line"/>
      <point x="744" y="1474"/>
      <point x="570" y="1413"/>
      <point x="541" y="1396" type="curve"/>
      <point x="624" y="813" type="line"/>
      <point x="655" y="813"/>
      <point x="730" y="823"/>
      <point x="750" y="834" type="curve"/>
    </contour>
    <contour>
      <point x="420" y="1452" type="line"/>
      <point x="369" y="1480" type="line"/>
      <point x="341" y="1474"/>
      <point x="168" y="1413"/>
      <point x="138" y="1396" type="curve"/>
      <point x="221" y="813" type="line"/>
      <point x="252" y="813"/>
      <point x="327" y="823"/>
      <point x="347" y="834" type="curve"/>
    </contour>
  </outline>
</glyph>
<glyph name="PercentSgn" format="1">
  <advance width="1491"/>
  <unicode hex="0025"/>
  <outline>
    <contour>
      <point x="693" y="897" type="curve" smooth="yes"/>
      <point x="693" y="1085"/>
      <point x="578" y="1238"/>
      <point x="381" y="1238" type="curve" smooth="yes"/>
      <point x="181" y="1238"/>
      <point x="54" y="1083"/>
      <point x="54" y="897" type="curve" smooth="yes"/>
      <point x="54" y="712"/>
      <point x="173" y="557"/>
      <point x="365" y="557" type="curve" smooth="yes"/>
      <point x="556" y="557"/>
      <point x="693" y="712"/>
    </contour>
    <contour>
      <point x="488" y="877" type="curve" smooth="yes"/>
      <point x="488" y="702"/>
      <point x="451" y="632"/>
      <point x="381" y="632" type="curve" smooth="yes"/>
      <point x="302" y="632"/>
      <point x="259" y="724"/>
      <point x="259" y="920" type="curve" smooth="yes"/>
      <point x="259" y="1095"/>
      <point x="298" y="1163"/>
      <point x="365" y="1163" type="curve" smooth="yes"/>
      <point x="435" y="1163"/>
      <point x="488" y="1072"/>
    </contour>
    <contour>
      <point x="1285" y="1206" type="line"/>
      <point x="1259" y="1236" type="line"/>
      <point x="1227" y="1229"/>
      <point x="1142" y="1213"/>
      <point x="1114" y="1199" type="curve"/>
      <point x="201" y="0" type="line"/>
      <point x="225" y="-31" type="line"/>
      <point x="261" y="-22"/>
      <point x="345" y="-9"/>
      <point x="374" y="7" type="curve"/>
    </contour>
    <contour>
      <point x="1438" y="310" type="curve" smooth="yes"/>
      <point x="1438" y="498"/>
      <point x="1324" y="651"/>
      <point x="1127" y="651" type="curve" smooth="yes"/>
      <point x="927" y="651"/>
      <point x="799" y="496"/>
      <point x="799" y="310" type="curve" smooth="yes"/>
      <point x="799" y="124"/>
      <point x="919" y="-31"/>
      <point x="1110" y="-31" type="curve" smooth="yes"/>
      <point x="1301" y="-31"/>
      <point x="1438" y="124"/>
    </contour>
    <contour>
      <point x="1233" y="290" type="curve" smooth="yes"/>
      <point x="1233" y="114"/>
      <point x="1196" y="44"/>
      <point x="1127" y="44" type="curve" smooth="yes"/>
      <point x="1047" y="44"/>
      <point x="1004" y="137"/>
      <point x="1004" y="333" type="curve" smooth="yes"/>
      <point x="1004" y="508"/>
      <point x="1044" y="576"/>
      <point x="1110" y="576" type="curve" smooth="yes"/>
      <point x="1181" y="576"/>
      <point x="1233" y="485"/>
    </contour>
  </outline>
</glyph>
<glyph name="Apos" format="1">
  <advance width="557"/>
  <unicode hex="0027"/>
  <outline>
    <contour>
      <point x="420" y="1452" type="line"/>
      <point x="369" y="1480" type="line"/>
      <point x="341" y="1474"/>
      <point x="168" y="1413"/>
      <point x="138" y="1396" type="curve"/>
      <point x="221" y="813" type="line"/>
      <point x="252" y="813"/>
      <point x="327" y="823"/>
      <point x="347" y="834" type="curve"/>
    </contour>
  </outline>
</glyph>
<glyph name="LftParen" format="1">
  <advance width="679"/>
  <unicode hex="0028"/>
  <outline>
    <contour>
      <point x="655" y="-240" type="line"/>
      <point x="466" y="-57"/>
      <point x="366" y="262"/>
      <point x="366" y="651" type="curve" smooth="yes"/>
      <point x="366" y="1079"/>
      <point x="496" y="1365"/>
      <point x="655" y="1525" type="curve"/>
      <point x="601" y="1600" type="line"/>
      <point x="296" y="1420"/>
      <point x="106" y="1061"/>
      <point x="106" y="623" type="curve" smooth="yes"/>
      <point x="106" y="199"/>
      <point x="269" y="-139"/>
      <point x="601" y="-315" type="curve"/>
    </contour>
  </outline>
</glyph>
<glyph name="RtParen" format="1">
  <advance width="679"/>
  <unicode hex="0029"/>
  <outline>
    <contour>
      <point x="575" y="662" type="curve"/>
      <point x="575" y="1086"/>
      <point x="412" y="1423"/>
      <point x="80" y="1599" type="curve"/>
      <point x="26" y="1524" type="line"/>
      <point x="215" y="1342"/>
      <point x="315" y="1022"/>
      <point x="315" y="634" type="curve" smooth="yes"/>
      <point x="315" y="206"/>
      <point x="185" y="-81"/>
      <point x="26" y="-241" type="curve"/>
      <point x="80" y="-316" type="line"/>
      <point x="385" y="-135"/>
      <point x="575" y="224"/>
    </contour>
  </outline>
</glyph>
<glyph name="Asterisk" format="1">
  <advance width="907"/>
  <unicode hex="002A"/>
  <outline>
    <contour>
      <point x="555" y="1525" type="line"/>
      <point x="511" y="1561" type="line"/>
      <point x="482" y="1554"/>
      <point x="381" y="1513"/>
      <point x="352" y="1498" type="curve"/>
      <point x="402" y="1219" type="line"/>
      <point x="165" y="1417" type="line"/>
      <point x="113" y="1397" type="line"/>
      <point x="104" y="1369"/>
      <point x="89" y="1260"/>
      <point x="87" y="1228" type="curve"/>
      <point x="356" y="1132" type="line"/>
      <point x="64" y="1026" type="line"/>
      <point x="56" y="970" type="line"/>
      <point x="75" y="949"/>
      <point x="162" y="882"/>
      <point x="189" y="864" type="curve"/>
      <point x="405" y="1048" type="line"/>
      <point x="352" y="743" type="line"/>
      <point x="396" y="708" type="line"/>
      <point x="425" y="714"/>
      <point x="526" y="755"/>
      <point x="555" y="770" type="curve"/>
      <point x="505" y="1048" type="line"/>
      <point x="741" y="851" type="line"/>
      <point x="794" y="871" type="line"/>
      <point x="803" y="900"/>
      <point x="818" y="1008"/>
      <point x="820" y="1040" type="curve"/>
      <point x="552" y="1136" type="line"/>
      <point x="843" y="1242" type="line"/>
      <point x="852" y="1298" type="line"/>
      <point x="831" y="1320"/>
      <point x="745" y="1386"/>
      <point x="718" y="1404" type="curve"/>
      <point x="501" y="1220" type="line"/>
    </contour>
  </outline>
</glyph>
<glyph name="PlusSgn" format="1">
  <advance width="863"/>
  <unicode hex="002B"/>
  <outline>
    <contour>
      <point x="506" y="225" type="curve"/>
      <point x="506" y="491" type="line"/>
      <point x="764" y="491" type="line"/>
      <point x="774" y="513"/>
      <point x="802" y="574"/>
      <point x="810" y="603" type="curve"/>
      <point x="777" y="634" type="line"/>
      <point x="506" y="634" type="line"/>
      <point x="506" y="908" type="line"/>
      <point x="474" y="939" type="line"/>
      <point x="445" y="932"/>
      <point x="386" y="910"/>
      <point x="361" y="902" type="curve"/>
      <point x="361" y="634" type="line"/>
      <point x="99" y="634" type="line"/>
      <point x="87" y="608"/>
      <point x="60" y="551"/>
      <point x="53" y="522" type="curve"/>
      <point x="85" y="491" type="line"/>
      <point x="361" y="491" type="line"/>
      <point x="361" y="216" type="line"/>
      <point x="393" y="186" type="line"/>
      <point x="422" y="192"/>
      <point x="480" y="212"/>
    </contour>
  </outline>
</glyph>
<glyph name="HyphenMinus" format="1">
  <advance width="728"/>
  <unicode hex="002D"/>
  <outline>
    <contour>
      <point x="675" y="554" type="curve"/>
      <point x="642" y="585" type="line"/>
      <point x="99" y="585" type="line"/>
      <point x="87" y="559"/>
      <point x="60" y="501"/>
      <point x="53" y="472" type="curve"/>
      <point x="85" y="440" type="line"/>
      <point x="629" y="440" type="line"/>
      <point x="639" y="462"/>
      <point x="667" y="525"/>
    </contour>
    <contour>
      <point x="364" y="1050" type="move" name="U"/>
    </contour>
  </outline>
</glyph>
<glyph name="DigitZero" format="1">
  <advance width="1036"/>
  <unicode hex="0030"/>
  <outline>
    <contour>
      <point x="975" y="602" type="curve"/>
      <point x="975" y="950"/>
      <point x="814" y="1235"/>
      <point x="530" y="1235" type="curve" smooth="yes"/>
      <point x="241" y="1235"/>
      <point x="61" y="946"/>
      <point x="61" y="602" type="curve" smooth="yes"/>
      <point x="61" y="258"/>
      <point x="230" y="-30"/>
      <point x="506" y="-30" type="curve" smooth="yes"/>
      <point x="783" y="-30"/>
      <point x="975" y="258"/>
    </contour>
    <contour>
      <point x="714" y="565" type="curve"/>
      <point x="714" y="227"/>
      <point x="654" y="100"/>
      <point x="530" y="100" type="curve" smooth="yes"/>
      <point x="397" y="100"/>
      <point x="323" y="279"/>
      <point x="323" y="645" type="curve" smooth="yes"/>
      <point x="323" y="979"/>
      <point x="384" y="1105"/>
      <point x="506" y="1105" type="curve" smooth="yes"/>
      <point x="626" y="1105"/>
      <point x="714" y="930"/>
    </contour>
    <contour>
      <point x="518" y="1370" type="move" name="U"/>
    </contour>
    <contour>
      <point x="518" y="-100" type="move" name="L"/>
    </contour>
  </outline>
</glyph>
<glyph name="DigitFour" format="1">
  <advance width="1036"/>
  <unicode hex="0034"/>
  <outline>
    <contour>
      <point x="957" y="445" type="curve"/>
      <point x="931" y="475" type="line"/>
      <point x="800" y="475" type="line"/>
      <point x="800" y="1203" type="line"/>
      <point x="756" y="1245" type="line"/>
      <point x="698" y="1223"/>
      <point x="599" y="1189"/>
      <point x="536" y="1167" type="curve"/>
      <point x="55" y="376" type="line"/>
      <point x="96" y="335" type="line"/>
      <point x="570" y="335" type="line"/>
      <point x="570" y="145" type="line" smooth="yes"/>
      <point x="570" y="122"/>
      <point x="534" y="102"/>
      <point x="360" y="73" type="curve"/>
      <point x="360" y="0" type="line"/>
      <point x="939" y="0" type="line"/>
      <point x="939" y="73" type="line"/>
      <point x="829" y="98"/>
      <point x="800" y="114"/>
      <point x="800" y="134" type="curve" smooth="yes"/>
      <point x="800" y="335" type="line"/>
      <point x="855" y="335" type="line"/>
      <point x="885" y="358"/>
      <point x="929" y="402"/>
    </contour>
    <contour>
      <point x="570" y="475" type="line"/>
      <point x="251" y="475" type="line"/>
      <point x="570" y="980" type="line"/>
    </contour>
    <contour>
      <point x="518" y="1370" type="move" name="U"/>
    </contour>
    <contour>
      <point x="518" y="-100" type="move" name="L"/>
    </contour>
  </outline>
</glyph>
<glyph name="DigitSeven" format="1">
  <advance width="1036"/>
  <unicode hex="0037"/>
  <outline>
    <contour>
      <point x="960" y="1167" type="curve"/>
      <point x="927" y="1205" type="line"/>
      <point x="147" y="1205" type="line"/>
      <point x="131" y="1146"/>
      <point x="106" y="950"/>
      <point x="97" y="888" type="curve"/>
      <point x="165" y="863" type="line"/>
      <point x="222" y="1018"/>
      <point x="270" y="1023"/>
      <point x="309" y="1023" type="curve" smooth="yes"/>
      <point x="756" y="1023" type="line"/>
      <point x="609" y="683"/>
      <point x="491" y="419"/>
      <point x="259" y="11" type="curve"/>
      <point x="308" y="-30" type="line"/>
      <point x="374" y="-13"/>
      <point x="483" y="19"/>
      <point x="530" y="52" type="curve"/>
      <point x="600" y="265"/>
      <point x="775" y="737"/>
    </contour>
    <contour>
      <point x="518" y="1370" type="move" name="U"/>
    </contour>
    <contour>
      <point x="518" y="-100" type="move" name="L"/>
    </contour>
  </outline>
</glyph>
<glyph name="DigitEight" format="1">
  <advance width="1036"/>
  <unicode hex="0038"/>
  <outline>
    <contour>
      <point x="957" y="352" type="curve" smooth="yes"/>
      <point x="957" y="548"/>
      <point x="829" y="637"/>
      <point x="691" y="701" type="curve"/>
      <point x="814" y="780"/>
      <point x="907" y="864"/>
      <point x="907" y="969" type="curve" smooth="yes"/>
      <point x="907" y="1124"/>
      <point x="785" y="1235"/>
      <point x="532" y="1235" type="curve" smooth="yes"/>
      <point x="309" y="1235"/>
      <point x="130" y="1100"/>
      <point x="130" y="915" type="curve" smooth="yes"/>
      <point x="130" y="756"/>
      <point x="234" y="687"/>
      <point x="353" y="632" type="curve"/>
      <point x="192" y="549"/>
      <point x="79" y="423"/>
      <point x="79" y="285" type="curve" smooth="yes"/>
      <point x="79" y="121"/>
      <point x="223" y="-30"/>
      <point x="496" y="-30" type="curve" smooth="yes"/>
      <point x="755" y="-30"/>
      <point x="957" y="145"/>
    </contour>
    <contour>
      <point x="700" y="309" type="curve" smooth="yes"/>
      <point x="700" y="193"/>
      <point x="640" y="93"/>
      <point x="530" y="93" type="curve" smooth="yes"/>
      <point x="431" y="93"/>
      <point x="337" y="176"/>
      <point x="337" y="315" type="curve" smooth="yes"/>
      <point x="337" y="424"/>
      <point x="380" y="501"/>
      <point x="466" y="583" type="curve"/>
      <point x="590" y="529"/>
      <point x="700" y="464"/>
    </contour>
    <contour>
      <point x="358" y="950" type="curve" smooth="yes"/>
      <point x="358" y="1040"/>
      <point x="407" y="1119"/>
      <point x="496" y="1119" type="curve" smooth="yes"/>
      <point x="582" y="1119"/>
      <point x="659" y="1077"/>
      <point x="660" y="938" type="curve" smooth="yes"/>
      <point x="660" y="876"/>
      <point x="632" y="814"/>
      <point x="573" y="752" type="curve"/>
      <point x="456" y="802"/>
      <point x="358" y="849"/>
    </contour>
    <contour>
      <point x="518" y="1370" type="move" name="U"/>
    </contour>
    <contour>
      <point x="518" y="-100" type="move" name="L"/>
    </contour>
  </outline>
</glyph>
<glyph name="DigitNine" format="1">
  <advance width="1036"/>
  <unicode hex="0039"/>
  <outline>
    <contour>
      <point x="960" y="731" type="curve" smooth="yes"/>
      <point x="960" y="1085"/>
      <point x="782" y="1235"/>
      <point x="536" y="1235" type="curve" smooth="yes"/>
      <point x="270" y="1235"/>
      <point x="85" y="997"/>
      <point x="85" y="795" type="curve" smooth="yes"/>
      <point x="85" y="596"/>
      <point x="211" y="423"/>
      <point x="446" y="423" type="curve" smooth="yes"/>
      <point x="540" y="423"/>
      <point x="628" y="465"/>
      <point x="697" y="532" type="curve"/>
      <point x="672" y="307"/>
      <point x="552" y="138"/>
      <point x="180" y="46" type="curve"/>
      <point x="205" y="-43" type="line"/>
      <point x="708" y="17"/>
      <point x="960" y="326"/>
    </contour>
    <contour>
      <point x="511" y="570" type="curve" smooth="yes"/>
      <point x="444" y="570"/>
      <point x="333" y="632"/>
      <point x="333" y="856" type="curve" smooth="yes"/>
      <point x="333" y="1014"/>
      <point x="399" y="1108"/>
      <point x="510" y="1108" type="curve" smooth="yes"/>
      <point x="601" y="1108"/>
      <point x="697" y="1036"/>
      <point x="703" y="674" type="curve"/>
      <point x="652" y="614"/>
      <point x="586" y="570"/>
    </contour>
    <contour>
      <point x="518" y="1370" type="move" name="U"/>
    </contour>
    <contour>
      <point x="518" y="-100" type="move" name="L"/>
    </contour>
  </outline>
</glyph>
<glyph name="Colon" format="1">
  <advance width="552"/>
  <unicode hex="003A"/>
  <outline>
    <contour>
      <point x="459" y="131" type="curve"/>
      <point x="459" y="225"/>
      <point x="389" y="266"/>
      <point x="315" y="266" type="curve" smooth="yes"/>
      <point x="218" y="266"/>
      <point x="131" y="200"/>
      <point x="131" y="95" type="curve" smooth="yes"/>
      <point x="131" y="0"/>
      <point x="198" y="-40"/>
      <point x="276" y="-40" type="curve" smooth="yes"/>
      <point x="377" y="-40"/>
      <point x="459" y="24"/>
    </contour>
    <contour>
      <point x="459" y="825" type="curve"/>
      <point x="459" y="919"/>
      <point x="389" y="960"/>
      <point x="315" y="960" type="curve" smooth="yes"/>
      <point x="218" y="960"/>
      <point x="131" y="894"/>
      <point x="131" y="789" type="curve" smooth="yes"/>
      <point x="131" y="694"/>
      <point x="198" y="654"/>
      <point x="276" y="654" type="curve" smooth="yes"/>
      <point x="377" y="654"/>
      <point x="459" y="718"/>
    </contour>
  </outline>
</glyph>
<glyph name="LTSgn" format="1">
  <advance width="930"/>
  <unicode hex="003C"/>
  <outline>
    <contour>
      <point x="877" y="333" type="curve"/>
      <point x="853" y="376" type="line"/>
      <point x="312" y="569" type="line"/>
      <point x="841" y="759" type="line"/>
      <point x="849" y="784"/>
      <point x="870" y="860"/>
      <point x="877" y="888" type="curve"/>
      <point x="845" y="920" type="line"/>
      <point x="91" y="648" type="line"/>
      <point x="85" y="633" type="line" smooth="yes"/>
      <point x="83" y="630"/>
      <point x="82" y="625"/>
      <point x="81" y="621" type="curve" smooth="yes"/>
      <point x="78" y="612"/>
      <point x="74" y="601"/>
      <point x="71" y="590" type="curve" smooth="yes"/>
      <point x="61" y="556" type="line"/>
      <point x="56" y="538" type="line"/>
      <point x="53" y="526" type="line"/>
      <point x="85" y="487" type="line"/>
      <point x="771" y="241" type="line"/>
      <point x="812" y="266"/>
      <point x="848" y="306"/>
    </contour>
  </outline>
</glyph>
<glyph name="EqSgn" format="1">
  <advance width="930"/>
  <unicode hex="003D"/>
  <outline>
    <contour>
      <point x="877" y="752" type="curve"/>
      <point x="845" y="784" type="line"/>
      <point x="99" y="784" type="line"/>
      <point x="87" y="758"/>
      <point x="60" y="700"/>
      <point x="53" y="672" type="curve"/>
      <point x="85" y="640" type="line"/>
      <point x="832" y="640" type="line"/>
      <point x="841" y="662"/>
      <point x="869" y="724"/>
    </contour>
    <contour>
      <point x="877" y="452" type="curve"/>
      <point x="845" y="484" type="line"/>
      <point x="99" y="484" type="line"/>
      <point x="87" y="458"/>
      <point x="60" y="401"/>
      <point x="53" y="372" type="curve"/>
      <point x="85" y="340" type="line"/>
      <point x="832" y="340" type="line"/>
      <point x="841" y="363"/>
      <point x="869" y="423"/>
    </contour>
  </outline>
</glyph>
<glyph name="GTSgn" format="1">
  <advance width="930"/>
  <unicode hex="003E"/>
  <outline>
    <contour>
      <point x="845" y="675" type="line"/>
      <point x="159" y="920" type="line"/>
      <point x="123" y="896"/>
      <point x="82" y="855"/>
      <point x="53" y="829" type="curve"/>
      <point x="77" y="785" type="line"/>
      <point x="616" y="592" type="line"/>
      <point x="90" y="402" type="line"/>
      <point x="81" y="377"/>
      <point x="60" y="301"/>
      <point x="53" y="274" type="curve"/>
      <point x="85" y="241" type="line"/>
      <point x="839" y="513" type="line"/>
      <point x="851" y="546"/>
      <point x="869" y="600"/>
      <point x="877" y="635" type="curve" smooth="yes"/>
    </contour>
  </outline>
</glyph>
<glyph name="AtSgn" format="1">
  <advance width="1796"/>
  <unicode hex="0040"/>
  <outline>
    <contour>
      <point x="1711" y="572" type="curve"/>
      <point x="1711" y="1106"/>
      <point x="1411" y="1363"/>
      <point x="977" y="1363" type="curve" smooth="yes"/>
      <point x="478" y="1363"/>
      <point x="85" y="948"/>
      <point x="85" y="465" type="curve" smooth="yes"/>
      <point x="85" y="-85"/>
      <point x="433" y="-413"/>
      <point x="929" y="-413" type="curve" smooth="yes"/>
      <point x="1254" y="-413"/>
      <point x="1464" y="-262"/>
      <point x="1560" y="-154" type="curve"/>
      <point x="1513" y="-67" type="line"/>
      <point x="1433" y="-135"/>
      <point x="1233" y="-240"/>
      <point x="978" y="-240" type="curve" smooth="yes"/>
      <point x="609" y="-240"/>
      <point x="310" y="19"/>
      <point x="310" y="524" type="curve" smooth="yes"/>
      <point x="310" y="885"/>
      <point x="530" y="1191"/>
      <point x="938" y="1191" type="curve" smooth="yes"/>
      <point x="1283" y="1191"/>
      <point x="1516" y="969"/>
      <point x="1516" y="512" type="curve" smooth="yes"/>
      <point x="1516" y="287"/>
      <point x="1422" y="162"/>
      <point x="1355" y="162" type="curve" smooth="yes"/>
      <point x="1298" y="162"/>
      <point x="1284" y="204"/>
      <point x="1284" y="285" type="curve" smooth="yes"/>
      <point x="1284" y="701" type="line" smooth="yes"/>
      <point x="1284" y="812"/>
      <point x="1314" y="930"/>
      <point x="1314" y="930" type="curve"/>
      <point x="1283" y="960" type="line"/>
      <point x="1224" y="919"/>
      <point x="1176" y="895"/>
      <point x="1103" y="869" type="curve"/>
      <point x="1039" y="947"/>
      <point x="995" y="960"/>
      <point x="934" y="960" type="curve" smooth="yes"/>
      <point x="659" y="960"/>
      <point x="498" y="689"/>
      <point x="498" y="437" type="curve" smooth="yes"/>
      <point x="498" y="117"/>
      <point x="656" y="-30"/>
      <point x="792" y="-30" type="curve" smooth="yes"/>
      <point x="898" y="-30"/>
      <point x="941" y="3"/>
      <point x="1050" y="132" type="curve"/>
      <point x="1076" y="8"/>
      <point x="1137" y="-30"/>
      <point x="1217" y="-30" type="curve" smooth="yes"/>
      <point x="1455" y="-30"/>
      <point x="1711" y="233"/>
    </contour>
    <contour>
      <point x="1044" y="280" type="line"/>
      <point x="973" y="184"/>
      <point x="945" y="160"/>
      <point x="893" y="160" type="curve" smooth="yes"/>
      <point x="821" y="160"/>
      <point x="738" y="241"/>
      <point x="738" y="468" type="curve" smooth="yes"/>
      <point x="738" y="718"/>
      <point x="801" y="828"/>
      <point x="918" y="828" type="curve" smooth="yes"/>
      <point x="983" y="828"/>
      <point x="1015" y="790"/>
      <point x="1044" y="731" type="curve"/>
    </contour>
  </outline>
</glyph>
<glyph name="LtnCapB" format="1">
  <advance width="1231"/>
  <unicode hex="0042"/>
  <outline>
    <contour>
      <point x="1129" y="356" type="curve" smooth="yes"/>
      <point x="1129" y="541"/>
      <point x="990" y="690"/>
      <point x="790" y="723" type="curve"/>
      <point x="939" y="770"/>
      <point x="1018" y="877"/>
      <point x="1018" y="1020" type="curve" smooth="yes"/>
      <point x="1018" y="1188"/>
      <point x="835" y="1290"/>
      <point x="529" y="1290" type="curve" smooth="yes"/>
      <point x="369" y="1290"/>
      <point x="149" y="1259"/>
      <point x="30" y="1230" type="curve"/>
      <point x="43" y="1146" type="line"/>
      <point x="81" y="1153"/>
      <point x="129" y="1160"/>
      <point x="180" y="1165" type="curve"/>
      <point x="180" y="134" type="line" smooth="yes"/>
      <point x="180" y="116"/>
      <point x="133" y="91"/>
      <point x="43" y="73" type="curve"/>
      <point x="43" y="0" type="line"/>
      <point x="123" y="0" type="line"/>
      <point x="123" y="0"/>
      <point x="495" y="-14"/>
      <point x="612" y="-14" type="curve" smooth="yes"/>
      <point x="934" y="-14"/>
      <point x="1129" y="129"/>
    </contour>
    <contour>
      <point x="565" y="639" type="curve" smooth="yes"/>
      <point x="797" y="639"/>
      <point x="867" y="484"/>
      <point x="867" y="337" type="curve" smooth="yes"/>
      <point x="867" y="187"/>
      <point x="767" y="93"/>
      <point x="575" y="93" type="curve" smooth="yes"/>
      <point x="522" y="93"/>
      <point x="474" y="98"/>
      <point x="435" y="114" type="curve"/>
      <point x="431" y="119"/>
      <point x="430" y="123"/>
      <point x="430" y="127" type="curve" smooth="yes"/>
      <point x="430" y="626" type="line"/>
      <point x="468" y="633"/>
      <point x="504" y="639"/>
    </contour>
    <contour>
      <point x="466" y="1184" type="curve" smooth="yes"/>
      <point x="694" y="1184"/>
      <point x="765" y="1104"/>
      <point x="765" y="971" type="curve" smooth="yes"/>
      <point x="765" y="856"/>
      <point x="715" y="740"/>
      <point x="449" y="740" type="curve" smooth="yes"/>
      <point x="430" y="740" type="line"/>
      <point x="430" y="1183" type="line"/>
      <point x="443" y="1184"/>
      <point x="455" y="1184"/>
    </contour>
    <contour>
      <point x="579" y="1370" type="move" name="U"/>
    </contour>
    <contour>
      <point x="579" y="-100" type="move" name="L"/>
    </contour>
  </outline>
</glyph>
<glyph name="LtnCapC" format="1">
  <advance width="1143"/>
  <unicode hex="0043"/>
  <outline>
    <contour>
      <point x="1071" y="211" type="curve"/>
      <point x="1063" y="219"/>
      <point x="1033" y="269"/>
      <point x="1019" y="279" type="curve"/>
      <point x="879" y="163"/>
      <point x="753" y="135"/>
      <point x="681" y="135" type="curve" smooth="yes"/>
      <point x="506" y="135"/>
      <point x="308" y="283"/>
      <point x="308" y="623" type="curve" smooth="yes"/>
      <point x="308" y="1038"/>
      <point x="485" y="1157"/>
      <point x="622" y="1158" type="curve" smooth="yes"/>
      <point x="725" y="1158"/>
      <point x="815" y="1107"/>
      <point x="882" y="991" type="curve"/>
      <point x="947" y="977" type="line"/>
      <point x="978" y="1008"/>
      <point x="1067" y="1178"/>
      <point x="1052" y="1190" type="curve" smooth="yes"/>
      <point x="983" y="1245"/>
      <point x="834" y="1289"/>
      <point x="691" y="1290" type="curve" smooth="yes"/>
      <point x="334" y="1292"/>
      <point x="55" y="1012"/>
      <point x="55" y="586" type="curve" smooth="yes"/>
      <point x="55" y="199"/>
      <point x="317" y="-30"/>
      <point x="586" y="-30" type="curve" smooth="yes"/>
      <point x="739" y="-30"/>
      <point x="901" y="37"/>
    </contour>
    <contour>
      <point x="605" y="0" type="move" name="H"/>
    </contour>
    <contour>
      <point x="637" y="1370" type="move" name="U"/>
    </contour>
    <contour>
      <point x="637" y="-100" type="move" name="L"/>
    </contour>
  </outline>
</glyph>
<glyph name="LtnCapD" format="1">
  <advance width="1304"/>
  <unicode hex="0044"/>
  <outline>
    <contour>
      <point x="1221" y="676" type="curve" smooth="yes"/>
      <point x="1221" y="1063"/>
      <point x="987" y="1290"/>
      <point x="578" y="1290" type="curve" smooth="yes"/>
      <point x="405" y="1290"/>
      <point x="162" y="1263"/>
      <point x="30" y="1230" type="curve"/>
      <point x="43" y="1138" type="line"/>
      <point x="180" y="1157" type="line"/>
      <point x="180" y="134" type="line" smooth="yes"/>
      <point x="180" y="116"/>
      <point x="133" y="91"/>
      <point x="43" y="73" type="curve"/>
      <point x="43" y="0" type="line"/>
      <point x="619" y="0" type="line" smooth="yes"/>
      <point x="893" y="0"/>
      <point x="1221" y="176"/>
    </contour>
    <contour>
      <point x="506" y="1184" type="curve" smooth="yes"/>
      <point x="797" y="1184"/>
      <point x="953" y="991"/>
      <point x="953" y="637" type="curve" smooth="yes"/>
      <point x="953" y="262"/>
      <point x="736" y="107"/>
      <point x="582" y="107" type="curve" smooth="yes"/>
      <point x="470" y="107"/>
      <point x="440" y="123"/>
      <point x="432" y="153" type="curve" smooth="yes"/>
      <point x="430" y="162"/>
      <point x="430" y="172"/>
      <point x="430" y="184" type="curve" smooth="yes"/>
      <point x="430" y="1182" type="line"/>
      <point x="456" y="1183"/>
      <point x="482" y="1184"/>
    </contour>
    <contour>
      <point x="590" y="1370" type="move" name="U"/>
    </contour>
    <contour>
      <point x="590" y="-100" type="move" name="L"/>
    </contour>
  </outline>
</glyph>
<glyph name="LtnCapG" format="1">
  <advance width="1232"/>
  <unicode hex="0047"/>
  <outline>
    <contour>
      <point x="1095" y="1188" type="curve" smooth="yes"/>
      <point x="1009" y="1253"/>
      <point x="840" y="1290"/>
      <point x="752" y="1290" type="curve" smooth="yes"/>
      <point x="356" y="1290"/>
      <point x="55" y="1026"/>
      <point x="55" y="582" type="curve" smooth="yes"/>
      <point x="55" y="170"/>
      <point x="343" y="-31"/>
      <point x="633" y="-30" type="curve" smooth="yes"/>
      <point x="754" y="-30"/>
      <point x="895" y="7"/>
      <point x="1093" y="169" type="curve"/>
      <point x="1093" y="470" type="line" smooth="yes"/>
      <point x="1093" y="501"/>
      <point x="1114" y="534"/>
      <point x="1190" y="552" type="curve"/>
      <point x="1190" y="625" type="line"/>
      <point x="692" y="625" type="line"/>
      <point x="692" y="552" type="line"/>
      <point x="842" y="526"/>
      <point x="853" y="499"/>
      <point x="853" y="470" type="curve" smooth="yes"/>
      <point x="853" y="165" type="line"/>
      <point x="806" y="142"/>
      <point x="749" y="128"/>
      <point x="676" y="128" type="curve" smooth="yes"/>
      <point x="488" y="128"/>
      <point x="308" y="281"/>
      <point x="308" y="637" type="curve" smooth="yes"/>
      <point x="308" y="1053"/>
      <point x="528" y="1165"/>
      <point x="628" y="1165" type="curve" smooth="yes"/>
      <point x="744" y="1165"/>
      <point x="833" y="1124"/>
      <point x="921" y="995" type="curve"/>
      <point x="984" y="981" type="line"/>
      <point x="1019" y="1012"/>
      <point x="1114" y="1174"/>
    </contour>
    <contour>
      <point x="635" y="0" type="move" name="H"/>
    </contour>
    <contour>
      <point x="657" y="1370" type="move" name="U"/>
    </contour>
    <contour>
      <point x="657" y="-100" type="move" name="L"/>
    </contour>
  </outline>
</glyph>
<glyph name="LtnCapH" format="1">
  <advance width="1399"/>
  <unicode hex="0048"/>
  <outline>
    <contour>
      <point x="568" y="0" type="line"/>
      <point x="568" y="73" type="line"/>
      <point x="471" y="91"/>
      <point x="430" y="118"/>
      <point x="430" y="134" type="curve" smooth="yes"/>
      <point x="430" y="600" type="line"/>
      <point x="950" y="600" type="line"/>
      <point x="950" y="134" type="line" smooth="yes"/>
      <point x="950" y="116"/>
      <point x="903" y="91"/>
      <point x="813" y="73" type="curve"/>
      <point x="813" y="0" type="line"/>
      <point x="1338" y="0" type="line"/>
      <point x="1338" y="73" type="line"/>
      <point x="1242" y="91"/>
      <point x="1200" y="118"/>
      <point x="1200" y="134" type="curve" smooth="yes"/>
      <point x="1200" y="1125" type="line" smooth="yes"/>
      <point x="1200" y="1144"/>
      <point x="1248" y="1168"/>
      <point x="1338" y="1187" type="curve"/>
      <point x="1338" y="1260" type="line"/>
      <point x="813" y="1260" type="line"/>
      <point x="813" y="1187" type="line"/>
      <point x="909" y="1168"/>
      <point x="950" y="1141"/>
      <point x="950" y="1125" type="curve" smooth="yes"/>
      <point x="950" y="720" type="line"/>
      <point x="430" y="720" type="line"/>
      <point x="430" y="1125" type="line" smooth="yes"/>
      <point x="430" y="1144"/>
      <point x="478" y="1168"/>
      <point x="568" y="1187" type="curve"/>
      <point x="568" y="1260" type="line"/>
      <point x="43" y="1260" type="line"/>
      <point x="43" y="1187" type="line"/>
      <point x="139" y="1168"/>
      <point x="180" y="1141"/>
      <point x="180" y="1125" type="curve" smooth="yes"/>
      <point x="180" y="134" type="line" smooth="yes"/>
      <point x="180" y="116"/>
      <point x="133" y="91"/>
      <point x="43" y="73" type="curve"/>
      <point x="43" y="0" type="line"/>
    </contour>
    <contour>
      <point x="276" y="0" type="move" name="H"/>
    </contour>
    <contour>
      <point x="690" y="1370" type="move" name="U"/>
    </contour>
    <contour>
      <point x="690" y="-100" type="move" name="L"/>
    </contour>
  </outline>
</glyph>
<glyph name="LtnCapI" format="1">
  <advance width="670"/>
  <unicode hex="0049"/>
  <outline>
    <contour>
      <point x="588" y="0" type="line"/>
      <point x="588" y="73" type="line"/>
      <point x="492" y="91"/>
      <point x="450" y="118"/>
      <point x="450" y="134" type="curve" smooth="yes"/>
      <point x="450" y="1125" type="line" smooth="yes"/>
      <point x="450" y="1144"/>
      <point x="498" y="1168"/>
      <point x="588" y="1187" type="curve"/>
      <point x="588" y="1260" type="line"/>
      <point x="63" y="1260" type="line"/>
      <point x="63" y="1187" type="line"/>
      <point x="159" y="1168"/>
      <point x="200" y="1141"/>
      <point x="200" y="1125" type="curve" smooth="yes"/>
      <point x="200" y="134" type="line" smooth="yes"/>
      <point x="200" y="116"/>
      <point x="153" y="91"/>
      <point x="63" y="73" type="curve"/>
      <point x="63" y="0" type="line"/>
    </contour>
    <contour>
      <point x="325" y="0" type="move" name="H"/>
    </contour>
    <contour>
      <point x="325" y="1370" type="move" name="U"/>
    </contour>
    <contour>
      <point x="325" y="-100" type="move" name="L"/>
    </contour>
    <contour>
      <point x="383" y="0" type="move" name="O"/>
    </contour>
  </outline>
</glyph>
<glyph name="LtnCapJ" format="1">
  <advance width="685"/>
  <unicode hex="004A"/>
  <outline>
    <contour>
      <point x="623" y="1187" type="curve"/>
      <point x="623" y="1260" type="line"/>
      <point x="48" y="1260" type="line"/>
      <point x="48" y="1187" type="line"/>
      <point x="208" y="1164"/>
      <point x="235" y="1141"/>
      <point x="235" y="1125" type="curve" smooth="yes"/>
      <point x="235" y="111" type="line" smooth="yes"/>
      <point x="235" y="-203"/>
      <point x="162" y="-250"/>
      <point x="92" y="-250" type="curve" smooth="yes"/>
      <point x="41" y="-250"/>
      <point x="-23" y="-227"/>
      <point x="-97" y="-163" type="curve"/>
      <point x="-134" y="-177"/>
      <point x="-265" y="-293"/>
      <point x="-265" y="-323" type="curve" smooth="yes"/>
      <point x="-265" y="-353"/>
      <point x="-144" y="-418"/>
      <point x="-25" y="-418" type="curve" smooth="yes"/>
      <point x="65" y="-418"/>
      <point x="178" y="-369"/>
      <point x="249" y="-311" type="curve"/>
      <point x="354" y="-226"/>
      <point x="485" y="-111"/>
      <point x="485" y="183" type="curve" smooth="yes"/>
      <point x="485" y="1125" type="line" smooth="yes"/>
      <point x="485" y="1144"/>
      <point x="533" y="1168"/>
    </contour>
    <contour>
      <point x="354" y="1370" type="move" name="U"/>
    </contour>
    <contour>
      <point x="354" y="-600" type="move" name="L"/>
    </contour>
  </outline>
</glyph>
<glyph name="LtnCapK" format="1">
  <advance width="1267"/>
  <unicode hex="004B"/>
  <outline>
    <contour>
      <point x="568" y="0" type="line"/>
      <point x="568" y="73" type="line"/>
      <point x="471" y="91"/>
      <point x="430" y="118"/>
      <point x="430" y="134" type="curve" smooth="yes"/>
      <point x="430" y="625" type="line"/>
      <point x="907" y="29" type="line" smooth="yes"/>
      <point x="934" y="-4"/>
      <point x="962" y="-14"/>
      <point x="1001" y="-14" type="curve" smooth="yes"/>
      <point x="1065" y="-14"/>
      <point x="1186" y="27"/>
      <point x="1264" y="52" type="curve"/>
      <point x="1257" y="125" type="line"/>
      <point x="1188" y="117"/>
      <point x="1141" y="118"/>
      <point x="1098" y="165" type="curve"/>
      <point x="616" y="676" type="line"/>
      <point x="1045" y="1125" type="line" smooth="yes"/>
      <point x="1087" y="1169"/>
      <point x="1114" y="1176"/>
      <point x="1200" y="1187" type="curve"/>
      <point x="1200" y="1260" type="line"/>
      <point x="750" y="1260" type="line"/>
      <point x="750" y="1187" type="line"/>
      <point x="855" y="1178"/>
      <point x="863" y="1170"/>
      <point x="802" y="1098" type="curve" smooth="yes"/>
      <point x="430" y="659" type="line"/>
      <point x="430" y="1125" type="line" smooth="yes"/>
      <point x="430" y="1144"/>
      <point x="478" y="1168"/>
      <point x="568" y="1187" type="curve"/>
      <point x="568" y="1260" type="line"/>
      <point x="43" y="1260" type="line"/>
      <point x="43" y="1187" type="line"/>
      <point x="139" y="1168"/>
      <point x="180" y="1141"/>
      <point x="180" y="1125" type="curve" smooth="yes"/>
      <point x="180" y="134" type="line" smooth="yes"/>
      <point x="180" y="116"/>
      <point x="133" y="91"/>
      <point x="43" y="73" type="curve"/>
      <point x="43" y="0" type="line"/>
    </contour>
    <contour>
      <point x="287" y="0" type="move" name="H"/>
    </contour>
    <contour>
      <point x="629" y="1370" type="move" name="U"/>
    </contour>
    <contour>
      <point x="653" y="-100" type="move" name="L"/>
    </contour>
  </outline>
</glyph>
<glyph name="LtnCapO" format="1">
  <advance width="1274"/>
  <unicode hex="004F"/>
  <outline>
    <contour>
      <point x="1198" y="647" type="curve"/>
      <point x="1198" y="973"/>
      <point x="1008" y="1290"/>
      <point x="656" y="1290" type="curve" smooth="yes"/>
      <point x="304" y="1290"/>
      <point x="55" y="975"/>
      <point x="55" y="612" type="curve" smooth="yes"/>
      <point x="55" y="276"/>
      <point x="261" y="-30"/>
      <point x="598" y="-30" type="curve" smooth="yes"/>
      <point x="923" y="-30"/>
      <point x="1198" y="285"/>
    </contour>
    <contour>
      <point x="946" y="629" type="curve"/>
      <point x="946" y="276"/>
      <point x="818" y="105"/>
      <point x="642" y="105" type="curve" smooth="yes"/>
      <point x="459" y="105"/>
      <point x="308" y="342"/>
      <point x="308" y="641" type="curve" smooth="yes"/>
      <point x="308" y="967"/>
      <point x="412" y="1160"/>
      <point x="604" y="1160" type="curve" smooth="yes"/>
      <point x="809" y="1160"/>
      <point x="946" y="905"/>
    </contour>
    <contour>
      <point x="606" y="0" type="move" name="H"/>
    </contour>
    <contour>
      <point x="1188" y="900" type="move" name="R"/>
    </contour>
    <contour>
      <point x="638" y="1370" type="move" name="U"/>
    </contour>
    <contour>
      <point x="638" y="-100" type="move" name="L"/>
    </contour>
    <contour>
      <point x="703" y="0" type="move" name="O"/>
    </contour>
  </outline>
</glyph>
<glyph name="LtnCapQ" format="1">
  <advance width="1274"/>
  <unicode hex="0051"/>
  <outline>
    <contour>
      <point x="1417" y="-125" type="curve"/>
      <point x="1368" y="-60" type="line"/>
      <point x="1289" y="-119"/>
      <point x="1261" y="-130"/>
      <point x="1228" y="-130" type="curve" smooth="yes"/>
      <point x="1109" y="-130"/>
      <point x="981" y="-28"/>
      <point x="832" y="26" type="curve"/>
      <point x="1045" y="133"/>
      <point x="1198" y="377"/>
      <point x="1198" y="647" type="curve" smooth="yes"/>
      <point x="1198" y="973"/>
      <point x="1008" y="1290"/>
      <point x="656" y="1290" type="curve" smooth="yes"/>
      <point x="304" y="1290"/>
      <point x="55" y="975"/>
      <point x="55" y="612" type="curve" smooth="yes"/>
      <point x="55" y="272"/>
      <point x="268" y="-30"/>
      <point x="598" y="-30" type="curve" smooth="yes"/>
      <point x="617" y="-30"/>
      <point x="637" y="-28"/>
      <point x="656" y="-26" type="curve"/>
      <point x="845" y="-123"/>
      <point x="1036" y="-328"/>
      <point x="1222" y="-328" type="curve" smooth="yes"/>
      <point x="1263" y="-328"/>
      <point x="1354" y="-241"/>
    </contour>
    <contour>
      <point x="946" y="629" type="curve" smooth="yes"/>
      <point x="946" y="276"/>
      <point x="818" y="105"/>
      <point x="642" y="105" type="curve" smooth="yes"/>
      <point x="459" y="105"/>
      <point x="308" y="342"/>
      <point x="308" y="641" type="curve" smooth="yes"/>
      <point x="308" y="967"/>
      <point x="412" y="1160"/>
      <point x="604" y="1160" type="curve" smooth="yes"/>
      <point x="809" y="1160"/>
      <point x="946" y="905"/>
    </contour>
    <contour>
      <point x="655" y="1370" type="move" name="U"/>
    </contour>
    <contour>
      <point x="655" y="-270" type="move" name="L"/>
    </contour>
  </outline>
</glyph>
<glyph name="LtnCapS" format="1">
  <advance width="1050"/>
  <unicode hex="0053"/>
  <outline>
    <contour>
      <point x="968" y="377" type="curve"/>
      <point x="968" y="772"/>
      <point x="332" y="770"/>
      <point x="332" y="1022" type="curve" smooth="yes"/>
      <point x="332" y="1098"/>
      <point x="387" y="1175"/>
      <point x="520" y="1175" type="curve" smooth="yes"/>
      <point x="596" y="1175"/>
      <point x="696" y="1136"/>
      <point x="754" y="1011" type="curve"/>
      <point x="820" y="1005" type="line"/>
      <point x="853" y="1034"/>
      <point x="925" y="1182"/>
      <point x="906" y="1198" type="curve"/>
      <point x="857" y="1251"/>
      <point x="715" y="1290"/>
      <point x="571" y="1290" type="curve" smooth="yes"/>
      <point x="248" y="1290"/>
      <point x="112" y="1085"/>
      <point x="112" y="960" type="curve" smooth="yes"/>
      <point x="112" y="573"/>
      <point x="743" y="634"/>
      <point x="743" y="309" type="curve" smooth="yes"/>
      <point x="743" y="182"/>
      <point x="631" y="113"/>
      <point x="511" y="113" type="curve" smooth="yes"/>
      <point x="375" y="113"/>
      <point x="256" y="222"/>
      <point x="195" y="379" type="curve"/>
      <point x="124" y="384" type="line"/>
      <point x="96" y="282"/>
      <point x="98" y="78"/>
      <point x="116" y="68" type="curve" smooth="yes"/>
      <point x="210" y="8"/>
      <point x="375" y="-30"/>
      <point x="470" y="-30" type="curve" smooth="yes"/>
      <point x="809" y="-30"/>
      <point x="968" y="199"/>
    </contour>
    <contour>
      <point x="512" y="0" type="move" name="H"/>
    </contour>
    <contour>
      <point x="535" y="1370" type="move" name="U"/>
    </contour>
    <contour>
      <point x="535" y="-100" type="move" name="L"/>
    </contour>
  </outline>
</glyph>
<glyph name="LtnCapT" format="1">
  <advance width="1188"/>
  <unicode hex="0054"/>
  <outline>
    <contour>
      <point x="863" y="0" type="line"/>
      <point x="863" y="73" type="line"/>
      <point x="740" y="98"/>
      <point x="706" y="128"/>
      <point x="706" y="145" type="curve" smooth="yes"/>
      <point x="706" y="1140" type="line"/>
      <point x="953" y="1140" type="line" smooth="yes"/>
      <point x="1010" y="1140"/>
      <point x="1012" y="1064"/>
      <point x="1038" y="940" type="curve"/>
      <point x="1113" y="940" type="line"/>
      <point x="1129" y="1024"/>
      <point x="1149" y="1160"/>
      <point x="1151" y="1228" type="curve"/>
      <point x="1113" y="1260" type="line"/>
      <point x="43" y="1260" type="line"/>
      <point x="29" y="1190"/>
      <point x="9" y="1036"/>
      <point x="3" y="958" type="curve"/>
      <point x="76" y="931" type="line"/>
      <point x="136" y="1087"/>
      <point x="161" y="1140"/>
      <point x="202" y="1140" type="curve" smooth="yes"/>
      <point x="456" y="1140" type="line"/>
      <point x="456" y="145" type="line" smooth="yes"/>
      <point x="456" y="126"/>
      <point x="423" y="98"/>
      <point x="300" y="73" type="curve"/>
      <point x="300" y="0" type="line"/>
    </contour>
    <contour>
      <point x="577" y="0" type="move" name="H"/>
    </contour>
    <contour>
      <point x="576" y="1370" type="move" name="U"/>
    </contour>
    <contour>
      <point x="576" y="-100" type="move" name="L"/>
    </contour>
  </outline>
</glyph>
<glyph name="LtnCapU" format="1">
  <advance width="1369"/>
  <unicode hex="0055"/>
  <outline>
    <contour>
      <point x="1313" y="1187" type="curve"/>
      <point x="1313" y="1260" type="line"/>
      <point x="863" y="1260" type="line"/>
      <point x="863" y="1187" type="line"/>
      <point x="959" y="1168"/>
      <point x="1000" y="1141"/>
      <point x="1000" y="1125" type="curve" smooth="yes"/>
      <point x="1000" y="498" type="line" smooth="yes"/>
      <point x="1000" y="300"/>
      <point x="933" y="115"/>
      <point x="743" y="115" type="curve" smooth="yes"/>
      <point x="515" y="115"/>
      <point x="430" y="253"/>
      <point x="430" y="509" type="curve" smooth="yes"/>
      <point x="430" y="1125" type="line" smooth="yes"/>
      <point x="430" y="1144"/>
      <point x="478" y="1168"/>
      <point x="568" y="1187" type="curve"/>
      <point x="568" y="1260" type="line"/>
      <point x="43" y="1260" type="line"/>
      <point x="43" y="1187" type="line"/>
      <point x="139" y="1168"/>
      <point x="180" y="1141"/>
      <point x="180" y="1125" type="curve" smooth="yes"/>
      <point x="180" y="444" type="line" smooth="yes"/>
      <point x="180" y="119"/>
      <point x="406" y="-30"/>
      <point x="681" y="-30" type="curve" smooth="yes"/>
      <point x="969" y="-30"/>
      <point x="1175" y="174"/>
      <point x="1175" y="524" type="curve" smooth="yes"/>
      <point x="1175" y="1125" type="line" smooth="yes"/>
      <point x="1175" y="1144"/>
      <point x="1223" y="1168"/>
    </contour>
    <contour>
      <point x="692" y="0" type="move" name="H"/>
    </contour>
    <contour>
      <point x="1360" y="900" type="move" name="R"/>
    </contour>
    <contour>
      <point x="692" y="1370" type="move" name="U"/>
    </contour>
    <contour>
      <point x="692" y="-100" type="move" name="L"/>
    </contour>
    <contour>
      <point x="778" y="0" type="move" name="O"/>
    </contour>
  </outline>
</glyph>
<glyph name="LtnCapW" format="1">
  <advance width="1741"/>
  <unicode hex="0057"/>
  <outline>
    <contour>
      <point x="1732" y="1187" type="curve"/>
      <point x="1732" y="1260" type="line"/>
      <point x="1286" y="1260" type="line"/>
      <point x="1286" y="1187" type="line"/>
      <point x="1376" y="1172"/>
      <point x="1446" y="1156"/>
      <point x="1440" y="1125" type="curve"/>
      <point x="1279" y="385" type="line"/>
      <point x="944" y="1260" type="line"/>
      <point x="844" y="1260" type="line"/>
      <point x="552" y="385" type="line"/>
      <point x="381" y="1117" type="line" smooth="yes"/>
      <point x="375" y="1146"/>
      <point x="379" y="1174"/>
      <point x="509" y="1187" type="curve"/>
      <point x="509" y="1260" type="line"/>
      <point x="20" y="1260" type="line"/>
      <point x="20" y="1187" type="line"/>
      <point x="115" y="1170"/>
      <point x="151" y="1150"/>
      <point x="158" y="1117" type="curve" smooth="yes"/>
      <point x="418" y="-30" type="line"/>
      <point x="472" y="-18"/>
      <point x="558" y="2"/>
      <point x="577" y="59" type="curve" smooth="yes"/>
      <point x="864" y="877" type="line"/>
      <point x="1205" y="-30" type="line"/>
      <point x="1246" y="-21"/>
      <point x="1339" y="2"/>
      <point x="1351" y="59" type="curve" smooth="yes"/>
      <point x="1580" y="1125" type="line" smooth="yes"/>
      <point x="1584" y="1146"/>
      <point x="1614" y="1163"/>
    </contour>
    <contour>
      <point x="876" y="1370" type="move" name="U"/>
    </contour>
    <contour>
      <point x="876" y="-100" type="move" name="L"/>
    </contour>
  </outline>
</glyph>
<glyph name="LtnCapX" format="1">
  <advance width="1290"/>
  <unicode hex="0058"/>
  <outline>
    <contour>
      <point x="1267" y="0" type="line"/>
      <point x="1267" y="73" type="line"/>
      <point x="1189" y="83"/>
      <point x="1155" y="100"/>
      <point x="1116" y="157" type="curve" smooth="yes"/>
      <point x="761" y="675" type="line"/>
      <point x="1035" y="1103" type="line" smooth="yes"/>
      <point x="1070" y="1159"/>
      <point x="1121" y="1176"/>
      <point x="1218" y="1187" type="curve"/>
      <point x="1218" y="1260" type="line"/>
      <point x="765" y="1260" type="line"/>
      <point x="765" y="1187" type="line"/>
      <point x="884" y="1178"/>
      <point x="903" y="1164"/>
      <point x="866" y="1103" type="curve"/>
      <point x="675" y="800" type="line"/>
      <point x="468" y="1103" type="line" smooth="yes"/>
      <point x="428" y="1161"/>
      <point x="462" y="1176"/>
      <point x="575" y="1187" type="curve"/>
      <point x="575" y="1260" type="line"/>
      <point x="34" y="1260" type="line"/>
      <point x="34" y="1187" type="line"/>
      <point x="122" y="1174"/>
      <point x="149" y="1162"/>
      <point x="190" y="1103" type="curve" smooth="yes"/>
      <point x="515" y="628" type="line"/>
      <point x="206" y="157" type="line"/>
      <point x="170" y="104"/>
      <point x="110" y="79"/>
      <point x="24" y="73" type="curve"/>
      <point x="24" y="0" type="line"/>
      <point x="474" y="0" type="line"/>
      <point x="474" y="73" type="line"/>
      <point x="351" y="81"/>
      <point x="336" y="99"/>
      <point x="375" y="157" type="curve" smooth="yes"/>
      <point x="602" y="500" type="line"/>
      <point x="838" y="157" type="line" smooth="yes"/>
      <point x="875" y="104"/>
      <point x="850" y="85"/>
      <point x="733" y="73" type="curve"/>
      <point x="733" y="0" type="line"/>
    </contour>
    <contour>
      <point x="645" y="1370" type="move" name="U"/>
    </contour>
    <contour>
      <point x="645" y="-100" type="move" name="L"/>
    </contour>
  </outline>
</glyph>
<glyph name="LtnCapY" format="1">
  <advance width="1255"/>
  <unicode hex="0059"/>
  <outline>
    <contour>
      <point x="910" y="0" type="line"/>
      <point x="910" y="73" type="line"/>
      <point x="785" y="98"/>
      <point x="752" y="128"/>
      <point x="752" y="145" type="curve" smooth="yes"/>
      <point x="752" y="523" type="line"/>
      <point x="1073" y="1121" type="line" smooth="yes"/>
      <point x="1092" y="1155"/>
      <point x="1130" y="1170"/>
      <point x="1221" y="1187" type="curve"/>
      <point x="1221" y="1260" type="line"/>
      <point x="803" y="1260" type="line"/>
      <point x="803" y="1187" type="line"/>
      <point x="906" y="1174"/>
      <point x="934" y="1156"/>
      <point x="914" y="1121" type="curve"/>
      <point x="680" y="679" type="line"/>
      <point x="587" y="871"/>
      <point x="463" y="1092"/>
      <point x="365" y="1224" type="curve"/>
      <point x="342" y="1253"/>
      <point x="301" y="1270"/>
      <point x="264" y="1270" type="curve" smooth="yes"/>
      <point x="209" y="1270"/>
      <point x="78" y="1253"/>
      <point x="0" y="1242" type="curve"/>
      <point x="4" y="1169" type="line"/>
      <point x="115" y="1169"/>
      <point x="137" y="1151"/>
      <point x="161" y="1121" type="curve"/>
      <point x="254" y="996"/>
      <point x="405" y="743"/>
      <point x="502" y="529" type="curve"/>
      <point x="502" y="145" type="line" smooth="yes"/>
      <point x="502" y="126"/>
      <point x="466" y="98"/>
      <point x="345" y="73" type="curve"/>
      <point x="345" y="0" type="line"/>
    </contour>
    <contour>
      <point x="627" y="1370" type="move" name="U"/>
    </contour>
    <contour>
      <point x="627" y="-100" type="move" name="L"/>
    </contour>
  </outline>
</glyph>
<glyph name="LftSqrBrac" format="1">
  <advance width="691"/>
  <unicode hex="005B"/>
  <outline>
    <contour>
      <point x="666" y="-227" type="curve"/>
      <point x="623" y="-190" type="line"/>
      <point x="355" y="-190" type="line"/>
      <point x="355" y="1455" type="line"/>
      <point x="629" y="1455" type="line"/>
      <point x="637" y="1471"/>
      <point x="658" y="1534"/>
      <point x="664" y="1567" type="curve"/>
      <point x="623" y="1600" type="line"/>
      <point x="125" y="1600" type="line"/>
      <point x="125" y="-335" type="line"/>
      <point x="629" y="-335" type="line"/>
      <point x="639" y="-312"/>
      <point x="660" y="-253"/>
    </contour>
  </outline>
</glyph>
<glyph name="ReverseSolidus" format="1">
  <advance width="960"/>
  <unicode hex="005C"/>
  <outline>
    <contour>
      <point x="920" y="-303" type="line"/>
      <point x="235" y="1544" type="line"/>
      <point x="198" y="1567"/>
      <point x="124" y="1590"/>
      <point x="85" y="1600" type="curve"/>
      <point x="40" y="1571" type="line"/>
      <point x="726" y="-277" type="line"/>
      <point x="750" y="-295"/>
      <point x="846" y="-325"/>
      <point x="878" y="-335" type="curve"/>
    </contour>
  </outline>
</glyph>
<glyph name="LtnSmA" format="1">
  <advance width="1023"/>
  <unicode hex="0061"/>
  <outline>
    <contour>
      <point x="1016" y="112" type="curve"/>
      <point x="994" y="187" type="line"/>
      <point x="941" y="165"/>
      <point x="922" y="160"/>
      <point x="903" y="160" type="curve" smooth="yes"/>
      <point x="879" y="160"/>
      <point x="863" y="182"/>
      <point x="863" y="238" type="curve" smooth="yes"/>
      <point x="863" y="720" type="line" smooth="yes"/>
      <point x="863" y="857"/>
      <point x="780" y="960"/>
      <point x="597" y="960" type="curve" smooth="yes"/>
      <point x="375" y="960"/>
      <point x="150" y="835"/>
      <point x="86" y="676" type="curve"/>
      <point x="107" y="622" type="line"/>
      <point x="140" y="614"/>
      <point x="370" y="677"/>
      <point x="367" y="702" type="curve" smooth="yes"/>
      <point x="359" y="782"/>
      <point x="429" y="830"/>
      <point x="493" y="830" type="curve" smooth="yes"/>
      <point x="594" y="831"/>
      <point x="623" y="770"/>
      <point x="623" y="687" type="curve" smooth="yes"/>
      <point x="623" y="569" type="line"/>
      <point x="301" y="520"/>
      <point x="215" y="465"/>
      <point x="151" y="401" type="curve" smooth="yes"/>
      <point x="102" y="352"/>
      <point x="65" y="291"/>
      <point x="65" y="201" type="curve" smooth="yes"/>
      <point x="65" y="46"/>
      <point x="182" y="-30"/>
      <point x="293" y="-30" type="curve" smooth="yes"/>
      <point x="379" y="-30"/>
      <point x="504" y="8"/>
      <point x="624" y="129" type="curve"/>
      <point x="631" y="30"/>
      <point x="668" y="-30"/>
      <point x="717" y="-30" type="curve" smooth="yes"/>
      <point x="766" y="-30"/>
      <point x="903" y="34"/>
    </contour>
    <contour>
      <point x="412" y="145" type="curve" smooth="yes"/>
      <point x="377" y="145"/>
      <point x="319" y="168"/>
      <point x="319" y="259" type="curve" smooth="yes"/>
      <point x="319" y="315"/>
      <point x="342" y="352"/>
      <point x="377" y="387" type="curve" smooth="yes"/>
      <point x="412" y="422"/>
      <point x="463" y="445"/>
      <point x="623" y="471" type="curve"/>
      <point x="623" y="250" type="line"/>
      <point x="523" y="164"/>
      <point x="462" y="145"/>
    </contour>
    <contour>
      <point x="762" y="0" type="move" name="H"/>
    </contour>
    <contour>
      <point x="1023" y="900" type="move" name="R"/>
    </contour>
    <contour>
      <point x="515" y="1050" type="move" name="U"/>
    </contour>
    <contour>
      <point x="492" y="-100" type="move" name="L"/>
    </contour>
    <contour>
      <point x="779" y="0" type="move" name="O"/>
    </contour>
  </outline>
</glyph>
<glyph name="LtnSmB" format="1">
  <advance width="1100"/>
  <unicode hex="0062"/>
  <outline>
    <contour>
      <point x="1025" y="507" type="curve"/>
      <point x="1025" y="784"/>
      <point x="902" y="960"/>
      <point x="705" y="960" type="curve" smooth="yes"/>
      <point x="629" y="960"/>
      <point x="498" y="917"/>
      <point x="365" y="802" type="curve"/>
      <point x="365" y="1509" type="line"/>
      <point x="365" y="1509"/>
      <point x="331" y="1540"/>
      <point x="321" y="1550" type="curve"/>
      <point x="222" y="1509"/>
      <point x="128" y="1491"/>
      <point x="3" y="1470" type="curve"/>
      <point x="3" y="1400" type="line"/>
      <point x="112" y="1387"/>
      <point x="125" y="1389"/>
      <point x="125" y="1266" type="curve" smooth="yes"/>
      <point x="125" y="96" type="line"/>
      <point x="269" y="24"/>
      <point x="426" y="-30"/>
      <point x="499" y="-30" type="curve" smooth="yes"/>
      <point x="757" y="-30"/>
      <point x="1025" y="275"/>
    </contour>
    <contour>
      <point x="804" y="416" type="curve"/>
      <point x="804" y="262"/>
      <point x="737" y="138"/>
      <point x="597" y="138" type="curve" smooth="yes"/>
      <point x="558" y="138"/>
      <point x="471" y="161"/>
      <point x="365" y="218" type="curve"/>
      <point x="365" y="678" type="line"/>
      <point x="462" y="761"/>
      <point x="535" y="788"/>
      <point x="582" y="788" type="curve" smooth="yes"/>
      <point x="704" y="788"/>
      <point x="804" y="682"/>
    </contour>
    <contour>
      <point x="513" y="0" type="move" name="H"/>
    </contour>
    <contour>
      <point x="1100" y="900" type="move" name="R"/>
    </contour>
    <contour>
      <point x="568" y="1620" type="move" name="U"/>
    </contour>
    <contour>
      <point x="513" y="-100" type="move" name="L"/>
    </contour>
  </outline>
</glyph>
<glyph name="LtnSmE" format="1">
  <advance width="991"/>
  <unicode hex="0065"/>
  <outline>
    <contour>
      <point x="926" y="550" type="curve"/>
      <point x="926" y="765"/>
      <point x="809" y="960"/>
      <point x="547" y="960" type="curve" smooth="yes"/>
      <point x="446" y="960"/>
      <point x="341" y="918"/>
      <point x="271" y="866" type="curve" smooth="yes"/>
      <point x="135" y="767"/>
      <point x="65" y="622"/>
      <point x="65" y="442" type="curve" smooth="yes"/>
      <point x="65" y="160"/>
      <point x="253" y="-30"/>
      <point x="480" y="-30" type="curve" smooth="yes"/>
      <point x="640" y="-30"/>
      <point x="735" y="8"/>
      <point x="920" y="195" type="curve"/>
      <point x="914" y="205"/>
      <point x="885" y="250"/>
      <point x="868" y="259" type="curve"/>
      <point x="712" y="151"/>
      <point x="648" y="138"/>
      <point x="564" y="138" type="curve" smooth="yes"/>
      <point x="408" y="138"/>
      <point x="319" y="276"/>
      <point x="313" y="468" type="curve"/>
      <point x="786" y="468" type="line"/>
      <point x="829" y="485"/>
      <point x="902" y="523"/>
    </contour>
    <contour>
      <point x="511" y="840" type="curve" smooth="yes"/>
      <point x="648" y="840"/>
      <point x="687" y="696"/>
      <point x="687" y="616" type="curve" smooth="yes"/>
      <point x="687" y="588"/>
      <point x="679" y="580"/>
      <point x="649" y="580" type="curve" smooth="yes"/>
      <point x="316" y="580" type="line"/>
      <point x="331" y="740"/>
      <point x="387" y="840"/>
    </contour>
    <contour>
      <point x="525" y="0" type="move" name="H"/>
    </contour>
    <contour>
      <point x="991" y="900" type="move" name="R"/>
    </contour>
    <contour>
      <point x="536" y="1050" type="move" name="U"/>
    </contour>
    <contour>
      <point x="525" y="-100" type="move" name="L"/>
    </contour>
    <contour>
      <point x="744" y="0" type="move" name="O"/>
    </contour>
  </outline>
</glyph>
<glyph name="LtnSmI" format="1">
  <advance width="615"/>
  <unicode hex="0069"/>
  <outline>
    <contour>
      <point x="473" y="1261" type="curve"/>
      <point x="473" y="1338"/>
      <point x="407" y="1371"/>
      <point x="335" y="1371" type="curve" smooth="yes"/>
      <point x="242" y="1371"/>
      <point x="168" y="1311"/>
      <point x="168" y="1220" type="curve" smooth="yes"/>
      <point x="168" y="1144"/>
      <point x="231" y="1109"/>
      <point x="305" y="1109" type="curve" smooth="yes"/>
      <point x="401" y="1109"/>
      <point x="473" y="1171"/>
    </contour>
    <contour>
      <point x="568" y="0" type="line"/>
      <point x="568" y="73" type="line"/>
      <point x="471" y="91"/>
      <point x="435" y="118"/>
      <point x="435" y="134" type="curve" smooth="yes"/>
      <point x="435" y="960" type="line"/>
      <point x="371" y="960" type="line"/>
      <point x="281" y="927"/>
      <point x="177" y="904"/>
      <point x="63" y="888" type="curve"/>
      <point x="63" y="818" type="line"/>
      <point x="204" y="805"/>
      <point x="195" y="785"/>
      <point x="195" y="648" type="curve" smooth="yes"/>
      <point x="195" y="134" type="line" smooth="yes"/>
      <point x="195" y="116"/>
      <point x="153" y="91"/>
      <point x="63" y="73" type="curve"/>
      <point x="63" y="0" type="line"/>
    </contour>
    <contour>
      <point x="315" y="0" type="move" name="H"/>
    </contour>
    <contour>
      <point x="615" y="900" type="move" name="R"/>
    </contour>
    <contour>
      <point x="315" y="1050" type="move" name="U"/>
    </contour>
    <contour>
      <point x="315" y="-100" type="move" name="L"/>
    </contour>
    <contour>
      <point x="373" y="0" type="move" name="O"/>
    </contour>
  </outline>
</glyph>
<glyph name="LtnSmM" format="1">
  <advance width="1728"/>
  <unicode hex="006D"/>
  <outline>
    <contour>
      <point x="1706" y="0" type="line"/>
      <point x="1706" y="73" type="line"/>
      <point x="1601" y="100"/>
      <point x="1565" y="116"/>
      <point x="1565" y="134" type="curve" smooth="yes"/>
      <point x="1565" y="704" type="line" smooth="yes"/>
      <point x="1565" y="891"/>
      <point x="1455" y="960"/>
      <point x="1328" y="960" type="curve" smooth="yes"/>
      <point x="1230" y="960"/>
      <point x="1127" y="924"/>
      <point x="978" y="794" type="curve"/>
      <point x="975" y="808" type="line" smooth="yes"/>
      <point x="960" y="893"/>
      <point x="890" y="960"/>
      <point x="763" y="960" type="curve" smooth="yes"/>
      <point x="667" y="960"/>
      <point x="565" y="926"/>
      <point x="416" y="794" type="curve"/>
      <point x="405" y="918" type="line"/>
      <point x="363" y="960" type="line"/>
      <point x="268" y="925"/>
      <point x="186" y="904"/>
      <point x="48" y="888" type="curve"/>
      <point x="48" y="818" type="line"/>
      <point x="177" y="803"/>
      <point x="180" y="795"/>
      <point x="180" y="689" type="curve" smooth="yes"/>
      <point x="180" y="134" type="line" smooth="yes"/>
      <point x="180" y="112"/>
      <point x="136" y="96"/>
      <point x="48" y="73" type="curve"/>
      <point x="48" y="0" type="line"/>
      <point x="545" y="0" type="line"/>
      <point x="545" y="73" type="line"/>
      <point x="459" y="91"/>
      <point x="420" y="114"/>
      <point x="420" y="134" type="curve" smooth="yes"/>
      <point x="420" y="663" type="line"/>
      <point x="518" y="749"/>
      <point x="595" y="788"/>
      <point x="655" y="788" type="curve" smooth="yes"/>
      <point x="729" y="788"/>
      <point x="753" y="767"/>
      <point x="753" y="603" type="curve" smooth="yes"/>
      <point x="753" y="134" type="line" smooth="yes"/>
      <point x="753" y="116"/>
      <point x="732" y="98"/>
      <point x="636" y="73" type="curve"/>
      <point x="636" y="0" type="line"/>
      <point x="1119" y="0" type="line"/>
      <point x="1119" y="73" type="line"/>
      <point x="1014" y="100"/>
      <point x="993" y="116"/>
      <point x="993" y="134" type="curve" smooth="yes"/>
      <point x="993" y="663" type="line"/>
      <point x="1079" y="747"/>
      <point x="1162" y="788"/>
      <point x="1220" y="788" type="curve" smooth="yes"/>
      <point x="1292" y="788"/>
      <point x="1325" y="767"/>
      <point x="1325" y="603" type="curve" smooth="yes"/>
      <point x="1325" y="134" type="line" smooth="yes"/>
      <point x="1325" y="116"/>
      <point x="1305" y="98"/>
      <point x="1209" y="73" type="curve"/>
      <point x="1209" y="0" type="line"/>
    </contour>
    <contour>
      <point x="1477" y="0" type="move" name="H"/>
    </contour>
    <contour>
      <point x="876" y="1050" type="move" name="U"/>
    </contour>
    <contour>
      <point x="876" y="-100" type="move" name="L"/>
    </contour>
  </outline>
</glyph>
<glyph name="LtnSmN" format="1">
  <advance width="1190"/>
  <unicode hex="006E"/>
  <outline>
    <contour>
      <point x="1168" y="0" type="line"/>
      <point x="1168" y="73" type="line"/>
      <point x="1063" y="100"/>
      <point x="1035" y="116"/>
      <point x="1035" y="134" type="curve" smooth="yes"/>
      <point x="1035" y="704" type="line" smooth="yes"/>
      <point x="1035" y="891"/>
      <point x="929" y="960"/>
      <point x="814" y="960" type="curve" smooth="yes"/>
      <point x="710" y="960"/>
      <point x="571" y="907"/>
      <point x="416" y="774" type="curve"/>
      <point x="405" y="918" type="line"/>
      <point x="363" y="960" type="line"/>
      <point x="266" y="923"/>
      <point x="175" y="902"/>
      <point x="48" y="888" type="curve"/>
      <point x="48" y="818" type="line"/>
      <point x="183" y="803"/>
      <point x="180" y="793"/>
      <point x="180" y="689" type="curve" smooth="yes"/>
      <point x="180" y="134" type="line" smooth="yes"/>
      <point x="180" y="112"/>
      <point x="136" y="96"/>
      <point x="48" y="73" type="curve"/>
      <point x="48" y="0" type="line"/>
      <point x="553" y="0" type="line"/>
      <point x="553" y="73" type="line"/>
      <point x="467" y="91"/>
      <point x="420" y="114"/>
      <point x="420" y="134" type="curve" smooth="yes"/>
      <point x="420" y="639" type="line"/>
      <point x="549" y="749"/>
      <point x="626" y="778"/>
      <point x="690" y="778" type="curve" smooth="yes"/>
      <point x="769" y="778"/>
      <point x="795" y="735"/>
      <point x="795" y="588" type="curve" smooth="yes"/>
      <point x="795" y="134" type="line" smooth="yes"/>
      <point x="795" y="116"/>
      <point x="759" y="98"/>
      <point x="663" y="73" type="curve"/>
      <point x="663" y="0" type="line"/>
    </contour>
    <contour>
      <point x="937" y="0" type="move" name="H"/>
    </contour>
    <contour>
      <point x="607" y="1050" type="move" name="U"/>
    </contour>
    <contour>
      <point x="607" y="-100" type="move" name="L"/>
    </contour>
  </outline>
</glyph>
<glyph name="LtnSmR" format="1">
  <advance width="909"/>
  <unicode hex="0072"/>
  <outline>
    <contour>
      <point x="875" y="916" type="curve"/>
      <point x="826" y="944"/>
      <point x="768" y="960"/>
      <point x="717" y="960" type="curve" smooth="yes"/>
      <point x="602" y="960"/>
      <point x="490" y="876"/>
      <point x="418" y="773" type="curve"/>
      <point x="405" y="918" type="line"/>
      <point x="363" y="960" type="line"/>
      <point x="252" y="923"/>
      <point x="194" y="910"/>
      <point x="48" y="888" type="curve"/>
      <point x="48" y="818" type="line"/>
      <point x="122" y="814"/>
      <point x="139" y="809"/>
      <point x="157" y="791" type="curve" smooth="yes"/>
      <point x="169" y="779"/>
      <point x="180" y="752"/>
      <point x="180" y="664" type="curve" smooth="yes"/>
      <point x="180" y="134" type="line" smooth="yes"/>
      <point x="180" y="112"/>
      <point x="136" y="93"/>
      <point x="48" y="73" type="curve"/>
      <point x="48" y="0" type="line"/>
      <point x="597" y="0" type="line"/>
      <point x="597" y="73" type="line"/>
      <point x="472" y="91"/>
      <point x="420" y="114"/>
      <point x="420" y="134" type="curve" smooth="yes"/>
      <point x="420" y="571" type="line"/>
      <point x="499" y="746"/>
      <point x="574" y="775"/>
      <point x="626" y="775" type="curve" smooth="yes"/>
      <point x="691" y="775"/>
      <point x="728" y="687"/>
      <point x="737" y="579" type="curve"/>
      <point x="810" y="579" type="line"/>
      <point x="843" y="651"/>
      <point x="900" y="901"/>
    </contour>
    <contour>
      <point x="295" y="0" type="move" name="H"/>
    </contour>
    <contour>
      <point x="503" y="1050" type="move" name="U"/>
    </contour>
    <contour>
      <point x="295" y="-100" type="move" name="L"/>
    </contour>
  </outline>
</glyph>
<glyph name="LtnSmT" format="1">
  <advance width="758"/>
  <unicode hex="0074"/>
  <outline>
    <contour>
      <point x="736" y="155" type="curve"/>
      <point x="692" y="228" type="line"/>
      <point x="581" y="168"/>
      <point x="527" y="153"/>
      <point x="480" y="153" type="curve" smooth="yes"/>
      <point x="430" y="153"/>
      <point x="395" y="200"/>
      <point x="395" y="337" type="curve" smooth="yes"/>
      <point x="395" y="805" type="line"/>
      <point x="462" y="805" type="line" smooth="yes"/>
      <point x="533" y="805"/>
      <point x="603" y="786"/>
      <point x="635" y="770" type="curve"/>
      <point x="662" y="790"/>
      <point x="711" y="849"/>
      <point x="736" y="894" type="curve"/>
      <point x="700" y="930" type="line"/>
      <point x="395" y="930" type="line"/>
      <point x="395" y="1255" type="line"/>
      <point x="357" y="1288" type="line"/>
      <point x="155" y="1139" type="line"/>
      <point x="155" y="930" type="line"/>
      <point x="83" y="930" type="line"/>
      <point x="5" y="841" type="line"/>
      <point x="34" y="805" type="line"/>
      <point x="155" y="805" type="line"/>
      <point x="155" y="244" type="line" smooth="yes"/>
      <point x="155" y="58"/>
      <point x="251" y="-30"/>
      <point x="366" y="-30" type="curve" smooth="yes"/>
      <point x="436" y="-30"/>
      <point x="560" y="28"/>
    </contour>
    <contour>
      <point x="371" y="0" type="move" name="H"/>
    </contour>
    <contour>
      <point x="553" y="900" type="move" name="R"/>
    </contour>
    <contour>
      <point x="371" y="1320" type="move" name="U"/>
    </contour>
    <contour>
      <point x="371" y="-100" type="move" name="L"/>
    </contour>
  </outline>
</glyph>
<glyph name="LtnSmU" format="1">
  <advance width="1153"/>
  <unicode hex="0075"/>
  <outline>
    <contour>
      <point x="1144" y="112" type="curve"/>
      <point x="1119" y="187" type="line"/>
      <point x="1051" y="158"/>
      <point x="1029" y="154"/>
      <point x="1013" y="164" type="curve" smooth="yes"/>
      <point x="995" y="177"/>
      <point x="990" y="202"/>
      <point x="990" y="284" type="curve" smooth="yes"/>
      <point x="990" y="914" type="line"/>
      <point x="953" y="960" type="line"/>
      <point x="857" y="936"/>
      <point x="751" y="914"/>
      <point x="618" y="902" type="curve"/>
      <point x="618" y="832" type="line"/>
      <point x="741" y="826"/>
      <point x="750" y="809"/>
      <point x="750" y="689" type="curve" smooth="yes"/>
      <point x="750" y="262" type="line"/>
      <point x="641" y="167"/>
      <point x="567" y="143"/>
      <point x="511" y="143" type="curve" smooth="yes"/>
      <point x="437" y="143"/>
      <point x="395" y="177"/>
      <point x="395" y="342" type="curve" smooth="yes"/>
      <point x="395" y="914" type="line"/>
      <point x="360" y="960" type="line"/>
      <point x="249" y="925"/>
      <point x="167" y="914"/>
      <point x="34" y="902" type="curve"/>
      <point x="34" y="832" type="line"/>
      <point x="157" y="820"/>
      <point x="155" y="816"/>
      <point x="155" y="689" type="curve" smooth="yes"/>
      <point x="155" y="279" type="line" smooth="yes"/>
      <point x="155" y="29"/>
      <point x="284" y="-30"/>
      <point x="408" y="-30" type="curve" smooth="yes"/>
      <point x="493" y="-30"/>
      <point x="584" y="-8"/>
      <point x="750" y="136" type="curve"/>
      <point x="766" y="-1"/>
      <point x="811" y="-30"/>
      <point x="858" y="-30" type="curve" smooth="yes"/>
      <point x="891" y="-30"/>
      <point x="1046" y="48"/>
    </contour>
    <contour>
      <point x="896" y="0" type="move" name="H"/>
    </contour>
    <contour>
      <point x="1253" y="900" type="move" name="R"/>
    </contour>
    <contour>
      <point x="577" y="1050" type="move" name="U"/>
    </contour>
    <contour>
      <point x="577" y="-100" type="move" name="L"/>
    </contour>
    <contour>
      <point x="918" y="0" type="move" name="O"/>
    </contour>
  </outline>
</glyph>
<glyph name="LtnSmW" format="1">
  <advance width="1469"/>
  <unicode hex="0077"/>
  <outline>
    <contour>
      <point x="1455" y="857" type="curve"/>
      <point x="1455" y="930" type="line"/>
      <point x="1130" y="930" type="line"/>
      <point x="1130" y="857" type="line"/>
      <point x="1222" y="842"/>
      <point x="1227" y="825"/>
      <point x="1217" y="795" type="curve"/>
      <point x="1073" y="323" type="line"/>
      <point x="822" y="930" type="line"/>
      <point x="745" y="930" type="line"/>
      <point x="506" y="323" type="line"/>
      <point x="356" y="795" type="line"/>
      <point x="347" y="820"/>
      <point x="351" y="844"/>
      <point x="466" y="857" type="curve"/>
      <point x="466" y="930" type="line"/>
      <point x="13" y="930" type="line"/>
      <point x="13" y="857" type="line"/>
      <point x="79" y="842"/>
      <point x="114" y="819"/>
      <point x="122" y="795" type="curve" smooth="yes"/>
      <point x="391" y="-30" type="line"/>
      <point x="426" y="-22"/>
      <point x="512" y="-2"/>
      <point x="532" y="59" type="curve"/>
      <point x="735" y="554" type="line"/>
      <point x="990" y="-30" type="line"/>
      <point x="1024" y="-22"/>
      <point x="1117" y="0"/>
      <point x="1134" y="59" type="curve"/>
      <point x="1355" y="795" type="line"/>
      <point x="1365" y="826"/>
      <point x="1381" y="838"/>
    </contour>
    <contour>
      <point x="761" y="1050" type="move" name="U"/>
    </contour>
    <contour>
      <point x="741" y="-100" type="move" name="L"/>
    </contour>
  </outline>
</glyph>
<glyph name="LtnSmX" format="1">
  <advance width="1068"/>
  <unicode hex="0078"/>
  <outline>
    <contour>
      <point x="1054" y="0" type="line"/>
      <point x="1054" y="73" type="line"/>
      <point x="966" y="85"/>
      <point x="931" y="124"/>
      <point x="901" y="163" type="curve"/>
      <point x="647" y="516" type="line"/>
      <point x="844" y="771" type="line" smooth="yes"/>
      <point x="881" y="819"/>
      <point x="917" y="849"/>
      <point x="1025" y="857" type="curve"/>
      <point x="1025" y="930" type="line"/>
      <point x="644" y="930" type="line"/>
      <point x="644" y="857" type="line"/>
      <point x="726" y="849"/>
      <point x="745" y="836"/>
      <point x="696" y="773" type="curve" smooth="yes"/>
      <point x="575" y="616" type="line"/>
      <point x="463" y="773" type="line" smooth="yes"/>
      <point x="417" y="837"/>
      <point x="437" y="849"/>
      <point x="519" y="857" type="curve"/>
      <point x="519" y="930" type="line"/>
      <point x="24" y="930" type="line"/>
      <point x="24" y="857" type="line"/>
      <point x="124" y="849"/>
      <point x="151" y="819"/>
      <point x="186" y="771" type="curve" smooth="yes"/>
      <point x="409" y="461" type="line"/>
      <point x="178" y="163" type="line" smooth="yes"/>
      <point x="147" y="123"/>
      <point x="112" y="89"/>
      <point x="13" y="73" type="curve"/>
      <point x="13" y="0" type="line"/>
      <point x="399" y="0" type="line"/>
      <point x="399" y="73" type="line"/>
      <point x="336" y="79"/>
      <point x="270" y="88"/>
      <point x="324" y="157" type="curve" smooth="yes"/>
      <point x="481" y="360" type="line"/>
      <point x="628" y="157" type="line" smooth="yes"/>
      <point x="680" y="85"/>
      <point x="628" y="79"/>
      <point x="562" y="73" type="curve"/>
      <point x="562" y="0" type="line"/>
    </contour>
    <contour>
      <point x="827" y="0" type="move" name="H"/>
    </contour>
    <contour>
      <point x="533" y="1050" type="move" name="U"/>
    </contour>
    <contour>
      <point x="533" y="-100" type="move" name="L"/>
    </contour>
  </outline>
</glyph>
<glyph name="LtnSmY" format="1">
  <advance width="1040"/>
  <unicode hex="0079"/>
  <outline>
    <contour>
      <point x="1027" y="857" type="curve"/>
      <point x="1027" y="930" type="line"/>
      <point x="700" y="930" type="line"/>
      <point x="700" y="857" type="line"/>
      <point x="792" y="842"/>
      <point x="793" y="829"/>
      <point x="778" y="789" type="curve"/>
      <point x="582" y="287" type="line"/>
      <point x="376" y="789" type="line"/>
      <point x="358" y="831"/>
      <point x="363" y="844"/>
      <point x="466" y="857" type="curve"/>
      <point x="466" y="930" type="line"/>
      <point x="13" y="930" type="line"/>
      <point x="13" y="857" type="line"/>
      <point x="79" y="842"/>
      <point x="109" y="825"/>
      <point x="124" y="789" type="curve"/>
      <point x="459" y="-23" type="line"/>
      <point x="430" y="-92" type="line" smooth="yes"/>
      <point x="383" y="-207"/>
      <point x="322" y="-261"/>
      <point x="273" y="-278" type="curve"/>
      <point x="224" y="-296"/>
      <point x="151" y="-288"/>
      <point x="85" y="-245" type="curve" smooth="yes"/>
      <point x="42" y="-271"/>
      <point x="-62" y="-401"/>
      <point x="-62" y="-425" type="curve" smooth="yes"/>
      <point x="-62" y="-450"/>
      <point x="40" y="-493"/>
      <point x="142" y="-493" type="curve" smooth="yes"/>
      <point x="313" y="-493"/>
      <point x="469" y="-369"/>
      <point x="583" y="-75" type="curve" smooth="yes"/>
      <point x="917" y="789" type="line"/>
      <point x="931" y="828"/>
      <point x="947" y="838"/>
    </contour>
    <contour>
      <point x="1040" y="900" type="move" name="R"/>
    </contour>
    <contour>
      <point x="544" y="1050" type="move" name="U"/>
    </contour>
    <contour>
      <point x="815" y="-100" type="move" name="L"/>
    </contour>
  </outline>
</glyph>
<glyph name="LftCurlyBrac" format="1">
  <advance width="717"/>
  <unicode hex="007B"/>
  <outline>
    <contour>
      <point x="693" y="1523" type="curve"/>
      <point x="652" y="1600" type="line"/>
      <point x="430" y="1510"/>
      <point x="260" y="1390"/>
      <point x="260" y="1210" type="curve" smooth="yes"/>
      <point x="260" y="1061"/>
      <point x="301" y="1010"/>
      <point x="301" y="863" type="curve" smooth="yes"/>
      <point x="301" y="763"/>
      <point x="234" y="689"/>
      <point x="86" y="648" type="curve"/>
      <point x="103" y="565" type="line"/>
      <point x="142" y="571"/>
      <point x="131" y="571"/>
      <point x="168" y="571" type="curve" smooth="yes"/>
      <point x="252" y="571"/>
      <point x="301" y="530"/>
      <point x="301" y="422" type="curve" smooth="yes"/>
      <point x="301" y="271"/>
      <point x="260" y="199"/>
      <point x="260" y="57" type="curve" smooth="yes"/>
      <point x="260" y="-136"/>
      <point x="399" y="-225"/>
      <point x="645" y="-315" type="curve"/>
      <point x="683" y="-224" type="line"/>
      <point x="542" y="-146"/>
      <point x="516" y="-82"/>
      <point x="516" y="28" type="curve" smooth="yes"/>
      <point x="516" y="146"/>
      <point x="557" y="240"/>
      <point x="557" y="385" type="curve" smooth="yes"/>
      <point x="557" y="532"/>
      <point x="495" y="629"/>
      <point x="362" y="653" type="curve"/>
      <point x="474" y="702"/>
      <point x="557" y="812"/>
      <point x="557" y="923" type="curve" smooth="yes"/>
      <point x="557" y="1063"/>
      <point x="516" y="1127"/>
      <point x="516" y="1267" type="curve" smooth="yes"/>
      <point x="516" y="1368"/>
      <point x="589" y="1458"/>
    </contour>
  </outline>
</glyph>
<glyph name="InvExclamationMrk" format="1">
  <advance width="633"/>
  <unicode hex="00A1"/>
  <outline>
    <contour>
      <point x="474" y="826" type="curve"/>
      <point x="474" y="920"/>
      <point x="408" y="960"/>
      <point x="330" y="960" type="curve" smooth="yes"/>
      <point x="229" y="960"/>
      <point x="147" y="897"/>
      <point x="147" y="790" type="curve" smooth="yes"/>
      <point x="147" y="695"/>
      <point x="217" y="654"/>
      <point x="291" y="654" type="curve" smooth="yes"/>
      <point x="388" y="654"/>
      <point x="474" y="721"/>
    </contour>
    <contour>
      <point x="454" y="-449" type="curve"/>
      <point x="377" y="527" type="line"/>
      <point x="348" y="547" type="line"/>
      <point x="315" y="537"/>
      <point x="269" y="527"/>
      <point x="244" y="508" type="curve"/>
      <point x="165" y="-530" type="line"/>
      <point x="216" y="-561" type="line"/>
      <point x="268" y="-543"/>
      <point x="396" y="-482"/>
    </contour>
  </outline>
</glyph>
<glyph name="CentSgn" format="1">
  <advance width="1036"/>
  <unicode hex="00A2"/>
  <outline>
    <contour>
      <point x="618" y="7" type="curve"/>
      <point x="618" y="135" type="line"/>
      <point x="719" y="152"/>
      <point x="812" y="205"/>
      <point x="947" y="358" type="curve"/>
      <point x="885" y="429" type="line"/>
      <point x="761" y="308"/>
      <point x="696" y="280"/>
      <point x="618" y="277" type="curve"/>
      <point x="618" y="943" type="line"/>
      <point x="719" y="921"/>
      <point x="774" y="843"/>
      <point x="796" y="803" type="curve"/>
      <point x="861" y="786" type="line"/>
      <point x="885" y="820"/>
      <point x="946" y="969"/>
      <point x="940" y="999" type="curve"/>
      <point x="895" y="1049"/>
      <point x="740" y="1079"/>
      <point x="652" y="1079" type="curve" smooth="yes"/>
      <point x="640" y="1079"/>
      <point x="629" y="1078"/>
      <point x="618" y="1078" type="curve"/>
      <point x="618" y="1216" type="line"/>
      <point x="584" y="1245" type="line"/>
      <point x="543" y="1235"/>
      <point x="535" y="1222"/>
      <point x="498" y="1199" type="curve"/>
      <point x="498" y="1063" type="line"/>
      <point x="250" y="1009"/>
      <point x="89" y="823"/>
      <point x="89" y="586" type="curve" smooth="yes"/>
      <point x="89" y="304"/>
      <point x="311" y="145"/>
      <point x="498" y="130" type="curve"/>
      <point x="498" y="-9" type="line"/>
      <point x="530" y="-41" type="line"/>
      <point x="562" y="-31"/>
      <point x="594" y="-14"/>
    </contour>
    <contour>
      <point x="309" y="616" type="curve" smooth="yes"/>
      <point x="309" y="820"/>
      <point x="398" y="914"/>
      <point x="498" y="941" type="curve"/>
      <point x="498" y="293" type="line"/>
      <point x="387" y="332"/>
      <point x="309" y="437"/>
    </contour>
  </outline>
</glyph>
<glyph name="PoundSgn" format="1">
  <advance width="1036"/>
  <unicode hex="00A3"/>
  <outline>
    <contour>
      <point x="760" y="612" type="line"/>
      <point x="728" y="642" type="line"/>
      <point x="446" y="642" type="line"/>
      <point x="407" y="1086"/>
      <point x="542" y="1114"/>
      <point x="623" y="1114" type="curve" smooth="yes"/>
      <point x="743" y="1114"/>
      <point x="816" y="1013"/>
      <point x="835" y="848" type="curve"/>
      <point x="912" y="848" type="line"/>
      <point x="928" y="899"/>
      <point x="949" y="1097"/>
      <point x="951" y="1165" type="curve"/>
      <point x="827" y="1228"/>
      <point x="722" y="1235"/>
      <point x="652" y="1235" type="curve" smooth="yes"/>
      <point x="353" y="1235"/>
      <point x="173" y="993"/>
      <point x="179" y="642" type="curve"/>
      <point x="79" y="642" type="line"/>
      <point x="71" y="621"/>
      <point x="48" y="574"/>
      <point x="42" y="554" type="curve"/>
      <point x="71" y="521" type="line"/>
      <point x="186" y="521" type="line"/>
      <point x="208" y="192"/>
      <point x="170" y="141"/>
      <point x="49" y="42" type="curve"/>
      <point x="87" y="-30" type="line"/>
      <point x="283" y="95"/>
      <point x="761" y="-99"/>
      <point x="940" y="0" type="curve"/>
      <point x="950" y="39"/>
      <point x="978" y="192"/>
      <point x="988" y="307" type="curve"/>
      <point x="915" y="332" type="line"/>
      <point x="858" y="176"/>
      <point x="812" y="142"/>
      <point x="689" y="139" type="curve" smooth="yes"/>
      <point x="541" y="135"/>
      <point x="530" y="154"/>
      <point x="348" y="139" type="curve"/>
      <point x="421" y="242"/>
      <point x="460" y="365"/>
      <point x="456" y="521" type="curve"/>
      <point x="720" y="521" type="line"/>
    </contour>
  </outline>
</glyph>
<glyph name="CurrSgn" format="1">
  <advance width="1036"/>
  <unicode hex="00A4"/>
  <outline>
    <contour>
      <point x="937" y="222" type="line"/>
      <point x="936" y="267" type="line"/>
      <point x="798" y="404" type="line"/>
      <point x="840" y="463"/>
      <point x="861" y="531"/>
      <point x="861" y="599" type="curve" smooth="yes"/>
      <point x="861" y="668"/>
      <point x="839" y="739"/>
      <point x="797" y="798" type="curve"/>
      <point x="934" y="935" type="line"/>
      <point x="895" y="1021" type="line"/>
      <point x="851" y="1020" type="line"/>
      <point x="713" y="882" type="line"/>
      <point x="655" y="924"/>
      <point x="588" y="946"/>
      <point x="520" y="946" type="curve" smooth="yes"/>
      <point x="451" y="946"/>
      <point x="383" y="924"/>
      <point x="323" y="881" type="curve"/>
      <point x="184" y="1021" type="line"/>
      <point x="156" y="1009"/>
      <point x="127" y="994"/>
      <point x="103" y="981" type="curve"/>
      <point x="101" y="937" type="line"/>
      <point x="239" y="797" type="line"/>
      <point x="198" y="738"/>
      <point x="178" y="668"/>
      <point x="178" y="599" type="curve" smooth="yes"/>
      <point x="178" y="531"/>
      <point x="198" y="463"/>
      <point x="239" y="405" type="curve"/>
      <point x="100" y="266" type="line"/>
      <point x="111" y="238"/>
      <point x="127" y="208"/>
      <point x="140" y="185" type="curve"/>
      <point x="182" y="182" type="line"/>
      <point x="322" y="322" type="line"/>
      <point x="381" y="280"/>
      <point x="450" y="260"/>
      <point x="520" y="260" type="curve" smooth="yes"/>
      <point x="589" y="260"/>
      <point x="657" y="280"/>
      <point x="714" y="320" type="curve"/>
      <point x="851" y="183" type="line"/>
    </contour>
    <contour>
      <point x="366" y="757" type="curve" smooth="yes"/>
      <point x="409" y="800"/>
      <point x="464" y="820"/>
      <point x="520" y="820" type="curve" smooth="yes"/>
      <point x="576" y="820"/>
      <point x="629" y="800"/>
      <point x="672" y="757" type="curve" smooth="yes"/>
      <point x="715" y="714"/>
      <point x="737" y="658"/>
      <point x="737" y="602" type="curve" smooth="yes"/>
      <point x="737" y="546"/>
      <point x="715" y="491"/>
      <point x="673" y="448" type="curve" smooth="yes"/>
      <point x="630" y="404"/>
      <point x="576" y="384"/>
      <point x="520" y="384" type="curve" smooth="yes"/>
      <point x="464" y="384"/>
      <point x="409" y="404"/>
      <point x="364" y="449" type="curve" smooth="yes"/>
      <point x="322" y="491"/>
      <point x="301" y="545"/>
      <point x="301" y="601" type="curve" smooth="yes"/>
      <point x="301" y="657"/>
      <point x="323" y="714"/>
    </contour>
  </outline>
</glyph>
<glyph name="YenSgn" format="1">
  <advance width="1036"/>
  <unicode hex="00A5"/>
  <outline>
    <contour>
      <point x="794" y="0" type="line"/>
      <point x="794" y="73" type="line"/>
      <point x="669" y="98"/>
      <point x="635" y="128"/>
      <point x="635" y="145" type="curve" smooth="yes"/>
      <point x="635" y="388" type="line"/>
      <point x="890" y="388" type="line"/>
      <point x="927" y="485" type="line"/>
      <point x="902" y="508" type="line"/>
      <point x="635" y="508" type="line"/>
      <point x="635" y="526" type="line"/>
      <point x="919" y="1065" type="line" smooth="yes"/>
      <point x="938" y="1099"/>
      <point x="976" y="1114"/>
      <point x="1067" y="1131" type="curve"/>
      <point x="1067" y="1204" type="line"/>
      <point x="649" y="1204" type="line"/>
      <point x="649" y="1131" type="line"/>
      <point x="752" y="1118"/>
      <point x="780" y="1100"/>
      <point x="760" y="1065" type="curve" smooth="yes"/>
      <point x="567" y="699" type="line"/>
      <point x="474" y="891"/>
      <point x="389" y="1036"/>
      <point x="291" y="1168" type="curve" smooth="yes"/>
      <point x="268" y="1197"/>
      <point x="227" y="1214"/>
      <point x="190" y="1214" type="curve" smooth="yes"/>
      <point x="135" y="1214"/>
      <point x="-3" y="1197"/>
      <point x="-81" y="1186" type="curve"/>
      <point x="-77" y="1113" type="line"/>
      <point x="34" y="1113"/>
      <point x="56" y="1095"/>
      <point x="79" y="1065" type="curve" smooth="yes"/>
      <point x="172" y="943"/>
      <point x="292" y="735"/>
      <point x="385" y="529" type="curve"/>
      <point x="385" y="508" type="line"/>
      <point x="109" y="508" type="line"/>
      <point x="101" y="487"/>
      <point x="81" y="432"/>
      <point x="75" y="412" type="curve"/>
      <point x="97" y="388" type="line"/>
      <point x="385" y="388" type="line"/>
      <point x="385" y="145" type="line" smooth="yes"/>
      <point x="385" y="126"/>
      <point x="350" y="98"/>
      <point x="229" y="73" type="curve"/>
      <point x="229" y="0" type="line"/>
    </contour>
  </outline>
</glyph>
<glyph name="BrokenBar" format="1">
  <advance width="469"/>
  <unicode hex="00A6"/>
  <outline>
    <contour>
      <point x="341" y="775" type="curve"/>
      <point x="341" y="1641" type="line"/>
      <point x="297" y="1670" type="line"/>
      <point x="256" y="1660"/>
      <point x="198" y="1636"/>
      <point x="159" y="1614" type="curve"/>
      <point x="159" y="746" type="line"/>
      <point x="204" y="716" type="line"/>
      <point x="237" y="726"/>
      <point x="314" y="754"/>
    </contour>
    <contour>
      <point x="341" y="-347" type="curve"/>
      <point x="341" y="509" type="line"/>
      <point x="297" y="541" type="line"/>
      <point x="256" y="528"/>
      <point x="198" y="505"/>
      <point x="159" y="482" type="curve"/>
      <point x="159" y="-376" type="line"/>
      <point x="204" y="-406" type="line"/>
      <point x="237" y="-395"/>
      <point x="314" y="-368"/>
    </contour>
  </outline>
</glyph>
<glyph name="SectionSgn" format="1">
  <advance width="1025"/>
  <unicode hex="00A7"/>
  <outline>
    <contour>
      <point x="920" y="669" type="curve" smooth="yes"/>
      <point x="920" y="871"/>
      <point x="769" y="962"/>
      <point x="638" y="1032" type="curve" smooth="yes"/>
      <point x="488" y="1112"/>
      <point x="387" y="1152"/>
      <point x="387" y="1240" type="curve" smooth="yes"/>
      <point x="387" y="1299"/>
      <point x="432" y="1335"/>
      <point x="513" y="1335" type="curve" smooth="yes"/>
      <point x="600" y="1335"/>
      <point x="665" y="1269"/>
      <point x="698" y="1151" type="curve"/>
      <point x="767" y="1143" type="line"/>
      <point x="799" y="1187"/>
      <point x="841" y="1347"/>
      <point x="824" y="1361" type="curve" smooth="yes"/>
      <point x="763" y="1408"/>
      <point x="638" y="1440"/>
      <point x="524" y="1440" type="curve" smooth="yes"/>
      <point x="343" y="1440"/>
      <point x="167" y="1344"/>
      <point x="167" y="1178" type="curve" smooth="yes"/>
      <point x="167" y="1116"/>
      <point x="200" y="1065"/>
      <point x="247" y="1020" type="curve"/>
      <point x="166" y="963"/>
      <point x="105" y="871"/>
      <point x="105" y="779" type="curve" smooth="yes"/>
      <point x="105" y="596"/>
      <point x="250" y="494"/>
      <point x="377" y="427" type="curve" smooth="yes"/>
      <point x="499" y="362"/>
      <point x="640" y="307"/>
      <point x="640" y="200" type="curve" smooth="yes"/>
      <point x="640" y="121"/>
      <point x="595" y="91"/>
      <point x="499" y="91" type="curve" smooth="yes"/>
      <point x="383" y="91"/>
      <point x="285" y="185"/>
      <point x="256" y="327" type="curve"/>
      <point x="176" y="338" type="line"/>
      <point x="149" y="241"/>
      <point x="151" y="54"/>
      <point x="169" y="46" type="curve"/>
      <point x="258" y="-4"/>
      <point x="378" y="-30"/>
      <point x="464" y="-30" type="curve" smooth="yes"/>
      <point x="579" y="-30"/>
      <point x="860" y="-5"/>
      <point x="860" y="278" type="curve" smooth="yes"/>
      <point x="860" y="330"/>
      <point x="840" y="373"/>
      <point x="809" y="409" type="curve"/>
      <point x="871" y="467"/>
      <point x="920" y="557"/>
    </contour>
    <contour>
      <point x="585" y="559" type="curve"/>
      <point x="403" y="661"/>
      <point x="318" y="711"/>
      <point x="318" y="828" type="curve" smooth="yes"/>
      <point x="318" y="864"/>
      <point x="337" y="905"/>
      <point x="365" y="935" type="curve"/>
      <point x="387" y="922"/>
      <point x="409" y="910"/>
      <point x="430" y="899" type="curve" smooth="yes"/>
      <point x="621" y="796"/>
      <point x="707" y="737"/>
      <point x="707" y="604" type="curve" smooth="yes"/>
      <point x="707" y="570"/>
      <point x="696" y="538"/>
      <point x="677" y="511" type="curve"/>
      <point x="646" y="528"/>
      <point x="614" y="544"/>
    </contour>
  </outline>
</glyph>
<glyph name="FemOrdIndicator" format="1">
  <advance width="564"/>
  <unicode hex="00AA"/>
  <outline>
    <contour>
      <point x="550" y="800" type="curve"/>
      <point x="538" y="840" type="line"/>
      <point x="501" y="825"/>
      <point x="489" y="823"/>
      <point x="482" y="827" type="curve"/>
      <point x="474" y="836"/>
      <point x="468" y="850"/>
      <point x="468" y="887" type="curve" smooth="yes"/>
      <point x="468" y="1083" type="line" smooth="yes"/>
      <point x="468" y="1224"/>
      <point x="420" y="1262"/>
      <point x="324" y="1262" type="curve" smooth="yes"/>
      <point x="216" y="1262"/>
      <point x="87" y="1199"/>
      <point x="53" y="1107" type="curve"/>
      <point x="64" y="1081" type="line"/>
      <point x="82" y="1077"/>
      <point x="209" y="1109"/>
      <point x="206" y="1121" type="curve" smooth="yes"/>
      <point x="193" y="1170"/>
      <point x="230" y="1192"/>
      <point x="269" y="1192" type="curve" smooth="yes"/>
      <point x="333" y="1192"/>
      <point x="337" y="1148"/>
      <point x="337" y="1066" type="curve" smooth="yes"/>
      <point x="337" y="1054" type="line"/>
      <point x="233" y="1032" type="line" smooth="yes"/>
      <point x="96" y="1002"/>
      <point x="42" y="922"/>
      <point x="42" y="840" type="curve" smooth="yes"/>
      <point x="42" y="756"/>
      <point x="110" y="726"/>
      <point x="163" y="726" type="curve" smooth="yes"/>
      <point x="210" y="726"/>
      <point x="274" y="745"/>
      <point x="340" y="810" type="curve"/>
      <point x="348" y="743"/>
      <point x="366" y="726"/>
      <point x="384" y="726" type="curve" smooth="yes"/>
      <point x="427" y="726"/>
      <point x="489" y="759"/>
    </contour>
    <contour>
      <point x="523" y="586" type="line"/>
      <point x="523" y="674" type="line"/>
      <point x="44" y="674" type="line"/>
      <point x="44" y="586" type="line"/>
    </contour>
    <contour>
      <point x="337" y="871" type="line"/>
      <point x="287" y="828"/>
      <point x="255" y="818"/>
      <point x="227" y="818" type="curve" smooth="yes"/>
      <point x="208" y="818"/>
      <point x="179" y="831"/>
      <point x="179" y="879" type="curve" smooth="yes"/>
      <point x="179" y="936"/>
      <point x="219" y="974"/>
      <point x="287" y="991" type="curve"/>
      <point x="337" y="1002" type="line"/>
      <point x="337" y="891" type="line"/>
    </contour>
  </outline>
</glyph>
<glyph name="LftPtngDblAngQuotMrk" format="1">
  <advance width="1054"/>
  <unicode hex="00AB"/>
  <outline>
    <contour>
      <point x="871" y="2" type="line"/>
      <point x="929" y="47" type="line"/>
      <point x="728" y="467" type="line"/>
      <point x="725" y="465"/>
      <point x="929" y="883"/>
      <point x="928" y="883" type="curve"/>
      <point x="871" y="928" type="line"/>
      <point x="475" y="503" type="line"/>
      <point x="473" y="500"/>
      <point x="473" y="430"/>
      <point x="473" y="430" type="curve"/>
    </contour>
    <contour>
      <point x="464" y="2" type="line"/>
      <point x="522" y="47" type="line"/>
      <point x="321" y="467" type="line"/>
      <point x="318" y="465"/>
      <point x="522" y="883"/>
      <point x="521" y="883" type="curve"/>
      <point x="464" y="928" type="line"/>
      <point x="67" y="503" type="line"/>
      <point x="65" y="500"/>
      <point x="65" y="430"/>
      <point x="65" y="430" type="curve"/>
    </contour>
  </outline>
</glyph>
<glyph name="Macron" format="1">
  <advance width="1010"/>
  <unicode hex="00AF"/>
  <outline>
    <contour>
      <point x="931" y="1307" type="curve"/>
      <point x="899" y="1338" type="line"/>
      <point x="135" y="1338" type="line"/>
      <point x="123" y="1312"/>
      <point x="86" y="1236"/>
      <point x="79" y="1207" type="curve"/>
      <point x="111" y="1175" type="line"/>
      <point x="875" y="1175" type="line"/>
      <point x="885" y="1198"/>
      <point x="923" y="1278"/>
    </contour>
  </outline>
</glyph>
<glyph name="PlusMinusSgn" format="1">
  <advance width="840"/>
  <unicode hex="00B1"/>
  <outline>
    <contour>
      <point x="506" y="355" type="curve"/>
      <point x="506" y="621" type="line"/>
      <point x="764" y="621" type="line"/>
      <point x="774" y="643"/>
      <point x="802" y="704"/>
      <point x="810" y="733" type="curve"/>
      <point x="777" y="764" type="line"/>
      <point x="506" y="764" type="line"/>
      <point x="506" y="1038" type="line"/>
      <point x="474" y="1069" type="line"/>
      <point x="445" y="1062"/>
      <point x="386" y="1040"/>
      <point x="361" y="1032" type="curve"/>
      <point x="361" y="764" type="line"/>
      <point x="99" y="764" type="line"/>
      <point x="87" y="738"/>
      <point x="60" y="681"/>
      <point x="53" y="652" type="curve"/>
      <point x="85" y="621" type="line"/>
      <point x="361" y="621" type="line"/>
      <point x="361" y="346" type="line"/>
      <point x="393" y="316" type="line"/>
      <point x="422" y="322"/>
      <point x="480" y="342"/>
    </contour>
    <contour>
      <point x="810" y="224" type="curve"/>
      <point x="777" y="255" type="line"/>
      <point x="99" y="255" type="line"/>
      <point x="87" y="229"/>
      <point x="60" y="171"/>
      <point x="53" y="143" type="curve"/>
      <point x="85" y="111" type="line"/>
      <point x="764" y="111" type="line"/>
      <point x="774" y="133"/>
      <point x="802" y="195"/>
    </contour>
  </outline>
</glyph>
<glyph name="SupThree" format="1">
  <advance width="711"/>
  <unicode hex="00B3"/>
  <outline>
    <contour>
      <point x="643" y="849" type="curve"/>
      <point x="643" y="946"/>
      <point x="576" y="1029"/>
      <point x="461" y="1039" type="curve"/>
      <point x="550" y="1063"/>
      <point x="602" y="1135"/>
      <point x="602" y="1195" type="curve" smooth="yes"/>
      <point x="602" y="1276"/>
      <point x="536" y="1361"/>
      <point x="364" y="1361" type="curve" smooth="yes"/>
      <point x="192" y="1361"/>
      <point x="71" y="1250"/>
      <point x="71" y="1183" type="curve"/>
      <point x="95" y="1146" type="line"/>
      <point x="147" y="1150"/>
      <point x="216" y="1168"/>
      <point x="255" y="1188" type="curve"/>
      <point x="237" y="1242"/>
      <point x="277" y="1282"/>
      <point x="324" y="1282" type="curve" smooth="yes"/>
      <point x="382" y="1282"/>
      <point x="403" y="1239"/>
      <point x="403" y="1184" type="curve" smooth="yes"/>
      <point x="403" y="1135"/>
      <point x="396" y="1068"/>
      <point x="238" y="1032" type="curve"/>
      <point x="250" y="968" type="line"/>
      <point x="279" y="972"/>
      <point x="282" y="972"/>
      <point x="308" y="972" type="curve" smooth="yes"/>
      <point x="369" y="972"/>
      <point x="443" y="945"/>
      <point x="443" y="837" type="curve" smooth="yes"/>
      <point x="443" y="749"/>
      <point x="385" y="699"/>
      <point x="301" y="699" type="curve" smooth="yes"/>
      <point x="231" y="699"/>
      <point x="164" y="723"/>
      <point x="79" y="777" type="curve"/>
      <point x="51" y="703" type="line"/>
      <point x="135" y="634"/>
      <point x="248" y="602"/>
      <point x="323" y="602" type="curve" smooth="yes"/>
      <point x="513" y="602"/>
      <point x="643" y="714"/>
    </contour>
    <contour>
      <point x="373" y="1410" type="move" name="U"/>
    </contour>
    <contour>
      <point x="373" y="550" type="move" name="L"/>
    </contour>
  </outline>
</glyph>
<glyph name="AcuteAccent" format="1">
  <advance width="653"/>
  <unicode hex="00B4"/>
  <outline>
    <contour>
      <point x="672" y="1420" type="line"/>
      <point x="641" y="1474" type="line"/>
      <point x="611" y="1482"/>
      <point x="445" y="1510"/>
      <point x="414" y="1512" type="curve"/>
      <point x="202" y="1083" type="line"/>
      <point x="217" y="1071"/>
      <point x="265" y="1044"/>
      <point x="289" y="1040" type="curve"/>
    </contour>
    <contour>
      <point x="327" y="1410" type="move" name="U"/>
    </contour>
  </outline>
</glyph>
<glyph name="MiddleDot" format="1">
  <advance width="419"/>
  <unicode hex="00B7"/>
  <outline>
    <contour>
      <point x="369" y="708" type="curve"/>
      <point x="369" y="800"/>
      <point x="300" y="839"/>
      <point x="229" y="839" type="curve" smooth="yes"/>
      <point x="134" y="839"/>
      <point x="51" y="776"/>
      <point x="51" y="674" type="curve" smooth="yes"/>
      <point x="51" y="582"/>
      <point x="116" y="544"/>
      <point x="192" y="544" type="curve" smooth="yes"/>
      <point x="289" y="544"/>
      <point x="369" y="605"/>
    </contour>
  </outline>
</glyph>
<glyph name="MascOrdIndicator" format="1">
  <advance width="575"/>
  <unicode hex="00BA"/>
  <outline>
    <contour>
      <point x="540" y="1003" type="curve"/>
      <point x="540" y="1148"/>
      <point x="443" y="1263"/>
      <point x="299" y="1263" type="curve" smooth="yes"/>
      <point x="143" y="1263"/>
      <point x="35" y="1121"/>
      <point x="35" y="982" type="curve" smooth="yes"/>
      <point x="35" y="836"/>
      <point x="128" y="726"/>
      <point x="276" y="726" type="curve" smooth="yes"/>
      <point x="416" y="726"/>
      <point x="540" y="866"/>
    </contour>
    <contour>
      <point x="530" y="586" type="line"/>
      <point x="530" y="674" type="line"/>
      <point x="45" y="674" type="line"/>
      <point x="45" y="586" type="line"/>
    </contour>
    <contour>
      <point x="404" y="979" type="curve"/>
      <point x="404" y="866"/>
      <point x="375" y="792"/>
      <point x="295" y="792" type="curve" smooth="yes"/>
      <point x="228" y="792"/>
      <point x="171" y="892"/>
      <point x="171" y="1005" type="curve" smooth="yes"/>
      <point x="171" y="1118"/>
      <point x="201" y="1196"/>
      <point x="280" y="1196" type="curve" smooth="yes"/>
      <point x="360" y="1196"/>
      <point x="404" y="1091"/>
    </contour>
  </outline>
</glyph>
<glyph name="RtPtngDblAngQuotMrk" format="1">
  <advance width="1054"/>
  <unicode hex="00BB"/>
  <outline>
    <contour>
      <point x="581" y="501" type="line"/>
      <point x="183" y="928" type="line"/>
      <point x="125" y="883" type="line"/>
      <point x="326" y="464" type="line"/>
      <point x="126" y="47" type="line"/>
      <point x="183" y="2" type="line"/>
      <point x="580" y="428" type="line"/>
    </contour>
    <contour>
      <point x="989" y="501" type="line"/>
      <point x="591" y="928" type="line"/>
      <point x="533" y="883" type="line"/>
      <point x="734" y="464" type="line"/>
      <point x="533" y="47" type="line"/>
      <point x="591" y="2" type="line"/>
      <point x="988" y="428" type="line"/>
    </contour>
  </outline>
</glyph>
<glyph name="VulgFracOneQuarter" format="1">
  <advance width="1275"/>
  <unicode hex="00BC"/>
  <outline>
    <contour>
      <point x="1194" y="1207" type="line"/>
      <point x="1169" y="1235" type="line"/>
      <point x="1140" y="1229"/>
      <point x="1069" y="1214"/>
      <point x="1043" y="1203" type="curve"/>
      <point x="153" y="0" type="line"/>
      <point x="178" y="-30" type="line"/>
      <point x="214" y="-21"/>
      <point x="278" y="-12"/>
      <point x="309" y="3" type="curve"/>
    </contour>
    <contour>
      <point x="520" y="637" type="line"/>
      <point x="520" y="679" type="line"/>
      <point x="406" y="691"/>
      <point x="380" y="709"/>
      <point x="380" y="722" type="curve" smooth="yes"/>
      <point x="380" y="1214" type="line"/>
      <point x="355" y="1235" type="line"/>
      <point x="300" y="1214"/>
      <point x="135" y="1165"/>
      <point x="71" y="1153" type="curve"/>
      <point x="87" y="1112" type="line"/>
      <point x="187" y="1130"/>
      <point x="220" y="1127"/>
      <point x="229" y="1119" type="curve" smooth="yes"/>
      <point x="239" y="1110"/>
      <point x="239" y="1097"/>
      <point x="239" y="1072" type="curve" smooth="yes"/>
      <point x="239" y="722" type="line" smooth="yes"/>
      <point x="239" y="708"/>
      <point x="207" y="691"/>
      <point x="88" y="679" type="curve"/>
      <point x="88" y="637" type="line"/>
    </contour>
    <contour>
      <point x="1218" y="215" type="curve"/>
      <point x="1203" y="230" type="line"/>
      <point x="1131" y="230" type="line"/>
      <point x="1131" y="577" type="line"/>
      <point x="1106" y="598" type="line"/>
      <point x="1073" y="587"/>
      <point x="1014" y="571"/>
      <point x="978" y="560" type="curve"/>
      <point x="704" y="179" type="line"/>
      <point x="728" y="160" type="line"/>
      <point x="997" y="160" type="line"/>
      <point x="997" y="71" type="line" smooth="yes"/>
      <point x="997" y="60"/>
      <point x="978" y="51"/>
      <point x="879" y="37" type="curve"/>
      <point x="879" y="0" type="line"/>
      <point x="1208" y="0" type="line"/>
      <point x="1208" y="37" type="line"/>
      <point x="1146" y="49"/>
      <point x="1131" y="57"/>
      <point x="1131" y="66" type="curve" smooth="yes"/>
      <point x="1131" y="160" type="line"/>
      <point x="1161" y="160" type="line"/>
      <point x="1178" y="171"/>
      <point x="1202" y="194"/>
    </contour>
    <contour>
      <point x="997" y="230" type="line"/>
      <point x="817" y="230" type="line"/>
      <point x="997" y="469" type="line"/>
    </contour>
  </outline>
</glyph>
<glyph name="VulgFracOneHalf" format="1">
  <advance width="1275"/>
  <unicode hex="00BD"/>
  <outline>
    <contour>
      <point x="1207" y="170" type="line"/>
      <point x="1160" y="180" type="line"/>
      <point x="1160" y="180"/>
      <point x="1153" y="86"/>
      <point x="1101" y="86" type="curve" smooth="yes"/>
      <point x="879" y="86" type="line"/>
      <point x="1121" y="312"/>
      <point x="1198" y="385"/>
      <point x="1198" y="471" type="curve" smooth="yes"/>
      <point x="1198" y="552"/>
      <point x="1123" y="593"/>
      <point x="1004" y="593" type="curve" smooth="yes"/>
      <point x="861" y="593"/>
      <point x="740" y="509"/>
      <point x="740" y="443" type="curve"/>
      <point x="759" y="411" type="line"/>
      <point x="794" y="413"/>
      <point x="862" y="429"/>
      <point x="888" y="441" type="curve"/>
      <point x="878" y="489"/>
      <point x="905" y="535"/>
      <point x="966" y="535" type="curve" smooth="yes"/>
      <point x="1028" y="535"/>
      <point x="1052" y="498"/>
      <point x="1052" y="444" type="curve" smooth="yes"/>
      <point x="1052" y="375"/>
      <point x="990" y="299"/>
      <point x="724" y="36" type="curve"/>
      <point x="741" y="0" type="line"/>
      <point x="1198" y="0" type="line"/>
    </contour>
    <contour>
      <point x="1194" y="1207" type="line"/>
      <point x="1169" y="1235" type="line"/>
      <point x="1140" y="1229"/>
      <point x="1069" y="1214"/>
      <point x="1043" y="1203" type="curve"/>
      <point x="153" y="0" type="line"/>
      <point x="178" y="-30" type="line"/>
      <point x="214" y="-21"/>
      <point x="278" y="-12"/>
      <point x="309" y="3" type="curve"/>
    </contour>
    <contour>
      <point x="520" y="637" type="line"/>
      <point x="520" y="679" type="line"/>
      <point x="406" y="691"/>
      <point x="380" y="709"/>
      <point x="380" y="722" type="curve" smooth="yes"/>
      <point x="380" y="1214" type="line"/>
      <point x="355" y="1235" type="line"/>
      <point x="300" y="1214"/>
      <point x="135" y="1165"/>
      <point x="71" y="1153" type="curve"/>
      <point x="87" y="1112" type="line"/>
      <point x="187" y="1130"/>
      <point x="220" y="1127"/>
      <point x="229" y="1119" type="curve" smooth="yes"/>
      <point x="239" y="1110"/>
      <point x="239" y="1097"/>
      <point x="239" y="1072" type="curve" smooth="yes"/>
      <point x="239" y="722" type="line" smooth="yes"/>
      <point x="239" y="708"/>
      <point x="207" y="691"/>
      <point x="88" y="679" type="curve"/>
      <point x="88" y="637" type="line"/>
    </contour>
  </outline>
</glyph>
<glyph name="VulgFracThreeQuarters" format="1">
  <advance width="1275"/>
  <unicode hex="00BE"/>
  <outline>
    <contour>
      <point x="534" y="821" type="curve"/>
      <point x="534" y="899"/>
      <point x="474" y="965"/>
      <point x="381" y="973" type="curve"/>
      <point x="453" y="993"/>
      <point x="501" y="1050"/>
      <point x="501" y="1098" type="curve" smooth="yes"/>
      <point x="501" y="1163"/>
      <point x="447" y="1231"/>
      <point x="308" y="1231" type="curve" smooth="yes"/>
      <point x="168" y="1231"/>
      <point x="70" y="1148"/>
      <point x="70" y="1095" type="curve"/>
      <point x="89" y="1065" type="line"/>
      <point x="132" y="1068"/>
      <point x="188" y="1083"/>
      <point x="219" y="1098" type="curve"/>
      <point x="205" y="1142"/>
      <point x="237" y="1173"/>
      <point x="275" y="1173" type="curve" smooth="yes"/>
      <point x="332" y="1173"/>
      <point x="352" y="1133"/>
      <point x="352" y="1089" type="curve" smooth="yes"/>
      <point x="352" y="1050"/>
      <point x="334" y="997"/>
      <point x="206" y="967" type="curve"/>
      <point x="215" y="922" type="line"/>
      <point x="239" y="926"/>
      <point x="241" y="926"/>
      <point x="262" y="926" type="curve" smooth="yes"/>
      <point x="311" y="926"/>
      <point x="384" y="898"/>
      <point x="384" y="809" type="curve" smooth="yes"/>
      <point x="384" y="727"/>
      <point x="327" y="693"/>
      <point x="257" y="693" type="curve" smooth="yes"/>
      <point x="201" y="693"/>
      <point x="146" y="708"/>
      <point x="77" y="751" type="curve"/>
      <point x="53" y="705" type="line"/>
      <point x="122" y="650"/>
      <point x="213" y="624"/>
      <point x="275" y="624" type="curve" smooth="yes"/>
      <point x="428" y="624"/>
      <point x="534" y="713"/>
    </contour>
    <contour>
      <point x="1194" y="1207" type="line"/>
      <point x="1169" y="1235" type="line"/>
      <point x="1140" y="1229"/>
      <point x="1069" y="1214"/>
      <point x="1043" y="1203" type="curve"/>
      <point x="153" y="0" type="line"/>
      <point x="178" y="-30" type="line"/>
      <point x="214" y="-21"/>
      <point x="278" y="-12"/>
      <point x="309" y="3" type="curve"/>
    </contour>
    <contour>
      <point x="1218" y="215" type="curve"/>
      <point x="1203" y="230" type="line"/>
      <point x="1131" y="230" type="line"/>
      <point x="1131" y="577" type="line"/>
      <point x="1106" y="598" type="line"/>
      <point x="1073" y="587"/>
      <point x="1014" y="571"/>
      <point x="978" y="560" type="curve"/>
      <point x="704" y="179" type="line"/>
      <point x="728" y="160" type="line"/>
      <point x="997" y="160" type="line"/>
      <point x="997" y="71" type="line" smooth="yes"/>
      <point x="997" y="60"/>
      <point x="978" y="51"/>
      <point x="879" y="37" type="curve"/>
      <point x="879" y="0" type="line"/>
      <point x="1208" y="0" type="line"/>
      <point x="1208" y="37" type="line"/>
      <point x="1146" y="49"/>
      <point x="1131" y="57"/>
      <point x="1131" y="66" type="curve" smooth="yes"/>
      <point x="1131" y="160" type="line"/>
      <point x="1161" y="160" type="line"/>
      <point x="1178" y="171"/>
      <point x="1202" y="194"/>
    </contour>
    <contour>
      <point x="997" y="230" type="line"/>
      <point x="817" y="230" type="line"/>
      <point x="997" y="469" type="line"/>
    </contour>
  </outline>
</glyph>
<glyph name="InvQstnMrk" format="1">
  <advance width="932"/>
  <unicode hex="00BF"/>
  <outline>
    <contour>
      <point x="652" y="826" type="curve"/>
      <point x="652" y="920"/>
      <point x="585" y="960"/>
      <point x="507" y="960" type="curve" smooth="yes"/>
      <point x="407" y="960"/>
      <point x="324" y="897"/>
      <point x="324" y="790" type="curve" smooth="yes"/>
      <point x="324" y="695"/>
      <point x="394" y="654"/>
      <point x="468" y="654" type="curve" smooth="yes"/>
      <point x="566" y="654"/>
      <point x="652" y="721"/>
    </contour>
    <contour>
      <point x="432" y="508" type="curve"/>
      <point x="426" y="412" type="line" smooth="yes"/>
      <point x="410" y="177"/>
      <point x="65" y="56"/>
      <point x="65" y="-245" type="curve" smooth="yes"/>
      <point x="65" y="-432"/>
      <point x="187" y="-560"/>
      <point x="408" y="-560" type="curve" smooth="yes"/>
      <point x="652" y="-560"/>
      <point x="867" y="-414"/>
      <point x="867" y="-226" type="curve"/>
      <point x="867" y="-216"/>
      <point x="867" y="-188"/>
      <point x="865" y="-178" type="curve"/>
      <point x="831" y="-140" type="line"/>
      <point x="772" y="-146"/>
      <point x="637" y="-178"/>
      <point x="593" y="-201" type="curve"/>
      <point x="600" y="-220"/>
      <point x="606" y="-247"/>
      <point x="606" y="-266" type="curve" smooth="yes"/>
      <point x="606" y="-370"/>
      <point x="545" y="-442"/>
      <point x="478" y="-442" type="curve" smooth="yes"/>
      <point x="386" y="-442"/>
      <point x="329" y="-364"/>
      <point x="329" y="-200" type="curve" smooth="yes"/>
      <point x="329" y="-10"/>
      <point x="583" y="183"/>
      <point x="570" y="412" type="curve" smooth="yes"/>
      <point x="562" y="521" type="line"/>
      <point x="530" y="549" type="line"/>
      <point x="493" y="539"/>
      <point x="456" y="527"/>
    </contour>
  </outline>
</glyph>
<glyph name="MultSgn" format="1">
  <advance width="863"/>
  <unicode hex="00D7"/>
  <outline>
    <contour>
      <point x="83" y="281" type="line"/>
      <point x="110" y="270"/>
      <point x="180" y="241"/>
      <point x="205" y="235" type="curve"/>
      <point x="431" y="462" type="line"/>
      <point x="658" y="235" type="line"/>
      <point x="682" y="241"/>
      <point x="752" y="270"/>
      <point x="779" y="281" type="curve"/>
      <point x="779" y="315" type="line"/>
      <point x="532" y="562" type="line"/>
      <point x="779" y="810" type="line"/>
      <point x="779" y="844" type="line"/>
      <point x="753" y="856"/>
      <point x="685" y="883"/>
      <point x="656" y="890" type="curve"/>
      <point x="431" y="664" type="line"/>
      <point x="205" y="890" type="line"/>
      <point x="176" y="883"/>
      <point x="110" y="856"/>
      <point x="84" y="844" type="curve"/>
      <point x="84" y="810" type="line"/>
      <point x="330" y="563" type="line"/>
      <point x="83" y="315" type="line"/>
    </contour>
  </outline>
</glyph>
<glyph name="LtnCapOStrk" format="1">
  <advance width="1274"/>
  <unicode hex="00D8"/>
  <outline>
    <contour>
      <point x="1189" y="1276" type="line"/>
      <point x="1157" y="1313" type="line"/>
      <point x="1116" y="1308"/>
      <point x="1033" y="1286"/>
      <point x="996" y="1264" type="curve"/>
      <point x="948" y="1199" type="line"/>
      <point x="869" y="1256"/>
      <point x="771" y="1290"/>
      <point x="656" y="1290" type="curve" smooth="yes"/>
      <point x="304" y="1290"/>
      <point x="55" y="975"/>
      <point x="55" y="612" type="curve" smooth="yes"/>
      <point x="55" y="445"/>
      <point x="106" y="286"/>
      <point x="198" y="168" type="curve"/>
      <point x="64" y="-16" type="line"/>
      <point x="96" y="-53" type="line"/>
      <point x="129" y="-48"/>
      <point x="235" y="-23"/>
      <point x="259" y="-2" type="curve"/>
      <point x="306" y="63" type="line"/>
      <point x="386" y="4"/>
      <point x="485" y="-30"/>
      <point x="598" y="-30" type="curve" smooth="yes"/>
      <point x="923" y="-30"/>
      <point x="1198" y="285"/>
      <point x="1198" y="647" type="curve" smooth="yes"/>
      <point x="1198" y="811"/>
      <point x="1149" y="973"/>
      <point x="1056" y="1094" type="curve"/>
    </contour>
    <contour>
      <point x="308" y="641" type="curve" smooth="yes"/>
      <point x="308" y="967"/>
      <point x="412" y="1160"/>
      <point x="604" y="1160" type="curve" smooth="yes"/>
      <point x="693" y="1160"/>
      <point x="770" y="1111"/>
      <point x="828" y="1033" type="curve"/>
      <point x="351" y="378" type="line"/>
      <point x="324" y="455"/>
      <point x="308" y="545"/>
    </contour>
    <contour>
      <point x="946" y="629" type="curve" smooth="yes"/>
      <point x="946" y="276"/>
      <point x="818" y="105"/>
      <point x="642" y="105" type="curve" smooth="yes"/>
      <point x="560" y="105"/>
      <point x="485" y="152"/>
      <point x="427" y="230" type="curve"/>
      <point x="904" y="885" type="line"/>
      <point x="931" y="807"/>
      <point x="946" y="719"/>
    </contour>
    <contour>
      <point x="627" y="1370" type="move" name="U"/>
    </contour>
    <contour>
      <point x="627" y="-100" type="move" name="L"/>
    </contour>
  </outline>
</glyph>
<glyph name="LtnCapThorn" format="1">
  <advance width="1161"/>
  <unicode hex="00DE"/>
  <outline>
    <contour>
      <point x="598" y="0" type="line"/>
      <point x="598" y="73" type="line"/>
      <point x="459" y="96"/>
      <point x="430" y="118"/>
      <point x="430" y="134" type="curve" smooth="yes"/>
      <point x="430" y="917" type="line"/>
      <point x="459" y="919"/>
      <point x="487" y="920"/>
      <point x="513" y="920" type="curve" smooth="yes"/>
      <point x="704" y="920"/>
      <point x="835" y="822"/>
      <point x="835" y="633" type="curve" smooth="yes"/>
      <point x="835" y="444"/>
      <point x="719" y="363"/>
      <point x="603" y="363" type="curve" smooth="yes"/>
      <point x="556" y="363"/>
      <point x="519" y="367"/>
      <point x="464" y="392" type="curve"/>
      <point x="495" y="288" type="line"/>
      <point x="540" y="268"/>
      <point x="602" y="258"/>
      <point x="663" y="258" type="curve" smooth="yes"/>
      <point x="840" y="257"/>
      <point x="1087" y="397"/>
      <point x="1087" y="674" type="curve" smooth="yes"/>
      <point x="1087" y="903"/>
      <point x="880" y="1028"/>
      <point x="570" y="1028" type="curve" smooth="yes"/>
      <point x="523" y="1028"/>
      <point x="476" y="1026"/>
      <point x="430" y="1023" type="curve"/>
      <point x="430" y="1125" type="line" smooth="yes"/>
      <point x="430" y="1144"/>
      <point x="461" y="1164"/>
      <point x="598" y="1187" type="curve"/>
      <point x="598" y="1260" type="line"/>
      <point x="42" y="1260" type="line"/>
      <point x="42" y="1187" type="line"/>
      <point x="138" y="1168"/>
      <point x="180" y="1141"/>
      <point x="180" y="1125" type="curve" smooth="yes"/>
      <point x="180" y="134" type="line" smooth="yes"/>
      <point x="180" y="116"/>
      <point x="132" y="91"/>
      <point x="42" y="73" type="curve"/>
      <point x="42" y="0" type="line"/>
    </contour>
    <contour>
      <point x="564" y="1370" type="move" name="U"/>
    </contour>
    <contour>
      <point x="564" y="-100" type="move" name="L"/>
    </contour>
  </outline>
</glyph>
<glyph name="DivSgn" format="1">
  <advance width="863"/>
  <unicode hex="00F7"/>
  <outline>
    <contour>
      <point x="810" y="603" type="curve"/>
      <point x="777" y="634" type="line"/>
      <point x="99" y="634" type="line"/>
      <point x="87" y="608"/>
      <point x="60" y="551"/>
      <point x="53" y="522" type="curve"/>
      <point x="85" y="491" type="line"/>
      <point x="764" y="491" type="line"/>
      <point x="774" y="513"/>
      <point x="802" y="574"/>
    </contour>
    <contour>
      <point x="538" y="845" type="curve"/>
      <point x="538" y="910"/>
      <point x="509" y="943"/>
      <point x="451" y="943" type="curve" smooth="yes"/>
      <point x="385" y="943"/>
      <point x="331" y="881"/>
      <point x="331" y="803" type="curve" smooth="yes"/>
      <point x="331" y="739"/>
      <point x="357" y="703"/>
      <point x="418" y="703" type="curve" smooth="yes"/>
      <point x="486" y="703"/>
      <point x="538" y="768"/>
    </contour>
    <contour>
      <point x="538" y="324" type="curve"/>
      <point x="538" y="389"/>
      <point x="509" y="423"/>
      <point x="451" y="423" type="curve" smooth="yes"/>
      <point x="385" y="423"/>
      <point x="331" y="361"/>
      <point x="331" y="283" type="curve" smooth="yes"/>
      <point x="331" y="219"/>
      <point x="357" y="182"/>
      <point x="418" y="182" type="curve" smooth="yes"/>
      <point x="486" y="182"/>
      <point x="538" y="247"/>
    </contour>
  </outline>
</glyph>
<glyph name="LtnSmOStrk" format="1">
  <advance width="1075"/>
  <unicode hex="00F8"/>
  <outline>
    <contour>
      <point x="967" y="983" type="line"/>
      <point x="921" y="973"/>
      <point x="846" y="938"/>
      <point x="810" y="915" type="curve"/>
      <point x="795" y="897" type="line"/>
      <point x="730" y="935"/>
      <point x="646" y="960"/>
      <point x="558" y="960" type="curve" smooth="yes"/>
      <point x="270" y="960"/>
      <point x="65" y="709"/>
      <point x="65" y="444" type="curve" smooth="yes"/>
      <point x="65" y="314"/>
      <point x="112" y="195"/>
      <point x="184" y="111" type="curve"/>
      <point x="81" y="-22" type="line"/>
      <point x="107" y="-53" type="line"/>
      <point x="148" y="-43"/>
      <point x="239" y="-6"/>
      <point x="264" y="14" type="curve"/>
      <point x="278" y="33" type="line"/>
      <point x="344" y="-5"/>
      <point x="430" y="-30"/>
      <point x="519" y="-30" type="curve" smooth="yes"/>
      <point x="784" y="-30"/>
      <point x="1010" y="219"/>
      <point x="1010" y="485" type="curve" smooth="yes"/>
      <point x="1010" y="615"/>
      <point x="965" y="734"/>
      <point x="893" y="818" type="curve"/>
      <point x="997" y="952" type="line"/>
    </contour>
    <contour>
      <point x="316" y="473" type="curve" smooth="yes"/>
      <point x="316" y="679"/>
      <point x="363" y="835"/>
      <point x="529" y="835" type="curve" smooth="yes"/>
      <point x="585" y="835"/>
      <point x="640" y="798"/>
      <point x="678" y="746" type="curve"/>
      <point x="341" y="311" type="line"/>
      <point x="326" y="356"/>
      <point x="316" y="419"/>
    </contour>
    <contour>
      <point x="760" y="440" type="curve" smooth="yes"/>
      <point x="760" y="220"/>
      <point x="706" y="95"/>
      <point x="547" y="95" type="curve" smooth="yes"/>
      <point x="493" y="95"/>
      <point x="438" y="134"/>
      <point x="397" y="186" type="curve"/>
      <point x="732" y="616" type="line"/>
      <point x="747" y="566"/>
      <point x="760" y="498"/>
    </contour>
    <contour>
      <point x="559" y="0" type="move" name="H"/>
    </contour>
    <contour>
      <point x="1075" y="900" type="move" name="R"/>
    </contour>
    <contour>
      <point x="548" y="1050" type="move" name="U"/>
    </contour>
    <contour>
      <point x="548" y="-100" type="move" name="L"/>
    </contour>
    <contour>
      <point x="602" y="0" type="move" name="O"/>
    </contour>
  </outline>
</glyph>
<glyph name="LtnSmThorn" format="1">
  <advance width="1145"/>
  <unicode hex="00FE"/>
  <outline>
    <contour>
      <point x="1080" y="507" type="curve"/>
      <point x="1080" y="802"/>
      <point x="932" y="960"/>
      <point x="750" y="960" type="curve" smooth="yes"/>
      <point x="674" y="960"/>
      <point x="569" y="927"/>
      <point x="420" y="796" type="curve"/>
      <point x="420" y="1508" type="line"/>
      <point x="377" y="1550" type="line"/>
      <point x="276" y="1512"/>
      <point x="200" y="1490"/>
      <point x="48" y="1470" type="curve"/>
      <point x="48" y="1400" type="line"/>
      <point x="161" y="1388"/>
      <point x="180" y="1386"/>
      <point x="180" y="1270" type="curve" smooth="yes"/>
      <point x="180" y="-345" type="line" smooth="yes"/>
      <point x="180" y="-368"/>
      <point x="136" y="-386"/>
      <point x="48" y="-407" type="curve"/>
      <point x="48" y="-480" type="line"/>
      <point x="589" y="-480" type="line"/>
      <point x="589" y="-407" type="line"/>
      <point x="464" y="-388"/>
      <point x="420" y="-366"/>
      <point x="420" y="-345" type="curve" smooth="yes"/>
      <point x="420" y="77" type="line"/>
      <point x="537" y="-4"/>
      <point x="616" y="-30"/>
      <point x="686" y="-30" type="curve" smooth="yes"/>
      <point x="862" y="-30"/>
      <point x="1080" y="244"/>
    </contour>
    <contour>
      <point x="855" y="429" type="curve"/>
      <point x="856" y="256"/>
      <point x="796" y="136"/>
      <point x="691" y="135" type="curve" smooth="yes"/>
      <point x="622" y="134"/>
      <point x="557" y="148"/>
      <point x="420" y="228" type="curve"/>
      <point x="420" y="678" type="line"/>
      <point x="537" y="775"/>
      <point x="583" y="790"/>
      <point x="631" y="790" type="curve" smooth="yes"/>
      <point x="745" y="790"/>
      <point x="857" y="674"/>
    </contour>
    <contour>
      <point x="563" y="1690" type="move" name="U"/>
    </contour>
    <contour>
      <point x="563" y="-600" type="move" name="L"/>
    </contour>
  </outline>
</glyph>
<glyph name="LtnCapLStrk" format="1">
  <advance width="1043"/>
  <unicode hex="0141"/>
  <outline>
    <contour>
      <point x="1019" y="304" type="curve"/>
      <point x="946" y="330" type="line"/>
      <point x="889" y="174"/>
      <point x="852" y="120"/>
      <point x="729" y="120" type="curve" smooth="yes"/>
      <point x="616" y="120" type="line" smooth="yes"/>
      <point x="470" y="120"/>
      <point x="430" y="147"/>
      <point x="430" y="194" type="curve" smooth="yes"/>
      <point x="430" y="597" type="line"/>
      <point x="695" y="731" type="line"/>
      <point x="713" y="760"/>
      <point x="734" y="818"/>
      <point x="741" y="857" type="curve"/>
      <point x="715" y="882" type="line"/>
      <point x="430" y="738" type="line"/>
      <point x="430" y="1125" type="line" smooth="yes"/>
      <point x="430" y="1144"/>
      <point x="478" y="1168"/>
      <point x="568" y="1187" type="curve"/>
      <point x="568" y="1260" type="line"/>
      <point x="43" y="1260" type="line"/>
      <point x="43" y="1187" type="line"/>
      <point x="139" y="1168"/>
      <point x="180" y="1141"/>
      <point x="180" y="1125" type="curve" smooth="yes"/>
      <point x="180" y="613" type="line"/>
      <point x="69" y="557" type="line"/>
      <point x="54" y="533"/>
      <point x="31" y="468"/>
      <point x="25" y="428" type="curve"/>
      <point x="52" y="406" type="line"/>
      <point x="180" y="470" type="line"/>
      <point x="180" y="134" type="line" smooth="yes"/>
      <point x="180" y="116"/>
      <point x="133" y="91"/>
      <point x="43" y="73" type="curve"/>
      <point x="43" y="0" type="line"/>
      <point x="978" y="0" type="line"/>
      <point x="988" y="39"/>
      <point x="1009" y="189"/>
    </contour>
    <contour>
      <point x="522" y="1370" type="move" name="U"/>
    </contour>
    <contour>
      <point x="522" y="-100" type="move" name="L"/>
    </contour>
  </outline>
</glyph>
<glyph name="LtnSmEng" format="1">
  <advance width="1150"/>
  <unicode hex="014B"/>
  <outline>
    <contour>
      <point x="1035" y="111" type="curve"/>
      <point x="1035" y="719" type="line" smooth="yes"/>
      <point x="1035" y="869"/>
      <point x="944" y="960"/>
      <point x="814" y="960" type="curve" smooth="yes"/>
      <point x="710" y="960"/>
      <point x="570" y="907"/>
      <point x="415" y="774" type="curve"/>
      <point x="405" y="919" type="line"/>
      <point x="363" y="961" type="line"/>
      <point x="289" y="924"/>
      <point x="138" y="895"/>
      <point x="48" y="889" type="curve"/>
      <point x="48" y="818" type="line"/>
      <point x="174" y="803"/>
      <point x="180" y="800"/>
      <point x="180" y="689" type="curve" smooth="yes"/>
      <point x="180" y="134" type="line" smooth="yes"/>
      <point x="180" y="112"/>
      <point x="136" y="96"/>
      <point x="48" y="73" type="curve"/>
      <point x="48" y="0" type="line"/>
      <point x="553" y="0" type="line"/>
      <point x="553" y="73" type="line"/>
      <point x="467" y="91"/>
      <point x="420" y="114"/>
      <point x="420" y="134" type="curve" smooth="yes"/>
      <point x="420" y="639" type="line"/>
      <point x="549" y="749"/>
      <point x="626" y="777"/>
      <point x="690" y="777" type="curve" smooth="yes"/>
      <point x="769" y="777"/>
      <point x="795" y="735"/>
      <point x="795" y="588" type="curve" smooth="yes"/>
      <point x="795" y="35" type="line" smooth="yes"/>
      <point x="795" y="-295"/>
      <point x="680" y="-331"/>
      <point x="627" y="-331" type="curve" smooth="yes"/>
      <point x="571" y="-331"/>
      <point x="479" y="-271"/>
      <point x="417" y="-200" type="curve"/>
      <point x="372" y="-219"/>
      <point x="222" y="-348"/>
      <point x="222" y="-379" type="curve" smooth="yes"/>
      <point x="222" y="-418"/>
      <point x="367" y="-493"/>
      <point x="502" y="-493" type="curve" smooth="yes"/>
      <point x="628" y="-493"/>
      <point x="742" y="-430"/>
      <point x="815" y="-373" type="curve" smooth="yes"/>
      <point x="944" y="-272"/>
      <point x="1035" y="-165"/>
    </contour>
    <contour>
      <point x="615" y="1050" type="move" name="U"/>
    </contour>
    <contour>
      <point x="615" y="-600" type="move" name="L"/>
    </contour>
  </outline>
</glyph>
<glyph name="LtnSmLigOe" format="1">
  <advance width="1650"/>
  <unicode hex="0153"/>
  <outline>
    <contour>
      <point x="1585" y="550" type="curve"/>
      <point x="1585" y="720"/>
      <point x="1501" y="960"/>
      <point x="1216" y="960" type="curve" smooth="yes"/>
      <point x="1117" y="960"/>
      <point x="1025" y="921"/>
      <point x="965" y="880" type="curve" smooth="yes"/>
      <point x="933" y="858"/>
      <point x="905" y="834"/>
      <point x="880" y="807" type="curve"/>
      <point x="802" y="903"/>
      <point x="684" y="960"/>
      <point x="550" y="960" type="curve" smooth="yes"/>
      <point x="271" y="960"/>
      <point x="65" y="709"/>
      <point x="65" y="444" type="curve" smooth="yes"/>
      <point x="65" y="172"/>
      <point x="248" y="-30"/>
      <point x="498" y="-30" type="curve" smooth="yes"/>
      <point x="633" y="-30"/>
      <point x="756" y="36"/>
      <point x="845" y="138" type="curve"/>
      <point x="923" y="32"/>
      <point x="1036" y="-30"/>
      <point x="1149" y="-30" type="curve" smooth="yes"/>
      <point x="1289" y="-30"/>
      <point x="1401" y="0"/>
      <point x="1577" y="195" type="curve"/>
      <point x="1571" y="205"/>
      <point x="1542" y="250"/>
      <point x="1525" y="259" type="curve"/>
      <point x="1384" y="157"/>
      <point x="1311" y="140"/>
      <point x="1237" y="140" type="curve" smooth="yes"/>
      <point x="1074" y="140"/>
      <point x="993" y="282"/>
      <point x="984" y="467" type="curve"/>
      <point x="1451" y="467" type="line"/>
      <point x="1494" y="484"/>
      <point x="1559" y="523"/>
    </contour>
    <contour>
      <point x="746" y="455" type="curve" smooth="yes"/>
      <point x="746" y="242"/>
      <point x="686" y="95"/>
      <point x="543" y="95" type="curve" smooth="yes"/>
      <point x="421" y="95"/>
      <point x="308" y="270"/>
      <point x="308" y="481" type="curve" smooth="yes"/>
      <point x="308" y="694"/>
      <point x="370" y="835"/>
      <point x="513" y="835" type="curve" smooth="yes"/>
      <point x="650" y="835"/>
      <point x="746" y="668"/>
    </contour>
    <contour>
      <point x="1188" y="841" type="curve" smooth="yes"/>
      <point x="1335" y="841"/>
      <point x="1359" y="688"/>
      <point x="1359" y="616" type="curve" smooth="yes"/>
      <point x="1359" y="588"/>
      <point x="1349" y="580"/>
      <point x="1320" y="580" type="curve" smooth="yes"/>
      <point x="986" y="580" type="line"/>
      <point x="1003" y="746"/>
      <point x="1076" y="841"/>
    </contour>
    <contour>
      <point x="1196" y="0" type="move" name="H"/>
    </contour>
    <contour>
      <point x="1650" y="900" type="move" name="R"/>
    </contour>
    <contour>
      <point x="825" y="1050" type="move" name="U"/>
    </contour>
    <contour>
      <point x="825" y="-100" type="move" name="L"/>
    </contour>
    <contour>
      <point x="1259" y="0" type="move" name="O"/>
    </contour>
  </outline>
</glyph>
<glyph name="LtnCapOpnE" format="1">
  <advance width="1077"/>
  <unicode hex="0190"/>
  <outline>
    <contour>
      <point x="1012" y="212" type="curve"/>
      <point x="958" y="281" type="line"/>
      <point x="813" y="166"/>
      <point x="705" y="140"/>
      <point x="588" y="140" type="curve" smooth="yes"/>
      <point x="415" y="140"/>
      <point x="315" y="236"/>
      <point x="315" y="352" type="curve" smooth="yes"/>
      <point x="315" y="473"/>
      <point x="433" y="600"/>
      <point x="706" y="615" type="curve"/>
      <point x="706" y="716" type="line"/>
      <point x="426" y="728"/>
      <point x="328" y="837"/>
      <point x="328" y="946" type="curve" smooth="yes"/>
      <point x="328" y="1076"/>
      <point x="439" y="1158"/>
      <point x="565" y="1158" type="curve" smooth="yes"/>
      <point x="683" y="1158"/>
      <point x="765" y="1081"/>
      <point x="819" y="991" type="curve"/>
      <point x="892" y="975" type="line"/>
      <point x="921" y="1025"/>
      <point x="977" y="1133"/>
      <point x="997" y="1186" type="curve"/>
      <point x="911" y="1257"/>
      <point x="761" y="1290"/>
      <point x="618" y="1290" type="curve" smooth="yes"/>
      <point x="496" y="1290"/>
      <point x="378" y="1255"/>
      <point x="292" y="1202" type="curve" smooth="yes"/>
      <point x="173" y="1130"/>
      <point x="98" y="1020"/>
      <point x="98" y="905" type="curve" smooth="yes"/>
      <point x="98" y="774"/>
      <point x="168" y="680"/>
      <point x="295" y="635" type="curve"/>
      <point x="171" y="580"/>
      <point x="65" y="446"/>
      <point x="65" y="291" type="curve" smooth="yes"/>
      <point x="65" y="158"/>
      <point x="188" y="-30"/>
      <point x="495" y="-30" type="curve" smooth="yes"/>
      <point x="697" y="-30"/>
      <point x="852" y="42"/>
    </contour>
    <contour>
      <point x="538" y="1370" type="move" name="U"/>
    </contour>
    <contour>
      <point x="538" y="-100" type="move" name="L"/>
    </contour>
  </outline>
</glyph>
<glyph name="LtnCapIStrk" format="1">
  <advance width="670"/>
  <unicode hex="0197"/>
  <outline>
    <contour>
      <point x="620" y="697" type="line"/>
      <point x="595" y="720" type="line"/>
      <point x="450" y="720" type="line"/>
      <point x="450" y="1125" type="line" smooth="yes"/>
      <point x="450" y="1144"/>
      <point x="498" y="1168"/>
      <point x="588" y="1187" type="curve"/>
      <point x="588" y="1260" type="line"/>
      <point x="63" y="1260" type="line"/>
      <point x="63" y="1187" type="line"/>
      <point x="159" y="1168"/>
      <point x="200" y="1141"/>
      <point x="200" y="1125" type="curve" smooth="yes"/>
      <point x="200" y="720" type="line"/>
      <point x="66" y="720" type="line"/>
      <point x="58" y="699"/>
      <point x="39" y="644"/>
      <point x="33" y="624" type="curve"/>
      <point x="55" y="600" type="line"/>
      <point x="200" y="600" type="line"/>
      <point x="200" y="134" type="line" smooth="yes"/>
      <point x="200" y="116"/>
      <point x="153" y="91"/>
      <point x="63" y="73" type="curve"/>
      <point x="63" y="0" type="line"/>
      <point x="588" y="0" type="line"/>
      <point x="588" y="73" type="line"/>
      <point x="492" y="91"/>
      <point x="450" y="118"/>
      <point x="450" y="134" type="curve" smooth="yes"/>
      <point x="450" y="600" type="line"/>
      <point x="584" y="600" type="line"/>
    </contour>
    <contour>
      <point x="326" y="1370" type="move" name="U"/>
    </contour>
    <contour>
      <point x="326" y="-100" type="move" name="L"/>
    </contour>
  </outline>
</glyph>
<glyph name="LtnSmKHook" format="1">
  <advance width="1129"/>
  <unicode hex="0199"/>
  <outline>
    <contour>
      <point x="1137" y="33" type="curve"/>
      <point x="1131" y="106" type="line"/>
      <point x="1053" y="100"/>
      <point x="1021" y="106"/>
      <point x="984" y="149" type="curve" smooth="yes"/>
      <point x="623" y="558" type="line"/>
      <point x="927" y="788" type="line" smooth="yes"/>
      <point x="983" y="833"/>
      <point x="1043" y="851"/>
      <point x="1102" y="857" type="curve"/>
      <point x="1102" y="930" type="line"/>
      <point x="663" y="930" type="line"/>
      <point x="663" y="857" type="line"/>
      <point x="733" y="857"/>
      <point x="765" y="843"/>
      <point x="683" y="769" type="curve" smooth="yes"/>
      <point x="420" y="532" type="line"/>
      <point x="420" y="957" type="line" smooth="yes"/>
      <point x="423" y="1319"/>
      <point x="521" y="1395"/>
      <point x="620" y="1395" type="curve" smooth="yes"/>
      <point x="702" y="1395"/>
      <point x="804" y="1313"/>
      <point x="857" y="1236" type="curve"/>
      <point x="896" y="1253"/>
      <point x="1025" y="1374"/>
      <point x="1025" y="1410" type="curve" smooth="yes"/>
      <point x="1025" y="1442"/>
      <point x="861" y="1550"/>
      <point x="722" y="1550" type="curve" smooth="yes"/>
      <point x="631" y="1550"/>
      <point x="508" y="1512"/>
      <point x="429" y="1452" type="curve" smooth="yes"/>
      <point x="275" y="1336"/>
      <point x="183" y="1215"/>
      <point x="180" y="896" type="curve"/>
      <point x="180" y="134" type="line" smooth="yes"/>
      <point x="180" y="110"/>
      <point x="136" y="96"/>
      <point x="48" y="73" type="curve"/>
      <point x="48" y="0" type="line"/>
      <point x="530" y="0" type="line"/>
      <point x="530" y="73" type="line"/>
      <point x="431" y="104"/>
      <point x="420" y="114"/>
      <point x="420" y="134" type="curve" smooth="yes"/>
      <point x="420" y="512" type="line"/>
      <point x="778" y="43" type="line"/>
      <point x="807" y="4"/>
      <point x="852" y="-10"/>
      <point x="908" y="-10" type="curve" smooth="yes"/>
      <point x="936" y="-10"/>
      <point x="1059" y="15"/>
    </contour>
    <contour>
      <point x="592" y="1690" type="move" name="U"/>
    </contour>
    <contour>
      <point x="592" y="-100" type="move" name="L"/>
    </contour>
  </outline>
</glyph>
<glyph name="LtnSmLBar" format="1">
  <advance width="711"/>
  <unicode hex="019A"/>
  <outline>
    <contour>
      <point x="664" y="816" type="line"/>
      <point x="642" y="841" type="line"/>
      <point x="476" y="841" type="line"/>
      <point x="476" y="1509" type="line"/>
      <point x="432" y="1550" type="line"/>
      <point x="328" y="1507"/>
      <point x="237" y="1489"/>
      <point x="103" y="1470" type="curve"/>
      <point x="103" y="1400" type="line"/>
      <point x="215" y="1387"/>
      <point x="236" y="1387"/>
      <point x="236" y="1266" type="curve" smooth="yes"/>
      <point x="236" y="841" type="line"/>
      <point x="91" y="841" type="line"/>
      <point x="80" y="820"/>
      <point x="54" y="764"/>
      <point x="48" y="743" type="curve"/>
      <point x="70" y="721" type="line"/>
      <point x="236" y="721" type="line"/>
      <point x="236" y="134" type="line" smooth="yes"/>
      <point x="236" y="112"/>
      <point x="208" y="93"/>
      <point x="93" y="73" type="curve"/>
      <point x="93" y="0" type="line"/>
      <point x="618" y="0" type="line"/>
      <point x="618" y="73" type="line"/>
      <point x="509" y="91"/>
      <point x="476" y="114"/>
      <point x="476" y="134" type="curve" smooth="yes"/>
      <point x="476" y="721" type="line"/>
      <point x="621" y="721" type="line"/>
    </contour>
    <contour>
      <point x="356" y="1690" type="move" name="U"/>
    </contour>
    <contour>
      <point x="356" y="-100" type="move" name="L"/>
    </contour>
  </outline>
</glyph>
<glyph name="LtnCapEsh" format="1">
  <advance width="1121"/>
  <unicode hex="01A9"/>
  <outline>
    <contour>
      <point x="1055" y="390" type="curve"/>
      <point x="972" y="410" type="line"/>
      <point x="923" y="235"/>
      <point x="905" y="193"/>
      <point x="821" y="193" type="curve" smooth="yes"/>
      <point x="330" y="193" type="line"/>
      <point x="680" y="674" type="line"/>
      <point x="384" y="1130" type="line"/>
      <point x="796" y="1130" type="line" smooth="yes"/>
      <point x="835" y="1130"/>
      <point x="882" y="1109"/>
      <point x="931" y="911" type="curve"/>
      <point x="1017" y="930" type="line"/>
      <point x="1013" y="1276" type="line"/>
      <point x="933" y="1260"/>
      <point x="875" y="1260"/>
      <point x="800" y="1260" type="curve" smooth="yes"/>
      <point x="66" y="1260" type="line"/>
      <point x="66" y="1210" type="line"/>
      <point x="459" y="613" type="line"/>
      <point x="45" y="51" type="line"/>
      <point x="83" y="0" type="line"/>
      <point x="1029" y="0" type="line"/>
      <point x="1035" y="72"/>
      <point x="1049" y="283"/>
    </contour>
    <contour>
      <point x="550" y="1370" type="move" name="U"/>
    </contour>
    <contour>
      <point x="550" y="-100" type="move" name="L"/>
    </contour>
  </outline>
</glyph>
<glyph name="LtnRevEshLoop" format="1">
  <advance width="796"/>
  <unicode hex="01AA"/>
  <outline>
    <contour>
      <point x="15" y="1275" type="curve" smooth="yes"/>
      <point x="15" y="1130"/>
      <point x="106" y="1047"/>
      <point x="251" y="1047" type="curve" smooth="yes"/>
      <point x="308" y="1047"/>
      <point x="365" y="1067"/>
      <point x="418" y="1112" type="curve"/>
      <point x="418" y="1071" type="line" smooth="yes"/>
      <point x="417" y="767"/>
      <point x="358" y="356"/>
      <point x="358" y="-40" type="curve" smooth="yes"/>
      <point x="358" y="-324"/>
      <point x="466" y="-493"/>
      <point x="671" y="-493" type="curve" smooth="yes"/>
      <point x="923" y="-493"/>
      <point x="1099" y="-321"/>
      <point x="1091" y="-190" type="curve"/>
      <point x="1064" y="-136" type="line"/>
      <point x="1023" y="-130"/>
      <point x="815" y="-200"/>
      <point x="823" y="-212" type="curve" smooth="yes"/>
      <point x="858" y="-269"/>
      <point x="813" y="-375"/>
      <point x="735" y="-375" type="curve" smooth="yes"/>
      <point x="651" y="-375"/>
      <point x="608" y="-299"/>
      <point x="608" y="21" type="curve" smooth="yes"/>
      <point x="608" y="355"/>
      <point x="668" y="802"/>
      <point x="668" y="1207" type="curve" smooth="yes"/>
      <point x="668" y="1381"/>
      <point x="589" y="1550"/>
      <point x="375" y="1550" type="curve" smooth="yes"/>
      <point x="147" y="1550"/>
      <point x="15" y="1407"/>
    </contour>
    <contour>
      <point x="307" y="1213" type="curve" smooth="yes"/>
      <point x="249" y="1213"/>
      <point x="215" y="1255"/>
      <point x="215" y="1327" type="curve" smooth="yes"/>
      <point x="215" y="1396"/>
      <point x="265" y="1440"/>
      <point x="308" y="1440" type="curve" smooth="yes"/>
      <point x="369" y="1440"/>
      <point x="398" y="1366"/>
      <point x="410" y="1257" type="curve"/>
      <point x="384" y="1233"/>
      <point x="350" y="1213"/>
    </contour>
    <contour>
      <point x="553" y="1690" type="move" name="U"/>
    </contour>
    <contour>
      <point x="553" y="-600" type="move" name="L"/>
    </contour>
  </outline>
</glyph>
<glyph name="LtnCapUHorn" format="1">
  <advance width="1498"/>
  <unicode hex="01AF"/>
  <outline>
    <contour>
      <point x="1498" y="1392" type="curve" smooth="yes"/>
      <point x="1498" y="1447"/>
      <point x="1468" y="1504"/>
      <point x="1431" y="1533" type="curve"/>
      <point x="1170" y="1415" type="line"/>
      <point x="1207" y="1384"/>
      <point x="1236" y="1349"/>
      <point x="1236" y="1311" type="curve" smooth="yes"/>
      <point x="1236" y="1296"/>
      <point x="1233" y="1279"/>
      <point x="1224" y="1260" type="curve"/>
      <point x="863" y="1260" type="line"/>
      <point x="863" y="1187" type="line"/>
      <point x="959" y="1168"/>
      <point x="1000" y="1141"/>
      <point x="1000" y="1125" type="curve" smooth="yes"/>
      <point x="1000" y="498" type="line" smooth="yes"/>
      <point x="1000" y="300"/>
      <point x="933" y="115"/>
      <point x="743" y="115" type="curve" smooth="yes"/>
      <point x="515" y="115"/>
      <point x="430" y="253"/>
      <point x="430" y="509" type="curve" smooth="yes"/>
      <point x="430" y="1125" type="line" smooth="yes"/>
      <point x="430" y="1144"/>
      <point x="478" y="1168"/>
      <point x="568" y="1187" type="curve"/>
      <point x="568" y="1260" type="line"/>
      <point x="43" y="1260" type="line"/>
      <point x="43" y="1187" type="line"/>
      <point x="139" y="1168"/>
      <point x="180" y="1141"/>
      <point x="180" y="1125" type="curve" smooth="yes"/>
      <point x="180" y="444" type="line" smooth="yes"/>
      <point x="180" y="119"/>
      <point x="406" y="-30"/>
      <point x="681" y="-30" type="curve" smooth="yes"/>
      <point x="969" y="-30"/>
      <point x="1175" y="174"/>
      <point x="1175" y="524" type="curve" smooth="yes"/>
      <point x="1175" y="1074" type="line"/>
      <point x="1398" y="1177"/>
      <point x="1498" y="1300"/>
    </contour>
    <contour>
      <point x="718" y="1370" type="move" name="U"/>
    </contour>
    <contour>
      <point x="718" y="-100" type="move" name="L"/>
    </contour>
  </outline>
</glyph>
<glyph name="LtnSmUHorn" format="1">
  <advance width="1386"/>
  <unicode hex="01B0"/>
  <outline>
    <contour>
      <point x="1386" y="1042" type="curve" smooth="yes"/>
      <point x="1386" y="1097"/>
      <point x="1356" y="1154"/>
      <point x="1319" y="1183" type="curve"/>
      <point x="1059" y="1065" type="line"/>
      <point x="1096" y="1034"/>
      <point x="1124" y="999"/>
      <point x="1124" y="961" type="curve" smooth="yes"/>
      <point x="1124" y="919"/>
      <point x="1098" y="853"/>
      <point x="990" y="797" type="curve"/>
      <point x="990" y="914" type="line"/>
      <point x="953" y="960" type="line"/>
      <point x="857" y="936"/>
      <point x="751" y="914"/>
      <point x="618" y="902" type="curve"/>
      <point x="618" y="832" type="line"/>
      <point x="741" y="826"/>
      <point x="750" y="809"/>
      <point x="750" y="689" type="curve" smooth="yes"/>
      <point x="750" y="262" type="line"/>
      <point x="641" y="167"/>
      <point x="567" y="143"/>
      <point x="511" y="143" type="curve" smooth="yes"/>
      <point x="437" y="143"/>
      <point x="395" y="177"/>
      <point x="395" y="342" type="curve" smooth="yes"/>
      <point x="395" y="914" type="line"/>
      <point x="360" y="960" type="line"/>
      <point x="249" y="925"/>
      <point x="167" y="914"/>
      <point x="34" y="902" type="curve"/>
      <point x="34" y="832" type="line"/>
      <point x="157" y="820"/>
      <point x="155" y="816"/>
      <point x="155" y="689" type="curve" smooth="yes"/>
      <point x="155" y="279" type="line" smooth="yes"/>
      <point x="155" y="29"/>
      <point x="284" y="-30"/>
      <point x="408" y="-30" type="curve" smooth="yes"/>
      <point x="493" y="-30"/>
      <point x="584" y="-8"/>
      <point x="750" y="136" type="curve"/>
      <point x="766" y="-1"/>
      <point x="811" y="-30"/>
      <point x="858" y="-30" type="curve" smooth="yes"/>
      <point x="891" y="-30"/>
      <point x="1046" y="48"/>
      <point x="1144" y="112" type="curve"/>
      <point x="1119" y="187" type="line"/>
      <point x="1051" y="158"/>
      <point x="1029" y="154"/>
      <point x="1013" y="164" type="curve" smooth="yes"/>
      <point x="995" y="177"/>
      <point x="990" y="202"/>
      <point x="990" y="284" type="curve" smooth="yes"/>
      <point x="990" y="692" type="line"/>
      <point x="1265" y="802"/>
      <point x="1386" y="941"/>
    </contour>
    <contour>
      <point x="577" y="1050" type="move" name="U"/>
    </contour>
    <contour>
      <point x="577" y="-100" type="move" name="L"/>
    </contour>
  </outline>
</glyph>
<glyph name="LtnCapYHook.RtHook" format="1">
  <advance width="1455"/>
  <unicode hex="01B3"/>
  <outline>
    <contour>
      <point x="913" y="0" type="line"/>
      <point x="913" y="73" type="line"/>
      <point x="788" y="98"/>
      <point x="755" y="128"/>
      <point x="755" y="145" type="curve" smooth="yes"/>
      <point x="755" y="528" type="line"/>
      <point x="1034" y="1050" type="line" smooth="yes"/>
      <point x="1064" y="1107"/>
      <point x="1100" y="1156"/>
      <point x="1151" y="1156" type="curve" smooth="yes"/>
      <point x="1203" y="1156"/>
      <point x="1235" y="1116"/>
      <point x="1235" y="1055" type="curve" smooth="yes"/>
      <point x="1235" y="1007"/>
      <point x="1205" y="956"/>
      <point x="1186" y="920" type="curve"/>
      <point x="1211" y="861" type="line"/>
      <point x="1251" y="872"/>
      <point x="1414" y="944"/>
      <point x="1428" y="978" type="curve" smooth="yes"/>
      <point x="1434" y="994"/>
      <point x="1447" y="1060"/>
      <point x="1447" y="1101" type="curve" smooth="yes"/>
      <point x="1447" y="1218"/>
      <point x="1361" y="1320"/>
      <point x="1211" y="1320" type="curve" smooth="yes"/>
      <point x="1052" y="1320"/>
      <point x="966" y="1225"/>
      <point x="901" y="1100" type="curve" smooth="yes"/>
      <point x="684" y="680" type="line"/>
      <point x="591" y="872"/>
      <point x="465" y="1095"/>
      <point x="365" y="1224" type="curve" smooth="yes"/>
      <point x="344" y="1250"/>
      <point x="308" y="1270"/>
      <point x="264" y="1270" type="curve" smooth="yes"/>
      <point x="209" y="1270"/>
      <point x="78" y="1253"/>
      <point x="0" y="1242" type="curve"/>
      <point x="4" y="1169" type="line"/>
      <point x="115" y="1169"/>
      <point x="136" y="1150"/>
      <point x="161" y="1121" type="curve"/>
      <point x="254" y="992"/>
      <point x="408" y="738"/>
      <point x="505" y="523" type="curve"/>
      <point x="505" y="145" type="line" smooth="yes"/>
      <point x="505" y="126"/>
      <point x="469" y="98"/>
      <point x="348" y="73" type="curve"/>
      <point x="348" y="0" type="line"/>
    </contour>
    <contour>
      <point x="630" y="1370" type="move" name="U"/>
    </contour>
    <contour>
      <point x="630" y="-100" type="move" name="L"/>
    </contour>
  </outline>
</glyph>
<glyph name="LtnSmYHook" format="1">
  <advance width="1040"/>
  <unicode hex="01B4"/>
  <outline>
    <contour>
      <point x="466" y="930" type="line"/>
      <point x="13" y="930" type="line"/>
      <point x="13" y="857" type="line"/>
      <point x="79" y="842"/>
      <point x="112" y="826"/>
      <point x="124" y="789" type="curve"/>
      <point x="459" y="-25" type="line"/>
      <point x="433" y="-91" type="line" smooth="yes"/>
      <point x="373" y="-250"/>
      <point x="295" y="-289"/>
      <point x="213" y="-289" type="curve" smooth="yes"/>
      <point x="184" y="-289"/>
      <point x="133" y="-278"/>
      <point x="81" y="-245" type="curve"/>
      <point x="29" y="-278"/>
      <point x="-65" y="-405"/>
      <point x="-65" y="-424" type="curve" smooth="yes"/>
      <point x="-65" y="-456"/>
      <point x="54" y="-493"/>
      <point x="135" y="-493" type="curve" smooth="yes"/>
      <point x="265" y="-493"/>
      <point x="459" y="-411"/>
      <point x="576" y="-93" type="curve" smooth="yes"/>
      <point x="950" y="912" type="line" smooth="yes"/>
      <point x="1007" y="1064"/>
      <point x="1077" y="1130"/>
      <point x="1174" y="1130" type="curve" smooth="yes"/>
      <point x="1203" y="1130"/>
      <point x="1254" y="1120"/>
      <point x="1306" y="1087" type="curve"/>
      <point x="1358" y="1120"/>
      <point x="1452" y="1249"/>
      <point x="1452" y="1268" type="curve" smooth="yes"/>
      <point x="1452" y="1292"/>
      <point x="1335" y="1335"/>
      <point x="1254" y="1335" type="curve" smooth="yes"/>
      <point x="1124" y="1335"/>
      <point x="932" y="1259"/>
      <point x="804" y="907" type="curve" smooth="yes"/>
      <point x="578" y="287" type="line"/>
      <point x="376" y="789" type="line" smooth="yes"/>
      <point x="359" y="832"/>
      <point x="363" y="844"/>
      <point x="466" y="857" type="curve"/>
    </contour>
    <contour>
      <point x="547" y="1050" type="move" name="U"/>
    </contour>
    <contour>
      <point x="815" y="-100" type="move" name="L"/>
    </contour>
  </outline>
</glyph>
<glyph name="LtnCapLBar" format="1">
  <advance width="1043"/>
  <unicode hex="023D"/>
  <outline>
    <contour>
      <point x="751" y="633" type="line"/>
      <point x="726" y="656" type="line"/>
      <point x="65" y="656" type="line"/>
      <point x="57" y="635"/>
      <point x="38" y="580"/>
      <point x="32" y="560" type="curve"/>
      <point x="54" y="536" type="line"/>
      <point x="715" y="536" type="line"/>
    </contour>
    <contour>
      <point x="496" y="1370" type="move" name="U"/>
    </contour>
    <contour>
      <point x="526" y="-100" type="move" name="L"/>
    </contour>
    <component base="LtnCapL"/>
  </outline>
</glyph>
<glyph name="LtnSmGlottalStop" format="1">
  <advance width="895"/>
  <unicode hex="0242"/>
  <outline>
    <contour>
      <point x="715" y="0" type="line"/>
      <point x="715" y="73" type="line"/>
      <point x="606" y="91"/>
      <point x="553" y="114"/>
      <point x="553" y="134" type="curve" smooth="yes"/>
      <point x="553" y="313" type="line" smooth="yes"/>
      <point x="553" y="508"/>
      <point x="830" y="506"/>
      <point x="830" y="723" type="curve" smooth="yes"/>
      <point x="830" y="860"/>
      <point x="718" y="960"/>
      <point x="500" y="960" type="curve" smooth="yes"/>
      <point x="254" y="960"/>
      <point x="55" y="834"/>
      <point x="55" y="651" type="curve" smooth="yes"/>
      <point x="55" y="641"/>
      <point x="56" y="624"/>
      <point x="60" y="610" type="curve"/>
      <point x="87" y="580" type="line"/>
      <point x="154" y="586"/>
      <point x="274" y="615"/>
      <point x="324" y="641" type="curve"/>
      <point x="314" y="660"/>
      <point x="309" y="687"/>
      <point x="309" y="706" type="curve" smooth="yes"/>
      <point x="309" y="790"/>
      <point x="371" y="842"/>
      <point x="429" y="842" type="curve" smooth="yes"/>
      <point x="508" y="842"/>
      <point x="583" y="787"/>
      <point x="583" y="663" type="curve" smooth="yes"/>
      <point x="583" y="480"/>
      <point x="313" y="488"/>
      <point x="313" y="259" type="curve" smooth="yes"/>
      <point x="313" y="134" type="line" smooth="yes"/>
      <point x="313" y="112"/>
      <point x="265" y="93"/>
      <point x="150" y="73" type="curve"/>
      <point x="150" y="0" type="line"/>
    </contour>
    <contour>
      <point x="433" y="1050" type="move" name="U"/>
    </contour>
    <contour>
      <point x="433" y="-100" type="move" name="L"/>
    </contour>
  </outline>
</glyph>
<glyph name="LtnCapTurnedV" format="1">
  <advance width="1361"/>
  <unicode hex="0245"/>
  <outline>
    <contour>
      <point x="13" y="73" type="curve"/>
      <point x="13" y="0" type="line"/>
      <point x="444" y="0" type="line"/>
      <point x="444" y="73" type="line"/>
      <point x="335" y="86"/>
      <point x="303" y="100"/>
      <point x="317" y="139" type="curve" smooth="yes"/>
      <point x="613" y="975" type="line"/>
      <point x="938" y="137" type="line" smooth="yes"/>
      <point x="953" y="99"/>
      <point x="924" y="81"/>
      <point x="818" y="73" type="curve"/>
      <point x="818" y="0" type="line"/>
      <point x="1328" y="0" type="line"/>
      <point x="1328" y="73" type="line"/>
      <point x="1244" y="84"/>
      <point x="1207" y="104"/>
      <point x="1193" y="139" type="curve" smooth="yes"/>
      <point x="738" y="1290" type="line"/>
      <point x="673" y="1275"/>
      <point x="564" y="1238"/>
      <point x="543" y="1179" type="curve" smooth="yes"/>
      <point x="168" y="139" type="line"/>
      <point x="155" y="102"/>
      <point x="103" y="90"/>
    </contour>
    <contour>
      <point x="680" y="1370" type="move" name="U"/>
    </contour>
    <contour>
      <point x="670" y="-100" type="move" name="L"/>
    </contour>
  </outline>
</glyph>
<glyph name="LtnCapSmQHookTail" format="1">
  <advance width="1364"/>
  <unicode hex="024A"/>
  <outline>
    <contour>
      <point x="894" y="-198" type="line"/>
      <point x="894" y="-397"/>
      <point x="1008" y="-493"/>
      <point x="1172" y="-493" type="curve" smooth="yes"/>
      <point x="1408" y="-493"/>
      <point x="1602" y="-319"/>
      <point x="1602" y="-190" type="curve"/>
      <point x="1576" y="-136" type="line"/>
      <point x="1521" y="-136"/>
      <point x="1335" y="-191"/>
      <point x="1335" y="-212" type="curve"/>
      <point x="1342" y="-226"/>
      <point x="1346" y="-240"/>
      <point x="1346" y="-254" type="curve" smooth="yes"/>
      <point x="1346" y="-306"/>
      <point x="1312" y="-375"/>
      <point x="1246" y="-375" type="curve" smooth="yes"/>
      <point x="1161" y="-375"/>
      <point x="1144" y="-305"/>
      <point x="1144" y="-99" type="curve" smooth="yes"/>
      <point x="1144" y="964" type="line" smooth="yes"/>
      <point x="1144" y="1126"/>
      <point x="1181" y="1243"/>
      <point x="1181" y="1243" type="curve"/>
      <point x="1132" y="1288" type="line"/>
      <point x="1106" y="1259"/>
      <point x="1034" y="1206"/>
      <point x="973" y="1168" type="curve"/>
      <point x="862" y="1273"/>
      <point x="757" y="1290"/>
      <point x="671" y="1290" type="curve" smooth="yes"/>
      <point x="582" y="1290"/>
      <point x="482" y="1259"/>
      <point x="391" y="1203" type="curve" smooth="yes"/>
      <point x="277" y="1133"/>
      <point x="51" y="911"/>
      <point x="51" y="597" type="curve" smooth="yes"/>
      <point x="51" y="198"/>
      <point x="275" y="-30"/>
      <point x="489" y="-30" type="curve" smooth="yes"/>
      <point x="647" y="-30"/>
      <point x="767" y="49"/>
      <point x="894" y="206" type="curve"/>
    </contour>
    <contour>
      <point x="597" y="165" type="curve" smooth="yes"/>
      <point x="451" y="165"/>
      <point x="291" y="348"/>
      <point x="291" y="638" type="curve" smooth="yes"/>
      <point x="291" y="974"/>
      <point x="478" y="1140"/>
      <point x="634" y="1140" type="curve" smooth="yes"/>
      <point x="739" y="1140"/>
      <point x="837" y="1077"/>
      <point x="894" y="987" type="curve"/>
      <point x="894" y="354" type="line"/>
      <point x="799" y="254"/>
      <point x="703" y="165"/>
    </contour>
    <contour>
      <point x="653" y="1370" type="move" name="U"/>
    </contour>
    <contour>
      <point x="653" y="-600" type="move" name="L"/>
    </contour>
  </outline>
</glyph>
<glyph name="LtnSmBHook" format="1">
  <advance width="1100"/>
  <unicode hex="0253"/>
  <outline>
    <contour>
      <point x="1025" y="507" type="curve"/>
      <point x="1025" y="799"/>
      <point x="890" y="960"/>
      <point x="697" y="960" type="curve" smooth="yes"/>
      <point x="621" y="960"/>
      <point x="498" y="917"/>
      <point x="365" y="802" type="curve"/>
      <point x="365" y="929" type="line" smooth="yes"/>
      <point x="365" y="1310"/>
      <point x="469" y="1395"/>
      <point x="555" y="1395" type="curve" smooth="yes"/>
      <point x="648" y="1395"/>
      <point x="734" y="1307"/>
      <point x="789" y="1238" type="curve"/>
      <point x="828" y="1256"/>
      <point x="954" y="1371"/>
      <point x="954" y="1408" type="curve" smooth="yes"/>
      <point x="954" y="1441"/>
      <point x="805" y="1550"/>
      <point x="656" y="1550" type="curve" smooth="yes"/>
      <point x="530" y="1550"/>
      <point x="393" y="1482"/>
      <point x="319" y="1413" type="curve" smooth="yes"/>
      <point x="183" y="1287"/>
      <point x="125" y="1160"/>
      <point x="125" y="836" type="curve" smooth="yes"/>
      <point x="125" y="96" type="line"/>
      <point x="269" y="23"/>
      <point x="433" y="-30"/>
      <point x="507" y="-30" type="curve" smooth="yes"/>
      <point x="758" y="-30"/>
      <point x="1025" y="275"/>
    </contour>
    <contour>
      <point x="798" y="431" type="curve"/>
      <point x="798" y="277"/>
      <point x="740" y="138"/>
      <point x="605" y="138" type="curve" smooth="yes"/>
      <point x="558" y="138"/>
      <point x="471" y="161"/>
      <point x="365" y="218" type="curve"/>
      <point x="365" y="678" type="line"/>
      <point x="462" y="761"/>
      <point x="528" y="788"/>
      <point x="575" y="788" type="curve" smooth="yes"/>
      <point x="696" y="788"/>
      <point x="798" y="697"/>
    </contour>
    <contour>
      <point x="574" y="1690" type="move" name="U"/>
    </contour>
    <contour>
      <point x="574" y="-100" type="move" name="L"/>
    </contour>
  </outline>
</glyph>
<glyph name="LtnSmOpnO" format="1">
  <advance width="978"/>
  <unicode hex="0254"/>
  <outline>
    <contour>
      <point x="913" y="489" type="curve"/>
      <point x="913" y="786"/>
      <point x="707" y="960"/>
      <point x="491" y="960" type="curve" smooth="yes"/>
      <point x="345" y="960"/>
      <point x="220" y="915"/>
      <point x="81" y="743" type="curve"/>
      <point x="87" y="732"/>
      <point x="119" y="688"/>
      <point x="136" y="680" type="curve"/>
      <point x="258" y="778"/>
      <point x="328" y="791"/>
      <point x="404" y="791" type="curve" smooth="yes"/>
      <point x="534" y="791"/>
      <point x="673" y="686"/>
      <point x="673" y="459" type="curve" smooth="yes"/>
      <point x="673" y="209"/>
      <point x="593" y="94"/>
      <point x="473" y="94" type="curve" smooth="yes"/>
      <point x="384" y="94"/>
      <point x="322" y="168"/>
      <point x="322" y="255" type="curve" smooth="yes"/>
      <point x="322" y="312"/>
      <point x="353" y="367"/>
      <point x="390" y="402" type="curve"/>
      <point x="361" y="471" type="line"/>
      <point x="310" y="461"/>
      <point x="159" y="418"/>
      <point x="109" y="402" type="curve"/>
      <point x="81" y="373"/>
      <point x="62" y="319"/>
      <point x="62" y="261" type="curve" smooth="yes"/>
      <point x="62" y="94"/>
      <point x="220" y="-30"/>
      <point x="440" y="-30" type="curve" smooth="yes"/>
      <point x="710" y="-30"/>
      <point x="913" y="203"/>
    </contour>
    <contour>
      <point x="448" y="0" type="move" name="H"/>
    </contour>
    <contour>
      <point x="978" y="900" type="move" name="R"/>
    </contour>
    <contour>
      <point x="487" y="1050" type="move" name="U"/>
    </contour>
    <contour>
      <point x="487" y="-100" type="move" name="L"/>
    </contour>
    <contour>
      <point x="502" y="0" type="move" name="O"/>
    </contour>
  </outline>
</glyph>
<glyph name="LtnSmSchwa" format="1">
  <advance width="994"/>
  <unicode hex="0259"/>
  <outline>
    <contour>
      <point x="929" y="500" type="curve" smooth="yes"/>
      <point x="929" y="797"/>
      <point x="732" y="960"/>
      <point x="507" y="960" type="curve" smooth="yes"/>
      <point x="354" y="960"/>
      <point x="238" y="912"/>
      <point x="76" y="740" type="curve"/>
      <point x="84" y="729"/>
      <point x="111" y="685"/>
      <point x="128" y="677" type="curve"/>
      <point x="265" y="775"/>
      <point x="354" y="791"/>
      <point x="427" y="791" type="curve" smooth="yes"/>
      <point x="550" y="791"/>
      <point x="667" y="696"/>
      <point x="680" y="493" type="curve"/>
      <point x="255" y="493" type="line"/>
      <point x="208" y="475"/>
      <point x="138" y="444"/>
      <point x="99" y="424" type="curve"/>
      <point x="77" y="393"/>
      <point x="63" y="355"/>
      <point x="63" y="302" type="curve" smooth="yes"/>
      <point x="63" y="112"/>
      <point x="225" y="-30"/>
      <point x="469" y="-30" type="curve" smooth="yes"/>
      <point x="588" y="-30"/>
      <point x="710" y="23"/>
      <point x="785" y="105" type="curve" smooth="yes"/>
      <point x="876" y="203"/>
      <point x="929" y="343"/>
    </contour>
    <contour>
      <point x="482" y="89" type="curve" smooth="yes"/>
      <point x="380" y="89"/>
      <point x="305" y="168"/>
      <point x="305" y="293" type="curve" smooth="yes"/>
      <point x="305" y="346"/>
      <point x="330" y="380"/>
      <point x="371" y="380" type="curve" smooth="yes"/>
      <point x="679" y="380" type="line"/>
      <point x="668" y="183"/>
      <point x="613" y="89"/>
    </contour>
    <contour>
      <point x="495" y="0" type="move" name="H"/>
    </contour>
    <contour>
      <point x="495" y="1050" type="move" name="U"/>
    </contour>
    <contour>
      <point x="495" y="-100" type="move" name="L"/>
    </contour>
    <contour>
      <point x="528" y="0" type="move" name="O"/>
    </contour>
  </outline>
</glyph>
<glyph name="LtnSmOpnE" format="1">
  <advance width="904"/>
  <unicode hex="025B"/>
  <outline>
    <contour>
      <point x="867" y="190" type="curve"/>
      <point x="814" y="254" type="line"/>
      <point x="669" y="147"/>
      <point x="583" y="136"/>
      <point x="507" y="136" type="curve" smooth="yes"/>
      <point x="392" y="136"/>
      <point x="320" y="195"/>
      <point x="319" y="279" type="curve" smooth="yes"/>
      <point x="319" y="377"/>
      <point x="431" y="436"/>
      <point x="596" y="450" type="curve"/>
      <point x="585" y="530" type="line"/>
      <point x="402" y="547"/>
      <point x="328" y="610"/>
      <point x="328" y="700" type="curve" smooth="yes"/>
      <point x="328" y="779"/>
      <point x="379" y="841"/>
      <point x="478" y="841" type="curve" smooth="yes"/>
      <point x="620" y="841"/>
      <point x="659" y="745"/>
      <point x="682" y="667" type="curve"/>
      <point x="754" y="656" type="line"/>
      <point x="776" y="693"/>
      <point x="833" y="848"/>
      <point x="827" y="881" type="curve"/>
      <point x="774" y="930"/>
      <point x="629" y="960"/>
      <point x="535" y="960" type="curve" smooth="yes"/>
      <point x="447" y="960"/>
      <point x="352" y="946"/>
      <point x="268" y="901" type="curve" smooth="yes"/>
      <point x="178" y="853"/>
      <point x="98" y="775"/>
      <point x="98" y="669" type="curve" smooth="yes"/>
      <point x="98" y="560"/>
      <point x="170" y="499"/>
      <point x="285" y="460" type="curve"/>
      <point x="193" y="426"/>
      <point x="65" y="338"/>
      <point x="65" y="221" type="curve" smooth="yes"/>
      <point x="65" y="63"/>
      <point x="211" y="-30"/>
      <point x="441" y="-30" type="curve" smooth="yes"/>
      <point x="564" y="-30"/>
      <point x="693" y="9"/>
    </contour>
    <contour>
      <point x="465" y="0" type="move" name="H"/>
    </contour>
    <contour>
      <point x="904" y="900" type="move" name="R"/>
    </contour>
    <contour>
      <point x="465" y="1050" type="move" name="U"/>
    </contour>
    <contour>
      <point x="465" y="-100" type="move" name="L"/>
    </contour>
    <contour>
      <point x="536" y="0" type="move" name="O"/>
    </contour>
  </outline>
</glyph>
<glyph name="LtnSmGamma" format="1">
  <advance width="1040"/>
  <unicode hex="0263"/>
  <outline>
    <contour>
      <point x="1027" y="857" type="curve"/>
      <point x="1027" y="930" type="line"/>
      <point x="670" y="930" type="line"/>
      <point x="670" y="857" type="line"/>
      <point x="769" y="842"/>
      <point x="787" y="827"/>
      <point x="768" y="789" type="curve" smooth="yes"/>
      <point x="567" y="402" type="line"/>
      <point x="376" y="789" type="line" smooth="yes"/>
      <point x="357" y="829"/>
      <point x="363" y="844"/>
      <point x="466" y="857" type="curve"/>
      <point x="466" y="930" type="line"/>
      <point x="13" y="930" type="line"/>
      <point x="13" y="857" type="line"/>
      <point x="79" y="842"/>
      <point x="100" y="823"/>
      <point x="116" y="789" type="curve" smooth="yes"/>
      <point x="432" y="141" type="line"/>
      <point x="364" y="9" type="line" smooth="yes"/>
      <point x="283" y="-148"/>
      <point x="261" y="-210"/>
      <point x="261" y="-284" type="curve" smooth="yes"/>
      <point x="261" y="-399"/>
      <point x="365" y="-493"/>
      <point x="513" y="-493" type="curve" smooth="yes"/>
      <point x="707" y="-493"/>
      <point x="819" y="-341"/>
      <point x="819" y="-220" type="curve" smooth="yes"/>
      <point x="819" y="-111"/>
      <point x="789" y="-45"/>
      <point x="710" y="115" type="curve" smooth="yes"/>
      <point x="643" y="249" type="line"/>
      <point x="917" y="789" type="line" smooth="yes"/>
      <point x="935" y="826"/>
      <point x="947" y="838"/>
    </contour>
    <contour>
      <point x="595" y="-267" type="curve" smooth="yes"/>
      <point x="595" y="-321"/>
      <point x="555" y="-360"/>
      <point x="504" y="-360" type="curve" smooth="yes"/>
      <point x="452" y="-360"/>
      <point x="409" y="-326"/>
      <point x="409" y="-259" type="curve" smooth="yes"/>
      <point x="409" y="-220"/>
      <point x="438" y="-157"/>
      <point x="509" y="-16" type="curve"/>
      <point x="578" y="-159"/>
      <point x="595" y="-207"/>
    </contour>
    <contour>
      <point x="519" y="1050" type="move" name="U"/>
    </contour>
    <contour>
      <point x="519" y="-600" type="move" name="L"/>
    </contour>
  </outline>
</glyph>
<glyph name="LtnSmIota" format="1">
  <advance width="670"/>
  <unicode hex="0269"/>
  <outline>
    <contour>
      <point x="690" y="158" type="curve"/>
      <point x="665" y="242" type="line"/>
      <point x="579" y="181"/>
      <point x="518" y="162"/>
      <point x="497" y="162" type="curve" smooth="yes"/>
      <point x="437" y="162"/>
      <point x="430" y="187"/>
      <point x="430" y="367" type="curve" smooth="yes"/>
      <point x="430" y="960" type="line"/>
      <point x="365" y="960" type="line"/>
      <point x="285" y="927"/>
      <point x="164" y="904"/>
      <point x="57" y="888" type="curve"/>
      <point x="57" y="818" type="line"/>
      <point x="186" y="805"/>
      <point x="190" y="797"/>
      <point x="190" y="648" type="curve" smooth="yes"/>
      <point x="190" y="226" type="line" smooth="yes"/>
      <point x="190" y="51"/>
      <point x="236" y="-30"/>
      <point x="358" y="-30" type="curve" smooth="yes"/>
      <point x="418" y="-30"/>
      <point x="510" y="6"/>
    </contour>
    <contour>
      <point x="317" y="0" type="move" name="H"/>
    </contour>
    <contour>
      <point x="670" y="900" type="move" name="R"/>
    </contour>
    <contour>
      <point x="310" y="1050" type="move" name="U"/>
    </contour>
    <contour>
      <point x="310" y="-100" type="move" name="L"/>
    </contour>
    <contour>
      <point x="392" y="0" type="move" name="O"/>
    </contour>
  </outline>
</glyph>
<glyph name="LtnSmNLftHook" format="1">
  <advance width="1188"/>
  <unicode hex="0272"/>
  <outline>
    <contour>
      <point x="1165" y="0" type="line"/>
      <point x="1165" y="73" type="line"/>
      <point x="1060" y="100"/>
      <point x="1033" y="116"/>
      <point x="1033" y="134" type="curve" smooth="yes"/>
      <point x="1033" y="704" type="line" smooth="yes"/>
      <point x="1033" y="854"/>
      <point x="957" y="960"/>
      <point x="812" y="960" type="curve" smooth="yes"/>
      <point x="708" y="960"/>
      <point x="565" y="907"/>
      <point x="412" y="774" type="curve"/>
      <point x="402" y="918" type="line"/>
      <point x="360" y="960" type="line"/>
      <point x="288" y="926"/>
      <point x="135" y="898"/>
      <point x="45" y="888" type="curve"/>
      <point x="45" y="818" type="line"/>
      <point x="173" y="805"/>
      <point x="178" y="796"/>
      <point x="178" y="689" type="curve" smooth="yes"/>
      <point x="178" y="43" type="line" smooth="yes"/>
      <point x="178" y="-273"/>
      <point x="108" y="-320"/>
      <point x="46" y="-320" type="curve" smooth="yes"/>
      <point x="-9" y="-320"/>
      <point x="-91" y="-283"/>
      <point x="-128" y="-238" type="curve"/>
      <point x="-174" y="-263"/>
      <point x="-300" y="-364"/>
      <point x="-300" y="-401" type="curve" smooth="yes"/>
      <point x="-300" y="-435"/>
      <point x="-162" y="-493"/>
      <point x="-70" y="-493" type="curve" smooth="yes"/>
      <point x="-4" y="-493"/>
      <point x="119" y="-447"/>
      <point x="188" y="-387" type="curve"/>
      <point x="295" y="-308"/>
      <point x="418" y="-194"/>
      <point x="418" y="103" type="curve" smooth="yes"/>
      <point x="418" y="639" type="line"/>
      <point x="546" y="749"/>
      <point x="624" y="778"/>
      <point x="687" y="778" type="curve" smooth="yes"/>
      <point x="767" y="778"/>
      <point x="793" y="735"/>
      <point x="793" y="588" type="curve" smooth="yes"/>
      <point x="793" y="134" type="line" smooth="yes"/>
      <point x="793" y="116"/>
      <point x="757" y="98"/>
      <point x="660" y="73" type="curve"/>
      <point x="660" y="0" type="line"/>
    </contour>
    <contour>
      <point x="589" y="1050" type="move" name="U"/>
    </contour>
    <contour>
      <point x="589" y="-600" type="move" name="L"/>
    </contour>
  </outline>
</glyph>
<glyph name="LtnSmBarredO" format="1">
  <advance width="1075"/>
  <unicode hex="0275"/>
  <outline>
    <contour>
      <point x="1010" y="485" type="curve" smooth="yes"/>
      <point x="1010" y="758"/>
      <point x="831" y="960"/>
      <point x="558" y="960" type="curve" smooth="yes"/>
      <point x="270" y="960"/>
      <point x="65" y="709"/>
      <point x="65" y="444" type="curve" smooth="yes"/>
      <point x="65" y="172"/>
      <point x="244" y="-30"/>
      <point x="519" y="-30" type="curve" smooth="yes"/>
      <point x="784" y="-30"/>
      <point x="1010" y="219"/>
    </contour>
    <contour>
      <point x="753" y="524" type="curve"/>
      <point x="318" y="524" type="line"/>
      <point x="326" y="713"/>
      <point x="379" y="835"/>
      <point x="529" y="835" type="curve" smooth="yes"/>
      <point x="644" y="835"/>
      <point x="731" y="707"/>
    </contour>
    <contour>
      <point x="758" y="404" type="line"/>
      <point x="750" y="198"/>
      <point x="694" y="95"/>
      <point x="547" y="95" type="curve" smooth="yes"/>
      <point x="439" y="95"/>
      <point x="341" y="218"/>
      <point x="321" y="404" type="curve"/>
    </contour>
    <contour>
      <point x="1075" y="900" type="move" name="R"/>
    </contour>
    <contour>
      <point x="548" y="1050" type="move" name="U"/>
    </contour>
    <contour>
      <point x="548" y="-100" type="move" name="L"/>
    </contour>
  </outline>
</glyph>
<glyph name="LtnSmEsh" format="1">
  <advance width="579"/>
  <unicode hex="0283"/>
  <outline>
    <contour>
      <point x="473" y="89" type="curve" smooth="yes"/>
      <point x="473" y="323"/>
      <point x="365" y="839"/>
      <point x="365" y="1146" type="curve" smooth="yes"/>
      <point x="365" y="1326"/>
      <point x="423" y="1395"/>
      <point x="485" y="1395" type="curve" smooth="yes"/>
      <point x="535" y="1395"/>
      <point x="607" y="1339"/>
      <point x="655" y="1276" type="curve"/>
      <point x="694" y="1287"/>
      <point x="819" y="1425"/>
      <point x="819" y="1454" type="curve" smooth="yes"/>
      <point x="819" y="1477"/>
      <point x="691" y="1550"/>
      <point x="564" y="1550" type="curve" smooth="yes"/>
      <point x="505" y="1550"/>
      <point x="391" y="1516"/>
      <point x="319" y="1458" type="curve" smooth="yes"/>
      <point x="213" y="1372"/>
      <point x="115" y="1254"/>
      <point x="115" y="1016" type="curve" smooth="yes"/>
      <point x="115" y="783"/>
      <point x="223" y="265"/>
      <point x="223" y="-50" type="curve" smooth="yes"/>
      <point x="223" y="-261"/>
      <point x="159" y="-320"/>
      <point x="87" y="-320" type="curve" smooth="yes"/>
      <point x="37" y="-320"/>
      <point x="-53" y="-273"/>
      <point x="-96" y="-221" type="curve"/>
      <point x="-135" y="-239"/>
      <point x="-268" y="-361"/>
      <point x="-268" y="-384" type="curve" smooth="yes"/>
      <point x="-268" y="-406"/>
      <point x="-169" y="-493"/>
      <point x="-27" y="-493" type="curve" smooth="yes"/>
      <point x="56" y="-493"/>
      <point x="162" y="-453"/>
      <point x="233" y="-396" type="curve" smooth="yes"/>
      <point x="340" y="-310"/>
      <point x="473" y="-170"/>
    </contour>
    <contour>
      <point x="276" y="1690" type="move" name="U"/>
    </contour>
    <contour>
      <point x="276" y="-600" type="move" name="L"/>
    </contour>
  </outline>
</glyph>
<glyph name="LtnSmTurnedV" format="1">
  <advance width="1048"/>
  <unicode hex="028C"/>
  <outline>
    <contour>
      <point x="20" y="73" type="curve"/>
      <point x="20" y="0" type="line"/>
      <point x="343" y="0" type="line"/>
      <point x="343" y="73" type="line"/>
      <point x="253" y="88"/>
      <point x="245" y="101"/>
      <point x="262" y="141" type="curve" smooth="yes"/>
      <point x="465" y="644" type="line"/>
      <point x="679" y="141" type="line" smooth="yes"/>
      <point x="697" y="99"/>
      <point x="684" y="86"/>
      <point x="581" y="73" type="curve"/>
      <point x="581" y="0" type="line"/>
      <point x="1034" y="0" type="line"/>
      <point x="1034" y="73" type="line"/>
      <point x="968" y="88"/>
      <point x="946" y="105"/>
      <point x="931" y="141" type="curve"/>
      <point x="578" y="960" type="line"/>
      <point x="513" y="945"/>
      <point x="429" y="908"/>
      <point x="406" y="849" type="curve" smooth="yes"/>
      <point x="123" y="141" type="line" smooth="yes"/>
      <point x="107" y="103"/>
      <point x="100" y="92"/>
    </contour>
    <contour>
      <point x="836" y="0" type="move" name="H"/>
    </contour>
    <contour>
      <point x="1048" y="900" type="move" name="R"/>
    </contour>
    <contour>
      <point x="527" y="1050" type="move" name="U"/>
    </contour>
    <contour>
      <point x="527" y="-100" type="move" name="L"/>
    </contour>
    <contour>
      <point x="752" y="0" type="move" name="O"/>
    </contour>
  </outline>
</glyph>
<glyph name="LtnSmEzh" format="1">
  <advance width="976"/>
  <unicode hex="0292"/>
  <outline>
    <contour>
      <point x="921" y="-34" type="curve" smooth="yes"/>
      <point x="921" y="236"/>
      <point x="739" y="356"/>
      <point x="533" y="360" type="curve" smooth="yes"/>
      <point x="522" y="360"/>
      <point x="503" y="358"/>
      <point x="491" y="357" type="curve"/>
      <point x="897" y="887" type="line"/>
      <point x="874" y="930" type="line"/>
      <point x="291" y="930" type="line" smooth="yes"/>
      <point x="205" y="930"/>
      <point x="165" y="930"/>
      <point x="108" y="946" type="curve"/>
      <point x="83" y="620" type="line"/>
      <point x="155" y="600" type="line"/>
      <point x="189" y="746"/>
      <point x="242" y="810"/>
      <point x="302" y="810" type="curve" smooth="yes"/>
      <point x="601" y="810" type="line"/>
      <point x="183" y="275" type="line"/>
      <point x="187" y="264"/>
      <point x="209" y="221"/>
      <point x="218" y="209" type="curve"/>
      <point x="285" y="231"/>
      <point x="347" y="248"/>
      <point x="399" y="248" type="curve"/>
      <point x="610" y="253"/>
      <point x="681" y="88"/>
      <point x="681" y="-92" type="curve" smooth="yes"/>
      <point x="681" y="-273"/>
      <point x="580" y="-354"/>
      <point x="466" y="-354" type="curve" smooth="yes"/>
      <point x="362" y="-354"/>
      <point x="292" y="-277"/>
      <point x="233" y="-143" type="curve"/>
      <point x="178" y="-151"/>
      <point x="21" y="-265"/>
      <point x="21" y="-295" type="curve" smooth="yes"/>
      <point x="21" y="-355"/>
      <point x="185" y="-493"/>
      <point x="412" y="-493" type="curve" smooth="yes"/>
      <point x="650" y="-493"/>
      <point x="921" y="-316"/>
    </contour>
    <contour>
      <point x="471" y="1050" type="move" name="U"/>
    </contour>
    <contour>
      <point x="471" y="-600" type="move" name="L"/>
    </contour>
  </outline>
</glyph>
<glyph name="ModApos" format="1">
  <advance width="508"/>
  <unicode hex="02BC"/>
  <outline>
    <contour>
      <point x="439" y="1292" type="curve"/>
      <point x="440" y="1378"/>
      <point x="409" y="1449"/>
      <point x="334" y="1497" type="curve"/>
      <point x="288" y="1502"/>
      <point x="89" y="1430"/>
      <point x="65" y="1398" type="curve"/>
      <point x="80" y="1324" type="line"/>
      <point x="179" y="1322"/>
      <point x="238" y="1268"/>
      <point x="237" y="1192" type="curve" smooth="yes"/>
      <point x="236" y="1104"/>
      <point x="193" y="1056"/>
      <point x="144" y="996" type="curve"/>
      <point x="209" y="946" type="line"/>
      <point x="338" y="1028"/>
      <point x="437" y="1148"/>
    </contour>
  </outline>
</glyph>
<glyph name="ModGlottalStop" format="1">
  <advance width="625"/>
  <unicode hex="02C0"/>
  <outline>
    <contour>
      <point x="397" y="812" type="line"/>
      <point x="397" y="968" type="line" smooth="yes"/>
      <point x="397" y="1141"/>
      <point x="620" y="1171"/>
      <point x="620" y="1349" type="curve" smooth="yes"/>
      <point x="620" y="1461"/>
      <point x="528" y="1550"/>
      <point x="358" y="1550" type="curve" smooth="yes"/>
      <point x="170" y="1550"/>
      <point x="17" y="1448"/>
      <point x="17" y="1320" type="curve" smooth="yes"/>
      <point x="17" y="1314"/>
      <point x="17" y="1306"/>
      <point x="18" y="1300" type="curve"/>
      <point x="37" y="1282" type="line"/>
      <point x="79" y="1286"/>
      <point x="175" y="1307"/>
      <point x="205" y="1320" type="curve"/>
      <point x="201" y="1331"/>
      <point x="197" y="1343"/>
      <point x="197" y="1355" type="curve" smooth="yes"/>
      <point x="197" y="1417"/>
      <point x="255" y="1467"/>
      <point x="312" y="1467" type="curve" smooth="yes"/>
      <point x="391" y="1467"/>
      <point x="450" y="1420"/>
      <point x="450" y="1322" type="curve" smooth="yes"/>
      <point x="450" y="1162"/>
      <point x="227" y="1111"/>
      <point x="227" y="926" type="curve" smooth="yes"/>
      <point x="227" y="812" type="line"/>
    </contour>
    <contour>
      <point x="311" y="1625" type="move" name="U"/>
    </contour>
    <contour>
      <point x="311" y="750" type="move" name="L"/>
    </contour>
  </outline>
</glyph>
<glyph name="ModLowMacron" format="1">
  <advance width="1010"/>
  <unicode hex="02CD"/>
  <outline>
    <contour>
      <point x="931" y="-73" type="curve"/>
      <point x="899" y="-42" type="line"/>
      <point x="135" y="-42" type="line"/>
      <point x="123" y="-68"/>
      <point x="86" y="-144"/>
      <point x="79" y="-173" type="curve"/>
      <point x="111" y="-205" type="line"/>
      <point x="875" y="-205" type="line"/>
      <point x="885" y="-182"/>
      <point x="923" y="-102"/>
    </contour>
  </outline>
</glyph>
<glyph name="DotAbv" format="1">
  <advance width="400"/>
  <unicode hex="02D9"/>
  <outline>
    <contour>
      <point x="338" y="1268" type="curve"/>
      <point x="338" y="1349"/>
      <point x="293" y="1389"/>
      <point x="219" y="1389" type="curve" smooth="yes"/>
      <point x="137" y="1389"/>
      <point x="63" y="1311"/>
      <point x="63" y="1213" type="curve" smooth="yes"/>
      <point x="63" y="1134"/>
      <point x="104" y="1091"/>
      <point x="181" y="1091" type="curve" smooth="yes"/>
      <point x="267" y="1091"/>
      <point x="338" y="1170"/>
    </contour>
  </outline>
</glyph>
<glyph name="Ogonek" format="1">
  <advance width="530"/>
  <unicode hex="02DB"/>
  <outline>
    <contour>
      <point x="536" y="-299" type="curve"/>
      <point x="505" y="-232" type="line"/>
      <point x="449" y="-283"/>
      <point x="405" y="-299"/>
      <point x="372" y="-299" type="curve" smooth="yes"/>
      <point x="329" y="-299"/>
      <point x="294" y="-276"/>
      <point x="294" y="-227" type="curve" smooth="yes"/>
      <point x="294" y="-164"/>
      <point x="327" y="-90"/>
      <point x="465" y="24" type="curve"/>
      <point x="383" y="43" type="line"/>
      <point x="167" y="-61"/>
      <point x="60" y="-180"/>
      <point x="60" y="-299" type="curve" smooth="yes"/>
      <point x="60" y="-412"/>
      <point x="164" y="-444"/>
      <point x="238" y="-444" type="curve" smooth="yes"/>
      <point x="350" y="-444"/>
      <point x="471" y="-370"/>
    </contour>
    <contour>
      <point x="289" y="-600" type="move" name="L"/>
    </contour>
  </outline>
</glyph>
<glyph name="SmTilde" format="1">
  <advance width="822"/>
  <unicode hex="02DC"/>
  <outline>
    <contour>
      <point x="805" y="1377" type="curve"/>
      <point x="728" y="1407" type="line"/>
      <point x="683" y="1329"/>
      <point x="642" y="1292"/>
      <point x="583" y="1292" type="curve" smooth="yes"/>
      <point x="497" y="1292"/>
      <point x="403" y="1397"/>
      <point x="279" y="1397" type="curve" smooth="yes"/>
      <point x="157" y="1397"/>
      <point x="65" y="1225"/>
      <point x="18" y="1116" type="curve"/>
      <point x="93" y="1088" type="line"/>
      <point x="142" y="1162"/>
      <point x="176" y="1203"/>
      <point x="236" y="1203" type="curve" smooth="yes"/>
      <point x="337" y="1203"/>
      <point x="428" y="1098"/>
      <point x="542" y="1098" type="curve" smooth="yes"/>
      <point x="665" y="1098"/>
      <point x="758" y="1269"/>
    </contour>
  </outline>
</glyph>
<glyph name="CombGrave" format="1">
  <advance width="0"/>
  <unicode hex="0300"/>
  <outline>
    <contour>
      <point x="-274" y="1086" type="curve"/>
      <point x="-492" y="1512" type="line"/>
      <point x="-525" y="1510"/>
      <point x="-687" y="1480"/>
      <point x="-713" y="1473" type="curve"/>
      <point x="-742" y="1417" type="line"/>
      <point x="-360" y="1040" type="line"/>
      <point x="-337" y="1047"/>
      <point x="-291" y="1070"/>
    </contour>
    <contour>
      <point x="-435" y="1050" type="move" name="_U"/>
    </contour>
    <contour>
      <point x="-367" y="1433" type="move" name="U"/>
    </contour>
  </outline>
</glyph>
<glyph name="CombAcute" format="1">
  <advance width="0"/>
  <unicode hex="0301"/>
  <outline>
    <contour>
      <point x="-219" y="1420" type="line"/>
      <point x="-249" y="1474" type="line"/>
      <point x="-279" y="1483"/>
      <point x="-446" y="1510"/>
      <point x="-477" y="1512" type="curve"/>
      <point x="-688" y="1083" type="line"/>
      <point x="-673" y="1071"/>
      <point x="-625" y="1044"/>
      <point x="-601" y="1040" type="curve"/>
    </contour>
    <contour>
      <point x="-541" y="1050" type="move" name="_U"/>
    </contour>
    <contour>
      <point x="-608" y="1433" type="move" name="U"/>
    </contour>
  </outline>
</glyph>
<glyph name="CombCircum" format="1">
  <advance width="0"/>
  <unicode hex="0302"/>
  <outline>
    <contour>
      <point x="-176" y="1107" type="curve"/>
      <point x="-445" y="1494" type="line"/>
      <point x="-582" y="1494" type="line"/>
      <point x="-861" y="1107" type="line"/>
      <point x="-842" y="1082"/>
      <point x="-816" y="1050"/>
      <point x="-794" y="1040" type="curve"/>
      <point x="-515" y="1263" type="line"/>
      <point x="-234" y="1040" type="line"/>
      <point x="-211" y="1050"/>
      <point x="-192" y="1082"/>
    </contour>
    <contour>
      <point x="-515" y="1050" type="move" name="_U"/>
    </contour>
    <contour>
      <point x="-515" y="1523" type="move" name="U"/>
    </contour>
  </outline>
</glyph>
<glyph name="CombDiaer" format="1">
  <advance width="0"/>
  <unicode hex="0308"/>
  <outline>
    <contour>
      <point x="-589" y="1268" type="curve"/>
      <point x="-589" y="1349"/>
      <point x="-633" y="1389"/>
      <point x="-708" y="1389" type="curve" smooth="yes"/>
      <point x="-789" y="1389"/>
      <point x="-864" y="1311"/>
      <point x="-864" y="1213" type="curve" smooth="yes"/>
      <point x="-864" y="1134"/>
      <point x="-822" y="1091"/>
      <point x="-745" y="1091" type="curve" smooth="yes"/>
      <point x="-660" y="1091"/>
      <point x="-589" y="1170"/>
    </contour>
    <contour>
      <point x="-166" y="1268" type="curve"/>
      <point x="-166" y="1349"/>
      <point x="-211" y="1389"/>
      <point x="-285" y="1389" type="curve" smooth="yes"/>
      <point x="-367" y="1389"/>
      <point x="-441" y="1311"/>
      <point x="-441" y="1213" type="curve" smooth="yes"/>
      <point x="-441" y="1134"/>
      <point x="-400" y="1091"/>
      <point x="-323" y="1091" type="curve" smooth="yes"/>
      <point x="-237" y="1091"/>
      <point x="-166" y="1170"/>
    </contour>
    <contour>
      <point x="-515" y="1050" type="move" name="_U"/>
    </contour>
    <contour>
      <point x="-515" y="1418" type="move" name="U"/>
    </contour>
  </outline>
</glyph>
<glyph name="CombHookAbv" format="1">
  <advance width="0"/>
  <unicode hex="0309"/>
  <outline>
    <contour>
      <point x="-320" y="1333" type="curve"/>
      <point x="-320" y="1399"/>
      <point x="-367" y="1459"/>
      <point x="-481" y="1458" type="curve" smooth="yes"/>
      <point x="-604" y="1457"/>
      <point x="-715" y="1377"/>
      <point x="-715" y="1299" type="curve" smooth="yes"/>
      <point x="-715" y="1293"/>
      <point x="-714" y="1285"/>
      <point x="-712" y="1279" type="curve"/>
      <point x="-701" y="1268" type="line"/>
      <point x="-639" y="1274"/>
      <point x="-582" y="1290"/>
      <point x="-549" y="1305" type="curve"/>
      <point x="-556" y="1315"/>
      <point x="-560" y="1326"/>
      <point x="-560" y="1333" type="curve" smooth="yes"/>
      <point x="-560" y="1355"/>
      <point x="-541" y="1380"/>
      <point x="-514" y="1380" type="curve" smooth="yes"/>
      <point x="-486" y="1380"/>
      <point x="-470" y="1363"/>
      <point x="-470" y="1319" type="curve" smooth="yes"/>
      <point x="-470" y="1224"/>
      <point x="-785" y="1180"/>
      <point x="-521" y="1063" type="curve"/>
      <point x="-501" y="1065"/>
      <point x="-449" y="1081"/>
      <point x="-430" y="1094" type="curve"/>
      <point x="-568" y="1193"/>
      <point x="-320" y="1224"/>
    </contour>
    <contour>
      <point x="-517" y="1050" type="move" name="_U"/>
    </contour>
    <contour>
      <point x="-517" y="1370" type="move" name="U"/>
    </contour>
  </outline>
</glyph>
<glyph name="CombCaron" format="1">
  <advance width="0"/>
  <unicode hex="030C"/>
  <outline>
    <contour>
      <point x="-166" y="1445" type="line"/>
      <point x="-184" y="1471"/>
      <point x="-211" y="1503"/>
      <point x="-233" y="1513" type="curve"/>
      <point x="-511" y="1295" type="line"/>
      <point x="-793" y="1513" type="line"/>
      <point x="-816" y="1503"/>
      <point x="-835" y="1471"/>
      <point x="-851" y="1445" type="curve"/>
      <point x="-581" y="1064" type="line"/>
      <point x="-444" y="1064" type="line"/>
    </contour>
    <contour>
      <point x="-508" y="1050" type="move" name="_U"/>
    </contour>
    <contour>
      <point x="-508" y="1453" type="move" name="U"/>
    </contour>
  </outline>
</glyph>
<glyph name="CombHorn" format="1">
  <advance width="130"/>
  <unicode hex="031B"/>
  <outline>
    <contour>
      <point x="130" y="1042" type="curve"/>
      <point x="130" y="1097"/>
      <point x="100" y="1154"/>
      <point x="63" y="1183" type="curve"/>
      <point x="-198" y="1065" type="line"/>
      <point x="-161" y="1034"/>
      <point x="-132" y="999"/>
      <point x="-132" y="961" type="curve" smooth="yes"/>
      <point x="-132" y="913"/>
      <point x="-166" y="831"/>
      <point x="-324" y="772" type="curve"/>
      <point x="-299" y="680" type="line"/>
      <point x="-1" y="791"/>
      <point x="130" y="937"/>
    </contour>
    <contour>
      <point x="0" y="900" type="move" name="_R"/>
    </contour>
  </outline>
</glyph>
<glyph name="CombDotBlw" format="1">
  <advance width="0"/>
  <unicode hex="0323"/>
  <outline>
    <contour>
      <point x="-378" y="-272" type="curve"/>
      <point x="-378" y="-192"/>
      <point x="-422" y="-151"/>
      <point x="-496" y="-151" type="curve" smooth="yes"/>
      <point x="-578" y="-151"/>
      <point x="-653" y="-229"/>
      <point x="-653" y="-328" type="curve" smooth="yes"/>
      <point x="-653" y="-407"/>
      <point x="-611" y="-449"/>
      <point x="-534" y="-449" type="curve" smooth="yes"/>
      <point x="-449" y="-449"/>
      <point x="-378" y="-370"/>
    </contour>
    <contour>
      <point x="-515" y="-100" type="move" name="_L"/>
    </contour>
    <contour>
      <point x="-515" y="-600" type="move" name="L"/>
    </contour>
  </outline>
</glyph>
<glyph name="CombDblOverline" format="1">
  <advance width="0"/>
  <unicode hex="033F"/>
  <outline>
    <contour>
      <point x="76" y="1299" type="curve"/>
      <point x="44" y="1331" type="line"/>
      <point x="-974" y="1331" type="line"/>
      <point x="-986" y="1305"/>
      <point x="-1023" y="1236"/>
      <point x="-1030" y="1207" type="curve"/>
      <point x="-998" y="1175" type="line"/>
      <point x="21" y="1175" type="line"/>
      <point x="31" y="1198"/>
      <point x="69" y="1270"/>
    </contour>
    <contour>
      <point x="76" y="1569" type="curve"/>
      <point x="44" y="1601" type="line"/>
      <point x="-974" y="1601" type="line"/>
      <point x="-986" y="1575"/>
      <point x="-1023" y="1506"/>
      <point x="-1030" y="1477" type="curve"/>
      <point x="-998" y="1445" type="line"/>
      <point x="21" y="1445" type="line"/>
      <point x="31" y="1468"/>
      <point x="69" y="1540"/>
    </contour>
    <contour>
      <point x="-477" y="1050" type="move" name="_U"/>
    </contour>
    <contour>
      <point x="-477" y="1680" type="move" name="U"/>
    </contour>
  </outline>
</glyph>
<glyph name="CombDblMacronBlw" format="1">
  <advance width="0"/>
  <unicode hex="035F"/>
  <outline>
    <contour>
      <point x="718" y="-601" type="curve"/>
      <point x="687" y="-570" type="line"/>
      <point x="-662" y="-570" type="line"/>
      <point x="-675" y="-596"/>
      <point x="-712" y="-672"/>
      <point x="-718" y="-701" type="curve"/>
      <point x="-687" y="-733" type="line"/>
      <point x="663" y="-733" type="line"/>
      <point x="673" y="-710"/>
      <point x="711" y="-630"/>
    </contour>
    <contour>
      <point x="0" y="-700" type="move" name="L"/>
    </contour>
  </outline>
</glyph>
